<svg width="355" height="313" viewBox="0 0 355 313" fill="none" xmlns="http://www.w3.org/2000/svg">
<path d="M49.023 148.182V30.6144C49.023 27.4963 48.3734 25.2994 47.0741 24.0238C45.7749 22.6065 43.4201 21.8978 40.0096 21.8978C39.8472 18.2127 40.984 15.3072 43.4201 13.1812C45.8561 11.0552 49.7538 9.9922 55.1131 9.9922C60.6348 9.9922 64.4512 12.3308 66.5625 17.008C72.8962 12.3308 79.3923 9.9922 86.0508 9.9922C102.129 9.9922 110.168 16.9371 110.168 30.827V68.032C110.168 74.5517 107.813 79.5124 103.103 82.914C108.625 86.1739 111.386 91.5597 111.386 99.0716V125.647C111.386 132.733 108.544 138.261 102.859 142.229C97.3378 146.198 89.786 148.182 80.2043 148.182H49.023ZM81.4223 24.0238C77.0374 24.0238 72.6526 25.9372 68.2677 29.764V76.536H80.2043C83.4523 76.536 86.0508 75.7565 87.9996 74.1974C89.9484 72.6383 90.9229 70.5832 90.9229 68.032V32.1026C90.9229 26.7167 87.756 24.0238 81.4223 24.0238ZM68.2677 90.5676V134.151H80.6915C84.102 134.151 86.8628 133.442 88.974 132.025C91.0853 130.466 92.1409 128.34 92.1409 125.647V99.0716C92.1409 96.3787 91.0853 94.3235 88.974 92.9062C86.8628 91.3471 84.102 90.5676 80.6915 90.5676H68.2677Z" fill="black"/>
<path d="M127.732 16.3702C127.732 13.1103 127.001 8.78747 125.539 3.40159C130.411 1.13386 135.608 0 141.13 0C144.378 0 146.002 1.063 146.002 3.189V130.536C146.002 133.513 146.571 135.639 147.707 136.914C149.007 138.19 151.361 138.828 154.772 138.828C154.934 142.513 153.797 145.348 151.361 147.332C149.088 149.316 145.677 150.308 141.13 150.308C136.583 150.308 133.172 149.103 130.899 146.694C128.787 144.285 127.732 140.316 127.732 134.788V16.3702Z" fill="black"/>
<path d="M176.514 24.6616C169.53 24.6616 166.039 20.6222 166.039 12.5434C166.039 4.4646 169.53 0.425195 176.514 0.425195C183.497 0.425195 186.989 4.4646 186.989 12.5434C186.989 20.6222 183.497 24.6616 176.514 24.6616ZM161.41 44.0082H185.771V130.536C185.771 133.513 186.339 135.639 187.476 136.914C188.775 138.19 191.13 138.828 194.54 138.828C194.703 142.513 193.566 145.348 191.13 147.332C188.856 149.316 185.446 150.308 180.898 150.308C176.351 150.308 172.941 149.103 170.667 146.694C168.556 144.285 167.5 140.316 167.5 134.788V56.7642L159.948 57.8272C158.812 54.1421 158.243 50.9531 158.243 48.2602C158.243 45.4255 159.299 44.0082 161.41 44.0082Z" fill="black"/>
<path d="M225.499 130.749C225.499 137.694 226.067 143.505 227.204 148.182C222.332 148.749 217.054 149.033 211.37 149.033C208.609 149.033 207.229 147.97 207.229 145.844V61.654C207.229 58.6776 206.579 56.5516 205.28 55.276C204.143 54.0004 201.869 53.3626 198.459 53.3626C198.296 49.6775 199.352 46.8429 201.626 44.8586C204.062 42.8743 207.878 41.8822 213.075 41.8822C218.272 41.8822 222.007 44.0791 224.281 48.4728C229.64 44.0791 235.405 41.8822 241.577 41.8822C247.91 41.8822 252.945 43.6539 256.68 47.1972C260.578 50.7405 262.527 55.7721 262.527 62.2918V130.536C262.527 133.513 263.095 135.639 264.232 136.914C265.531 138.19 267.886 138.828 271.296 138.828C271.459 142.513 270.322 145.348 267.886 147.332C265.612 149.316 262.202 150.308 257.655 150.308C253.107 150.308 249.697 149.103 247.423 146.694C245.312 144.285 244.256 140.316 244.256 134.788V63.5674C244.256 58.8902 241.496 56.5516 235.974 56.5516C231.427 56.5516 227.935 58.7485 225.499 63.1422V130.749Z" fill="black"/>
<path d="M317.222 57.6146H307.721C304.96 57.6146 302.686 58.3941 300.9 59.9532C299.276 61.3705 298.464 63.2839 298.464 65.6934V128.41C298.464 133.371 300.819 135.851 305.529 135.851C307.965 135.851 310.238 135.072 312.349 133.513C314.623 131.812 316.247 130.04 317.222 128.198V57.6146ZM317.222 16.3702C317.222 12.1182 316.491 7.79533 315.029 3.40159C319.901 1.13386 325.098 0 330.62 0C333.868 0 335.492 1.063 335.492 3.189V130.536C335.492 133.513 336.06 135.639 337.197 136.914C338.496 138.19 340.851 138.828 344.262 138.828C344.424 142.513 343.287 145.348 340.851 147.332C338.578 149.316 335.248 150.308 330.863 150.308C324.367 150.308 320.226 148.111 318.44 143.718C313.405 148.111 307.721 150.308 301.387 150.308C295.054 150.308 289.938 148.466 286.04 144.781C282.143 140.954 280.194 135.568 280.194 128.623V66.5438C280.194 59.4571 282.711 53.9295 287.745 49.961C292.78 45.9925 299.601 44.0082 308.208 44.0082H317.222V16.3702Z" fill="black"/>
<path d="M20.5859 43.5984C25.0547 43.5984 28.8664 45.094 31.4473 48.4539C33.9108 51.6612 34.8916 56.1127 34.8916 61.3006V231.481H48.5244V177.966L47.6846 167.19L47.4629 164.346L50.2861 163.93C55.2388 163.202 60.1283 162.836 64.9531 162.836C66.6051 162.836 68.3932 163.284 69.7256 164.7C71.0249 166.081 71.4043 167.871 71.4043 169.5V286.333C71.4043 288.804 71.854 290.006 72.2197 290.528C72.741 290.894 73.9433 291.345 76.416 291.345H79.4717V294.399C79.4717 299.001 78.1633 302.984 75.0518 305.756C72.0075 308.467 67.7481 309.555 62.8301 309.555C58.3614 309.554 54.5495 308.059 51.9688 304.699C49.5052 301.492 48.5244 297.04 48.5244 291.852V251.602H34.8916V284.339L35.7383 304.247L35.8555 306.999L33.1309 307.399C28.178 308.128 23.2878 308.493 18.4629 308.493C16.811 308.493 15.0237 308.045 13.6914 306.63C12.3917 305.249 12.0117 303.458 12.0117 301.829V66.8201C12.0117 64.109 11.3997 63.1897 11.127 62.9471L10.9922 62.8279L10.873 62.6932C10.6307 62.4206 9.71185 61.8084 7 61.8084H3.94531V58.7527C3.9454 54.1511 5.25267 50.1676 8.36426 47.3963C11.4085 44.685 15.668 43.5985 20.5859 43.5984ZM321.297 161.216C329.806 161.216 336.92 163.157 342.293 167.39H342.292C347.686 171.496 350.463 177.051 350.463 183.802V201.633C350.463 203.739 349.663 205.613 348.146 207.072C346.726 208.437 344.82 209.308 342.727 209.877L342.728 209.878C340.484 210.519 338.221 210.844 335.944 210.844C333.743 210.844 331.547 210.608 329.36 210.139L326.622 209.553L326.969 206.773C327.376 203.516 327.582 200.035 327.582 196.326V186.773C327.582 184.493 326.968 183.321 326.247 182.665C325.47 181.959 324.007 181.337 321.297 181.337C318.861 181.337 317.343 181.965 316.356 182.869L316.303 182.918L316.247 182.964C315.396 183.673 314.8 184.776 314.8 186.773V224.135C314.8 225.976 315.328 227.193 316.193 228.082C317.231 229.011 318.631 229.571 320.66 229.571H323.845C328.868 229.571 332.353 229.215 334.49 228.621L337.412 227.809L338.245 230.725C339.449 234.94 340.061 239.114 340.061 243.24C340.061 244.75 339.739 246.453 338.562 247.799C337.317 249.222 335.61 249.691 334.034 249.691H321.51C319.12 249.691 317.481 250.298 316.315 251.263C315.345 252.171 314.8 253.361 314.8 255.128V283.998C314.8 285.92 315.358 287.149 316.262 288.023C317.429 288.879 319.095 289.434 321.51 289.434C323.96 289.434 325.638 288.863 326.808 287.985C327.843 287.085 328.432 285.872 328.432 283.998V278.786L327.8 268.044L327.646 265.427L330.21 264.877C332.397 264.408 334.593 264.173 336.794 264.173C339.055 264.173 341.303 264.494 343.531 265.127H343.532C345.642 265.695 347.565 266.57 348.994 267.944C350.512 269.403 351.312 271.277 351.312 273.384V286.97C351.312 293.771 348.424 299.391 342.896 303.619L342.849 303.654C337.348 307.698 330.13 309.554 321.51 309.555C312.946 309.555 305.752 307.445 300.25 302.914C294.633 298.288 291.919 291.848 291.919 283.998V254.278C291.919 248.46 293.485 243.489 296.786 239.631C293.486 235.773 291.919 230.802 291.919 224.984V186.773C291.919 178.923 294.633 172.482 300.25 167.856C305.743 163.333 312.86 161.216 321.297 161.216ZM254.45 163.339C261.918 163.339 268.083 165.188 272.361 169.424C276.646 173.665 278.521 179.785 278.521 187.198V239.419C278.521 247.301 275.712 253.748 269.944 258.362L269.943 258.361C264.427 262.888 257.093 264.975 248.294 264.975H242.008V284.339L242.854 304.247L242.972 306.999L240.247 307.399C235.294 308.128 230.404 308.493 225.579 308.493C223.927 308.493 222.14 308.045 220.808 306.63C219.508 305.249 219.128 303.458 219.128 301.829V186.985C219.128 184.068 218.563 182.841 218.201 182.434L218.148 182.375L218.099 182.313C217.833 181.982 216.958 181.337 214.328 181.337H211.389L211.275 178.399C211.109 174.077 212.284 170.275 215.141 167.418C218.086 164.473 222.448 163.339 227.49 163.339C230.357 163.339 232.991 164.065 235.242 165.645C236.468 166.506 237.515 167.576 238.402 168.816C243.483 165.244 248.842 163.339 254.45 163.339ZM250.416 183.46C247.926 183.46 245.133 184.588 242.008 187.444V244.855H248.718C251.163 244.855 252.84 244.287 254.01 243.412C255.049 242.511 255.641 241.297 255.641 239.419V188.471C255.641 186.274 255.081 185.182 254.493 184.609C253.891 184.022 252.724 183.46 250.416 183.46Z" fill="#86BFE8" stroke="black" stroke-width="6.11009"/>
<path d="M207.462 237.969C207.462 270.923 188.246 306.384 155.292 306.384C122.338 306.384 88.1265 270.923 88.1265 237.969C88.1265 205.015 114.841 178.301 147.794 178.301C180.748 178.301 207.462 205.015 207.462 237.969Z" fill="#F0CA9E"/>
<path d="M72.1907 203.536C72.1907 212.228 82.9027 225.995 89.2764 232.492C89.7354 232.96 89.9973 233.583 89.9973 234.238V245.069C89.9973 249.785 84.6335 252.604 79.9193 252.723C72.4552 252.911 67.2729 259.057 64.0755 265.757C62.1513 269.788 56.4067 271.236 53.4468 267.89C34.2031 245.647 58.341 239.983 70.9411 240.399C74.7981 240.696 76.0559 237.992 73.3138 235.264C68.2136 230.189 61.5691 223.042 61.5691 219.156C61.5691 213.845 72.1907 196.976 72.1907 203.536Z" fill="#ED8814" stroke="#D77D57" stroke-width="2.44404"/>
<path d="M201.032 229.118C175.348 232.574 123.559 231.264 94.0979 229.817C91.2717 229.679 88.7075 231.489 88.3706 234.299C87.5338 241.277 88.3951 249.857 89.3201 255.546C89.6552 257.607 91.0813 259.306 93.1135 259.787C113.069 264.511 171.784 261.594 203.887 259.145C206.584 258.94 208.801 256.977 209.282 254.315C210.282 248.787 211.229 241.987 210.324 240.87C209.933 240.388 209.831 239.139 209.901 237.54C210.108 232.817 205.716 228.487 201.032 229.118Z" fill="#ED8814" stroke="#D77D57" stroke-width="2.44404"/>
<path d="M197.466 178.301C194.623 178.301 174.249 176.335 152.671 177.884C147.552 178.251 145.686 184.294 149.702 187.488C168.443 202.392 197.59 221.288 202.464 217.351C207.207 213.52 210.139 209.476 211.758 205.841C213.288 202.407 210.029 199.468 206.312 200.035C204.96 200.241 203.772 200.415 202.726 200.559C198.546 201.134 197.716 197.084 198.587 192.954C199.948 186.498 198.912 178.301 197.466 178.301Z" fill="#F0CA9E"/>
</svg>
