<svg width="227" height="59" viewBox="0 0 227 59" fill="none" xmlns="http://www.w3.org/2000/svg">
<path d="M193.343 33.8431H186.532C183.455 30.4223 187.198 23.6639 182.8 21.1165C182.145 20.7422 180.689 20.3679 179.951 20.3679H174.71L174.482 20.5966V33.8431H167.9V0.477308C172.059 0.664465 176.416 0.227767 180.554 0.477308C185.42 0.758043 190.307 2.86875 191.326 8.10912C192.209 12.6217 190.327 15.8241 186.304 17.7685C187.822 18.4235 189.142 18.9642 190.161 20.3367C192.989 24.1318 190.515 28.8419 192.812 32.793C193.01 33.1257 193.488 33.2609 193.332 33.8535L193.343 33.8431ZM174.482 5.56172V15.2107L174.71 15.4394H179.649C180.096 15.4394 181.469 15.1795 181.937 15.0339C185.805 13.8798 185.857 7.82839 182.477 6.17517C182.165 6.01921 180.814 5.56172 180.554 5.56172H174.492H174.482Z" fill="black"/>
<path d="M143.934 0.0718012C152.418 -0.676824 159.114 4.48037 159.676 13.1208C160.196 21.2517 159.717 30.7758 150.516 33.5832C141.314 36.3905 132.476 30.9422 131.852 21.0437C131.27 11.8211 132.559 1.06997 143.944 0.0614094L143.934 0.0718012ZM144.974 5.15621C137.643 5.83205 138.07 15.325 138.413 20.7526C138.642 24.3293 140.212 28.2076 144.069 29.0082C149.517 30.1416 152.709 26.0553 153.084 21.0437C153.52 15.0859 153.708 4.3452 144.974 5.15621Z" fill="black"/>
<path d="M68.853 33.8431L80.2904 0.466919L86.976 0.570885L98.0286 33.8535H91.1454L88.9099 26.7416L78.2004 26.6584L75.6634 33.8535H68.853V33.8431ZM79.6249 21.4284H87.2567L83.5864 9.60638L79.6249 21.4284Z" fill="black"/>
<path d="M197.825 33.8431L209.262 0.466919L215.948 0.570885L227 33.8535H220.117L217.882 26.7416L207.172 26.6584L204.635 33.8535H197.825V33.8431ZM208.597 21.4284H216.228L212.558 9.60638L208.597 21.4284Z" fill="black"/>
<path d="M110.89 0.477356V28.7587H125.852V33.8432H104.309V0.477356H110.89Z" fill="black"/>
<path d="M70.6412 43.7486L72.9598 55.1235L75.892 43.915L77.6076 43.8942L80.8204 55.1235L83.0663 43.9046H85.1562L81.7522 58.3934H79.9742L76.8485 46.8991L73.5305 58.3934L71.8565 58.4142L68.5513 43.7486H70.6412Z" fill="black"/>
<path d="M161.942 50.5238L161.994 50.9501C162.701 51.5219 164.52 54.4437 165.134 54.6932C165.383 54.7972 165.331 54.5892 165.383 54.506C165.851 53.7262 166.09 52.6137 166.101 51.6987H167.744C167.765 53.2375 167.255 54.8076 166.267 55.9825L167.9 58.2804C167.307 58.1972 166.454 58.4051 165.914 58.2492C165.55 58.1452 165.217 57.3758 164.864 57.407C161.557 59.6944 155.61 58.2596 156.785 53.3727C157.065 52.2186 158.448 51.1996 159.384 50.5758C158.427 49.0889 157.523 47.862 158.074 45.98C159.114 42.4761 165.508 43.2039 164.905 47.4253C164.718 48.725 163.002 49.9103 161.952 50.5238H161.942ZM160.975 45.2938C158.906 45.7721 160.112 49.4632 160.944 49.4528C161.12 49.4528 162.659 48.3819 162.826 48.1739C164.001 46.6975 162.826 44.8571 160.985 45.2834L160.975 45.2938ZM164.011 56.1904L160.341 51.7091C155.974 54.7764 160.05 58.873 164.011 56.1904Z" fill="black"/>
<path d="M175.386 58.118V43.7486L181.001 43.9046C187.011 44.2997 187.676 54.4789 183.455 57.1303C182.956 57.4422 181.375 58.118 180.845 58.118H175.386ZM177.175 56.6208H180.845C181.219 56.6208 182.321 55.9969 182.633 55.7162C184.661 53.959 184.734 48.833 183.153 46.8159C182.581 46.0881 181.334 45.2458 180.387 45.2458H177.175V56.6208Z" fill="black"/>
<path d="M127.641 47.8843L129.44 55.9528L131.997 47.8843L133.484 47.9363L135.949 56.244L137.955 47.9467L139.92 47.8635L136.76 58.469L135.21 58.3443L132.892 50.4109C132.507 50.3693 132.653 50.4109 132.59 50.6293C131.821 53.2287 131.145 55.8488 130.219 58.4066L128.629 58.3547L125.717 48.0923C125.676 47.7907 125.728 47.9051 125.936 47.8739C126.456 47.8011 127.111 47.9155 127.651 47.8739L127.641 47.8843Z" fill="black"/>
<path d="M112.096 43.1627L111.951 58.4263L110.62 58.4056L110.235 57.0747C109.851 57.8337 108.925 58.4056 108.104 58.5407C99.9313 59.8508 102.489 42.882 110.162 48.8502L110.308 43.1627H112.107H112.096ZM107.116 49.1829C104.631 49.6404 104.361 54.9536 105.889 56.482C106.97 57.5634 109.767 57.2098 110.121 55.6294C110.246 55.0783 110.256 51.1481 110.152 50.5762C109.944 49.4741 108.114 49.0061 107.126 49.1829H107.116Z" fill="black"/>
<path d="M118.335 47.3438C125.541 46.2105 125.759 57.4086 120.352 58.1884C112.98 59.2594 113.074 48.1652 118.335 47.3438ZM119.344 48.7371C115.777 48.7371 115.642 55.2771 118.065 56.5144C122.806 58.9475 123.95 48.7371 119.344 48.7371Z" fill="black"/>
<path d="M191.95 47.3438C199.156 46.2105 199.374 57.4086 193.967 58.1885C186.596 59.2594 186.689 48.1652 191.95 47.3438ZM192.969 48.7475C189.403 48.7475 189.268 55.2875 191.69 56.5248C196.432 58.9579 197.575 48.7475 192.969 48.7475Z" fill="black"/>
<path d="M203.47 47.3438C210.675 46.2105 210.894 57.4086 205.487 58.1885C198.115 59.2594 198.209 48.1652 203.47 47.3438ZM204.489 48.7475C200.922 48.7475 200.787 55.2875 203.21 56.5248C207.951 58.9579 209.095 48.7475 204.489 48.7475Z" fill="black"/>
<path d="M100.519 58.3933H98.7205V51.2454C98.7205 51.0791 98.3254 50.1537 98.1903 49.9873C97.3273 48.9891 95.2166 49.2595 94.3016 50.1225C94.1872 50.2368 93.7817 50.7047 93.7817 50.7983V58.3933H91.9829V48.0326H93.6257L93.8545 49.5298C95.0606 47.6686 98.2111 47.1903 99.6979 48.9267C99.9371 49.2075 100.519 50.3408 100.519 50.6527V58.4037V58.3933Z" fill="black"/>
<path d="M149.798 50.584L148.02 50.5632C147.812 47.8078 142.728 48.4109 143.778 50.8439C144.444 52.4036 149.039 51.6861 149.788 54.4103C151.108 59.2036 141.231 59.7131 141.563 54.7742H143.362C143.175 57.4984 148.623 57.592 147.958 54.7326C147.625 53.3186 143.404 53.4121 142.25 51.7693C142.083 51.5302 141.917 51.2286 141.875 50.9479C141.137 46.2794 149.684 45.9259 149.798 50.584Z" fill="black"/>
<path d="M226.708 50.584L224.93 50.5632C224.723 47.8078 219.638 48.4109 220.688 50.8439C221.354 52.4036 225.949 51.6861 226.698 54.4103C228.019 59.2036 218.141 59.7131 218.474 54.7742H220.272C220.085 57.4984 225.534 57.592 224.868 54.7326C224.535 53.3186 220.314 53.4121 219.16 51.7693C218.993 51.5302 218.827 51.2287 218.785 50.9479C218.047 46.2794 226.594 45.9259 226.708 50.584Z" fill="black"/>
<path d="M211.747 47.4509L213.379 47.4717L213.618 48.9482C214.429 47.7317 215.469 47.087 216.987 47.3053L216.665 49.0833C215.656 49.1249 214.855 48.917 214.086 49.7176C214.003 49.8112 213.545 50.4766 213.545 50.5286V58.0876H211.747V47.4613V47.4509Z" fill="black"/>
<path d="M87.1006 47.8768C87.6413 47.9288 88.3067 47.7937 88.8266 47.8768C89.0345 47.908 89.0761 47.7937 89.0553 48.1056L88.8994 58.5048H87.1006V47.8768Z" fill="black"/>
<path d="M89.0449 43.1177H87.1006V44.9165H89.0449V43.1177Z" fill="black"/>
<path d="M58.5802 0V58.5303H0V0H58.5802ZM18.7734 21.0372H2.32126V37.4932H18.7734V21.0372ZM37.5469 21.0372H21.0372V37.4932H37.5469V21.0372ZM56.2628 21.0372H39.8106V37.4932H44.3917V39.8106H39.8106V56.2666H56.2628V21.0372ZM18.7734 39.8106H2.32126V56.2666H18.7734V39.8106ZM37.5469 39.8106H21.0372V56.2666H37.5469V39.8106Z" fill="black"/>
</svg>
