<svg width="199" height="74" viewBox="0 0 199 74" fill="none" xmlns="http://www.w3.org/2000/svg">
<path d="M62.7173 34.7075V34.4335C63.0644 34.3969 63.4115 34.2325 63.7587 33.9402C64.1241 33.6296 64.462 33.246 64.7726 32.7892C65.0832 32.3325 65.3207 31.8849 65.4851 31.4464L72.7199 13.7431H72.9665L80.0917 31.4464C80.8956 33.4378 81.7908 34.4335 82.7773 34.4335H82.8595V34.7075H74.0901V34.4335H74.1997C75.0219 34.4335 75.57 34.1868 75.844 33.6936C76.1363 33.182 76.0998 32.4786 75.7344 31.5834L74.0901 27.5002H67.4857L65.951 31.3094C65.6222 32.095 65.6587 32.8075 66.0606 33.4469C66.4808 34.0681 67.1477 34.3969 68.0612 34.4335V34.7075H62.7173ZM67.6227 27.1439H73.9531L70.829 19.2514L67.6227 27.1439ZM81.4018 40.4624V40.1884H81.4292C82.0869 40.1884 82.6167 39.9874 83.0186 39.5855C83.4205 39.1836 83.6215 38.6538 83.6215 37.996V23.2525C83.6032 22.4486 83.4297 21.8823 83.1008 21.5534C82.772 21.2245 82.2056 21.0601 81.4018 21.0601V20.7861H84.1148C85.1927 20.7861 85.9326 20.6856 86.3346 20.4846C86.7365 20.2837 87.0288 20.037 87.2115 19.7447H87.4855L87.5129 23.2525C87.9331 22.4303 88.5726 21.7452 89.4313 21.1971C90.2899 20.6491 91.1943 20.375 92.1443 20.375C93.1674 20.375 94.0717 20.6856 94.8573 21.3068C95.6429 21.9279 96.255 22.7775 96.6934 23.8554C97.1502 24.915 97.3785 26.1391 97.3785 27.5276C97.3785 29.0622 97.1045 30.3959 96.5564 31.5286C96.0083 32.6613 95.2319 33.5383 94.227 34.1594C93.2405 34.7806 92.0621 35.0912 90.6919 35.0912C89.9428 35.0912 89.3308 34.9724 88.8558 34.7349C88.3807 34.5157 87.9514 34.1412 87.5677 33.6113V37.996C87.5677 38.6538 87.7687 39.1836 88.1706 39.5855C88.5726 39.9874 89.1024 40.1884 89.7601 40.1884H89.7875V40.4624H81.4018ZM90.1164 34.6253C91.1029 34.6253 91.852 34.0133 92.3635 32.7892C92.8568 31.5469 93.1034 29.7656 93.1034 27.4453C93.1034 23.4626 92.2996 21.4712 90.6919 21.4712C90.0707 21.4712 89.4587 21.7178 88.8558 22.2111C88.2529 22.7044 87.8235 23.3073 87.5677 24.0198V30.405C87.5677 31.7204 87.7961 32.7527 88.2529 33.5017C88.7096 34.2508 89.3308 34.6253 90.1164 34.6253ZM106.686 35.0912C105.188 35.0912 103.872 34.7897 102.74 34.1868C101.625 33.5839 100.757 32.7344 100.136 31.6382C99.5151 30.542 99.2046 29.2449 99.2046 27.7468C99.2046 26.2487 99.5151 24.9515 100.136 23.8554C100.757 22.7592 101.625 21.9097 102.74 21.3068C103.872 20.7039 105.188 20.4024 106.686 20.4024C108.184 20.4024 109.49 20.7039 110.605 21.3068C111.719 21.9097 112.587 22.7592 113.208 23.8554C113.829 24.9515 114.14 26.2487 114.14 27.7468C114.14 29.2449 113.829 30.542 113.208 31.6382C112.587 32.7344 111.719 33.5839 110.605 34.1868C109.49 34.7897 108.184 35.0912 106.686 35.0912ZM106.659 34.7349C107.298 34.7349 107.846 34.4152 108.303 33.7758C108.76 33.1363 109.116 32.2868 109.372 31.2272C109.627 30.1493 109.755 28.98 109.755 27.7194C109.755 26.3492 109.618 25.1434 109.344 24.102C109.088 23.0424 108.723 22.2202 108.248 21.6356C107.791 21.0327 107.271 20.7313 106.686 20.7313C106.065 20.7313 105.517 21.051 105.042 21.6904C104.585 22.3299 104.229 23.1794 103.973 24.239C103.717 25.2987 103.589 26.4588 103.589 27.7194C103.589 29.1079 103.726 30.3319 104 31.3916C104.274 32.4512 104.64 33.2734 105.097 33.858C105.572 34.4426 106.092 34.7349 106.659 34.7349ZM114.357 34.7075V34.4335C115.015 34.4335 115.544 34.2416 115.946 33.858C116.367 33.4561 116.577 32.9171 116.577 32.2411V16.6206C116.577 15.9629 116.367 15.4331 115.946 15.0311C115.544 14.6292 115.015 14.4282 114.357 14.4282V14.1542H117.152C118.084 14.1542 118.796 14.0537 119.29 13.8528C119.746 13.6518 120.066 13.4052 120.249 13.1128H120.523V32.2411C120.523 32.9171 120.724 33.4561 121.126 33.858C121.546 34.2416 122.085 34.4335 122.743 34.4335V34.7075H114.357ZM130.29 35.0912C128.792 35.0912 127.477 34.7897 126.344 34.1868C125.229 33.5839 124.362 32.7344 123.741 31.6382C123.119 30.542 122.809 29.2449 122.809 27.7468C122.809 26.2487 123.119 24.9515 123.741 23.8554C124.362 22.7592 125.229 21.9097 126.344 21.3068C127.477 20.7039 128.792 20.4024 130.29 20.4024C131.788 20.4024 133.095 20.7039 134.209 21.3068C135.323 21.9097 136.191 22.7592 136.812 23.8554C137.434 24.9515 137.744 26.2487 137.744 27.7468C137.744 29.2449 137.434 30.542 136.812 31.6382C136.191 32.7344 135.323 33.5839 134.209 34.1868C133.095 34.7897 131.788 35.0912 130.29 35.0912ZM130.263 34.7349C130.902 34.7349 131.45 34.4152 131.907 33.7758C132.364 33.1363 132.72 32.2868 132.976 31.2272C133.232 30.1493 133.359 28.98 133.359 27.7194C133.359 26.3492 133.222 25.1434 132.948 24.102C132.693 23.0424 132.327 22.2202 131.852 21.6356C131.395 21.0327 130.875 20.7313 130.29 20.7313C129.669 20.7313 129.121 21.051 128.646 21.6904C128.189 22.3299 127.833 23.1794 127.577 24.239C127.321 25.2987 127.193 26.4588 127.193 27.7194C127.193 29.1079 127.33 30.3319 127.605 31.3916C127.879 32.4512 128.244 33.2734 128.701 33.858C129.176 34.4426 129.696 34.7349 130.263 34.7349ZM145.137 40.8461C143.201 40.8461 141.629 40.5812 140.424 40.0514C139.236 39.5398 138.642 38.8639 138.642 38.0235C138.642 37.384 138.944 36.8085 139.547 36.297C140.168 35.8037 141.008 35.42 142.068 35.146C140.351 34.7075 139.492 33.9311 139.492 32.8166C139.492 32.2137 139.729 31.6565 140.204 31.1449C140.679 30.6151 141.346 30.1949 142.205 29.8843C141.291 29.4824 140.579 28.8978 140.067 28.1305C139.574 27.3631 139.327 26.4588 139.327 25.4174C139.327 23.901 139.848 22.6861 140.889 21.7726C141.949 20.8592 143.365 20.4024 145.137 20.4024C145.978 20.4024 146.8 20.5303 147.604 20.7861H152.646L152.372 21.2794H148.645C149.376 21.6996 149.933 22.2659 150.317 22.9784C150.719 23.6727 150.919 24.4857 150.919 25.4174C150.919 26.9338 150.399 28.1579 149.357 29.0896C148.334 30.0031 146.928 30.4598 145.137 30.4598C144.151 30.4598 143.283 30.3137 142.534 30.0214C141.949 30.3319 141.657 30.6973 141.657 31.1175C141.657 31.4829 141.913 31.7296 142.424 31.8575C142.68 31.9305 143.045 31.9945 143.52 32.0493C143.995 32.1041 144.571 32.1406 145.247 32.1589L146.206 32.2137C148.307 32.2868 149.924 32.6887 151.057 33.4195C152.207 34.1503 152.783 35.146 152.783 36.4066C152.783 37.8134 152.107 38.9004 150.755 39.6677C149.403 40.4533 147.53 40.8461 145.137 40.8461ZM145.11 30.131C145.676 30.131 146.142 29.7016 146.507 28.843C146.836 27.9843 147.001 26.8425 147.001 25.4174C147.001 23.9741 146.836 22.8323 146.507 21.9919C146.16 21.1697 145.704 20.7587 145.137 20.7587C144.553 20.7587 144.096 21.1697 143.767 21.9919C143.438 22.8323 143.274 23.9741 143.274 25.4174C143.274 26.8607 143.438 28.0117 143.767 28.8704C144.096 29.7108 144.543 30.131 145.11 30.131ZM145.439 40.4899C146.279 40.4899 147.055 40.362 147.768 40.1062C148.48 39.8687 149.047 39.5307 149.467 39.0922C149.906 38.6538 150.125 38.1513 150.125 37.585C150.125 36.9638 149.805 36.4705 149.166 36.1051C148.49 35.758 147.457 35.5753 146.069 35.5571L145.11 35.5022C144.58 35.484 144.087 35.4474 143.63 35.3926C143.191 35.3561 142.799 35.3013 142.452 35.2282C142.068 35.3561 141.785 35.6119 141.602 35.9955C141.419 36.3792 141.328 36.8359 141.328 37.3657C141.328 38.3158 141.684 39.074 142.397 39.6403C143.109 40.2067 144.123 40.4899 145.439 40.4899ZM153.113 34.7075V34.4335H153.14C153.798 34.4335 154.328 34.2325 154.73 33.8306C155.132 33.4286 155.333 32.8988 155.333 32.2411V23.2525C155.333 22.5582 155.187 22.0193 154.894 21.6356C154.62 21.2519 154.026 21.0601 153.113 21.0601V20.7861H155.908C156.84 20.7861 157.552 20.6856 158.046 20.4846C158.502 20.2837 158.822 20.037 159.005 19.7447H159.279V32.2411C159.279 32.8988 159.48 33.4286 159.882 33.8306C160.284 34.2325 160.814 34.4335 161.471 34.4335H161.499V34.7075H153.113ZM157.278 18.0182C156.621 18.0182 156.073 17.8081 155.634 17.3879C155.214 16.9495 155.004 16.4014 155.004 15.7437C155.004 15.086 155.214 14.547 155.634 14.1268C156.073 13.6883 156.621 13.4691 157.278 13.4691C157.918 13.4691 158.448 13.6883 158.868 14.1268C159.306 14.5653 159.526 15.1042 159.526 15.7437C159.526 16.3831 159.306 16.9221 158.868 17.3605C158.448 17.799 157.918 18.0182 157.278 18.0182ZM165.606 35.0912C164.491 35.0912 163.596 34.7897 162.92 34.1868C162.244 33.5839 161.906 32.7892 161.906 31.8027C161.906 31.3824 161.979 30.9897 162.126 30.6243C162.272 30.2406 162.546 29.8661 162.948 29.5007C163.368 29.1353 163.943 28.7608 164.674 28.3771C165.405 27.9752 166.373 27.555 167.579 27.1165L170.128 26.1847V24.1294C170.128 23.088 169.963 22.2659 169.634 21.663C169.305 21.0418 168.849 20.7313 168.264 20.7313C167.57 20.7495 166.976 21.2063 166.483 22.1015C166.008 22.9967 165.688 24.239 165.524 25.8285L162.564 24.1294C162.875 23.3804 163.35 22.7227 163.989 22.1563C164.628 21.5899 165.359 21.1515 166.181 20.8409C167.022 20.5303 167.899 20.375 168.812 20.375C170.365 20.375 171.626 20.8135 172.594 21.6904C173.581 22.5491 174.074 23.7275 174.074 25.2256V31.8301C174.074 32.8897 174.43 33.4195 175.143 33.4195C175.563 33.4195 175.974 33.1911 176.376 32.7344L176.595 32.9262C176.12 33.5657 175.545 34.0864 174.869 34.4883C174.193 34.8902 173.535 35.0912 172.895 35.0912C172.201 35.0912 171.598 34.8537 171.087 34.3787C170.594 33.9037 170.283 33.2734 170.155 32.4878C169.26 33.4012 168.474 34.0681 167.798 34.4883C167.141 34.8902 166.41 35.0912 165.606 35.0912ZM167.661 33.3921C168.063 33.3921 168.447 33.2916 168.812 33.0907C169.196 32.8897 169.625 32.5608 170.1 32.1041L170.128 26.541L169.031 26.9521C168.1 27.2992 167.387 27.6554 166.894 28.0208C166.401 28.368 166.054 28.7608 165.853 29.1992C165.67 29.6377 165.578 30.1401 165.578 30.7065C165.578 31.4921 165.77 32.1406 166.154 32.6522C166.556 33.1455 167.058 33.3921 167.661 33.3921ZM63.375 67.7075V67.4335C64.0327 67.4335 64.5625 67.2325 64.9645 66.8306C65.3664 66.4286 65.5674 65.8988 65.5674 65.2411V49.6206C65.5674 48.9629 65.3664 48.4331 64.9645 48.0311C64.5625 47.6292 64.0327 47.4282 63.375 47.4282V47.1542H72.5281C73.8435 47.1542 74.9853 47.3826 75.9536 47.8393C76.9402 48.2778 77.6984 48.899 78.2282 49.7028C78.7763 50.4884 79.0503 51.411 79.0503 52.4707C79.0503 53.8043 78.6393 54.9462 77.8171 55.8962C76.995 56.8462 75.8806 57.4217 74.4738 57.6227C74.7844 57.714 75.1498 57.9881 75.57 58.4448C76.0084 58.9016 76.4286 59.4679 76.8306 60.1439L80.2835 66.0633C80.5393 66.4835 80.8408 66.8214 81.1879 67.0772C81.5533 67.3147 81.9552 67.4335 82.3937 67.4335V67.7075H76.721C76.4652 67.2873 76.1911 66.8306 75.8988 66.3373C75.6248 65.844 75.369 65.3873 75.1315 64.9671L72.4459 60.0343C72.117 59.4314 71.8338 58.9655 71.5963 58.6367C71.3771 58.2895 71.1487 58.052 70.9112 57.9241C70.692 57.7963 70.4088 57.7323 70.0617 57.7323H69.7876V65.2411C69.7876 65.8988 69.9886 66.4286 70.3905 66.8306C70.7925 67.2325 71.3223 67.4335 71.98 67.4335H72.0348V67.7075H63.375ZM69.7876 57.3761H71.1853C72.3728 57.3761 73.3137 56.9193 74.0079 56.0058C74.7204 55.0924 75.0767 53.9048 75.0767 52.4433C75.0767 50.9634 74.7387 49.7759 74.0627 48.8807C73.3867 47.9672 72.4915 47.5105 71.3771 47.5105H69.7876V57.3761ZM87.6872 68.0364C86.4266 68.0364 85.303 67.7258 84.3165 67.1046C83.3482 66.4835 82.59 65.6248 82.0419 64.5286C81.4938 63.4142 81.2198 62.1444 81.2198 60.7194C81.2198 59.2578 81.5212 57.979 82.1241 56.8828C82.727 55.7866 83.5491 54.9371 84.5905 54.3342C85.6502 53.713 86.8468 53.4024 88.1805 53.4024C89.2949 53.4024 90.2815 53.6216 91.1402 54.0601C92.0171 54.4986 92.7114 55.1198 93.2229 55.9236C93.7527 56.7092 94.0542 57.6227 94.1273 58.6641L94.1547 59.0751H84.9468V59.2121C84.9468 61.1487 85.3761 62.7016 86.2348 63.8709C87.0935 65.0219 88.2444 65.5974 89.6877 65.5974C90.5647 65.5974 91.3959 65.3873 92.1815 64.9671C92.9854 64.5286 93.634 63.944 94.1273 63.2132L94.3739 63.2954C94.0633 64.2272 93.5792 65.0493 92.9215 65.7618C92.2638 66.4743 91.4873 67.0315 90.5921 67.4335C89.6969 67.8354 88.7286 68.0364 87.6872 68.0364ZM84.9742 58.6641H90.5373C90.5373 57.2208 90.2998 56.0515 89.8248 55.1563C89.368 54.2611 88.7195 53.8135 87.879 53.8135C87.0752 53.8135 86.4083 54.2519 85.8785 55.1289C85.3487 56.0058 85.0473 57.1842 84.9742 58.6641ZM94.4994 67.7075V67.4335C95.1571 67.4335 95.6869 67.2325 96.0888 66.8306C96.509 66.4286 96.7191 65.8988 96.7191 65.2411V54.2794H94.3897L94.6638 53.7861H96.7191V53.1558C96.7191 51.7673 96.9475 50.5706 97.4042 49.5658C97.8792 48.5427 98.5461 47.748 99.4047 47.1816C100.263 46.6153 101.277 46.3321 102.447 46.3321C103.251 46.3321 104.009 46.46 104.721 46.7157C105.452 46.9532 106.073 47.2912 106.585 47.7297C107.115 48.1499 107.489 48.6432 107.708 49.2095L104.42 51.073C104.401 50.4153 104.347 49.8216 104.255 49.2917C104.182 48.7619 104.054 48.2961 103.872 47.8941C103.506 47.0903 103.04 46.6883 102.474 46.6883C101.889 46.6883 101.451 47.1359 101.159 48.0311C100.83 48.9264 100.665 50.1504 100.665 51.7033V53.7861H104.365L104.091 54.2794H100.665V65.2411C100.665 65.8988 100.912 66.4286 101.405 66.8306C101.917 67.2325 102.584 67.4335 103.406 67.4335H103.433V67.7075H94.4994ZM111.182 68.0912C109.684 68.0912 108.368 67.7897 107.236 67.1868C106.121 66.5839 105.254 65.7344 104.632 64.6382C104.011 63.542 103.701 62.2449 103.701 60.7468C103.701 59.2487 104.011 57.9515 104.632 56.8554C105.254 55.7592 106.121 54.9097 107.236 54.3068C108.368 53.7039 109.684 53.4024 111.182 53.4024C112.68 53.4024 113.986 53.7039 115.101 54.3068C116.215 54.9097 117.083 55.7592 117.704 56.8554C118.325 57.9515 118.636 59.2487 118.636 60.7468C118.636 62.2449 118.325 63.542 117.704 64.6382C117.083 65.7344 116.215 66.5839 115.101 67.1868C113.986 67.7897 112.68 68.0912 111.182 68.0912ZM111.155 67.7349C111.794 67.7349 112.342 67.4152 112.799 66.7758C113.256 66.1363 113.612 65.2868 113.868 64.2272C114.123 63.1493 114.251 61.98 114.251 60.7194C114.251 59.3492 114.114 58.1434 113.84 57.102C113.584 56.0424 113.219 55.2202 112.744 54.6356C112.287 54.0327 111.767 53.7313 111.182 53.7313C110.561 53.7313 110.013 54.051 109.538 54.6904C109.081 55.3299 108.725 56.1794 108.469 57.239C108.213 58.2987 108.085 59.4588 108.085 60.7194C108.085 62.1079 108.222 63.3319 108.496 64.3916C108.77 65.4512 109.136 66.2734 109.593 66.858C110.068 67.4426 110.588 67.7349 111.155 67.7349ZM119.017 67.7075V67.4335H119.045C119.702 67.4335 120.232 67.2325 120.634 66.8306C121.036 66.4286 121.237 65.8988 121.237 65.2411V56.2525C121.237 55.5582 121.091 55.0193 120.799 54.6356C120.525 54.2519 119.931 54.0601 119.017 54.0601V53.7861H121.73C122.699 53.7861 123.429 53.6947 123.923 53.512C124.416 53.3111 124.763 53.0553 124.964 52.7447H125.101L125.129 57.239C125.366 56.6909 125.667 56.1154 126.033 55.5126C126.417 54.9097 126.892 54.4072 127.458 54.0053C128.043 53.5851 128.737 53.375 129.541 53.375C129.815 53.375 130.107 53.4024 130.418 53.4572C130.728 53.512 131.057 53.6125 131.404 53.7587L130.335 56.965C129.678 56.5996 129.102 56.3438 128.609 56.1977C128.134 56.0515 127.714 55.9784 127.348 55.9784C126.727 55.9784 126.261 56.1703 125.951 56.5539C125.658 56.9376 125.403 57.3943 125.183 57.9241V65.2411C125.183 65.8988 125.384 66.4286 125.786 66.8306C126.188 67.2325 126.718 67.4335 127.376 67.4335H127.403V67.7075H119.017ZM131.435 67.7075V67.4335H131.462C132.12 67.4335 132.65 67.2325 133.052 66.8306C133.454 66.4286 133.655 65.8988 133.655 65.2411V56.2525C133.655 55.5582 133.509 55.0193 133.216 54.6356C132.942 54.2519 132.348 54.0601 131.435 54.0601V53.7861H134.148C134.897 53.7861 135.473 53.7495 135.874 53.6765C136.295 53.6034 136.605 53.512 136.806 53.4024C137.007 53.2745 137.153 53.1466 137.245 53.0188H137.519L137.546 56.5813C138.021 55.6313 138.743 54.864 139.711 54.2794C140.679 53.6947 141.702 53.4024 142.78 53.4024C143.822 53.4024 144.69 53.6947 145.384 54.2794C146.078 54.864 146.526 55.6496 146.727 56.6361C147.238 55.6496 147.969 54.864 148.919 54.2794C149.887 53.6947 150.929 53.4024 152.043 53.4024C153.267 53.4024 154.245 53.8043 154.975 54.6082C155.724 55.4121 156.099 56.4717 156.099 57.7871V65.2411C156.099 65.8988 156.3 66.4286 156.702 66.8306C157.104 67.2325 157.634 67.4335 158.291 67.4335H158.319V67.7075H149.96V67.4335H149.988C150.645 67.4335 151.175 67.2325 151.577 66.8306C151.979 66.4286 152.18 65.8988 152.18 65.2411V57.5131C152.18 56.5996 151.997 55.8688 151.632 55.3207C151.267 54.7726 150.792 54.4986 150.207 54.4986C149.641 54.4986 149.047 54.7544 148.426 55.2659C147.805 55.7592 147.266 56.4078 146.809 57.2116C146.827 57.2482 146.836 57.2938 146.836 57.3486C146.836 57.4035 146.836 57.4491 146.836 57.4857V65.2411C146.836 65.8988 147.037 66.4286 147.439 66.8306C147.841 67.2325 148.371 67.4335 149.029 67.4335H149.056V67.7075H140.698V67.4335H140.725C141.383 67.4335 141.913 67.2325 142.315 66.8306C142.716 66.4286 142.917 65.8988 142.917 65.2411V57.5131C142.917 56.5996 142.735 55.8688 142.369 55.3207C142.022 54.7726 141.556 54.4986 140.972 54.4986C140.405 54.4986 139.812 54.7452 139.19 55.2385C138.588 55.7135 138.058 56.3621 137.601 57.1842V65.2411C137.601 65.8988 137.802 66.4286 138.204 66.8306C138.606 67.2325 139.136 67.4335 139.793 67.4335H139.821V67.7075H131.435ZM162.1 68.0912C160.986 68.0912 160.09 67.7897 159.414 67.1868C158.738 66.5839 158.4 65.7892 158.4 64.8027C158.4 64.3824 158.474 63.9897 158.62 63.6243C158.766 63.2406 159.04 62.8661 159.442 62.5007C159.862 62.1353 160.438 61.7608 161.168 61.3771C161.899 60.9752 162.867 60.555 164.073 60.1165L166.622 59.1847V57.1294C166.622 56.088 166.457 55.2659 166.129 54.663C165.8 54.0418 165.343 53.7313 164.758 53.7313C164.064 53.7495 163.47 54.2063 162.977 55.1015C162.502 55.9967 162.182 57.239 162.018 58.8285L159.058 57.1294C159.369 56.3804 159.844 55.7227 160.483 55.1563C161.123 54.5899 161.853 54.1515 162.676 53.8409C163.516 53.5303 164.393 53.375 165.306 53.375C166.859 53.375 168.12 53.8135 169.088 54.6904C170.075 55.5491 170.568 56.7275 170.568 58.2256V64.8301C170.568 65.8897 170.924 66.4195 171.637 66.4195C172.057 66.4195 172.468 66.1911 172.87 65.7344L173.089 65.9262C172.614 66.5657 172.039 67.0864 171.363 67.4883C170.687 67.8902 170.029 68.0912 169.39 68.0912C168.695 68.0912 168.092 67.8537 167.581 67.3787C167.088 66.9037 166.777 66.2734 166.649 65.4878C165.754 66.4012 164.968 67.0681 164.292 67.4883C163.635 67.8902 162.904 68.0912 162.1 68.0912ZM164.155 66.3921C164.557 66.3921 164.941 66.2916 165.306 66.0907C165.69 65.8897 166.119 65.5608 166.594 65.1041L166.622 59.541L165.526 59.9521C164.594 60.2992 163.881 60.6554 163.388 61.0208C162.895 61.368 162.548 61.7608 162.347 62.1992C162.164 62.6377 162.073 63.1401 162.073 63.7065C162.073 64.4921 162.264 65.1406 162.648 65.6522C163.05 66.1455 163.552 66.3921 164.155 66.3921ZM177.494 68.0912C176.544 68.0912 175.768 67.7897 175.165 67.1868C174.562 66.5839 174.261 65.7983 174.261 64.8301V54.2794H171.931V53.9231C173.192 53.8317 174.315 53.4298 175.302 52.7173C176.307 52.0048 177.129 51.0456 177.768 49.8398H178.207V53.7861H181.852L181.578 54.2794H178.207V64.2272C178.207 65.6887 178.7 66.4195 179.687 66.4195C180.015 66.4195 180.39 66.319 180.81 66.1181C181.249 65.9171 181.66 65.6522 182.043 65.3233V65.5974C181.441 66.3647 180.728 66.9767 179.906 67.4335C179.084 67.8719 178.28 68.0912 177.494 68.0912ZM186.962 68.0912C185.848 68.0912 184.952 67.7897 184.276 67.1868C183.6 66.5839 183.262 65.7892 183.262 64.8027C183.262 64.3824 183.336 63.9897 183.482 63.6243C183.628 63.2406 183.902 62.8661 184.304 62.5007C184.724 62.1353 185.3 61.7608 186.03 61.3771C186.761 60.9752 187.729 60.555 188.935 60.1165L191.484 59.1847V57.1294C191.484 56.088 191.319 55.2659 190.991 54.663C190.662 54.0418 190.205 53.7313 189.62 53.7313C188.926 53.7495 188.332 54.2063 187.839 55.1015C187.364 55.9967 187.044 57.239 186.88 58.8285L183.92 57.1294C184.231 56.3804 184.706 55.7227 185.345 55.1563C185.985 54.5899 186.715 54.1515 187.538 53.8409C188.378 53.5303 189.255 53.375 190.168 53.375C191.721 53.375 192.982 53.8135 193.95 54.6904C194.937 55.5491 195.43 56.7275 195.43 58.2256V64.8301C195.43 65.8897 195.786 66.4195 196.499 66.4195C196.919 66.4195 197.33 66.1911 197.732 65.7344L197.951 65.9262C197.476 66.5657 196.901 67.0864 196.225 67.4883C195.549 67.8902 194.891 68.0912 194.252 68.0912C193.557 68.0912 192.955 67.8537 192.443 67.3787C191.95 66.9037 191.639 66.2734 191.511 65.4878C190.616 66.4012 189.83 67.0681 189.154 67.4883C188.497 67.8902 187.766 68.0912 186.962 68.0912ZM189.017 66.3921C189.419 66.3921 189.803 66.2916 190.168 66.0907C190.552 65.8897 190.981 65.5608 191.456 65.1041L191.484 59.541L190.388 59.9521C189.456 60.2992 188.743 60.6554 188.25 61.0208C187.757 61.368 187.41 61.7608 187.209 62.1992C187.026 62.6377 186.935 63.1401 186.935 63.7065C186.935 64.4921 187.127 65.1406 187.51 65.6522C187.912 66.1455 188.415 66.3921 189.017 66.3921ZM189.703 50.7716C188.552 50.7716 187.702 50.4062 187.154 49.6754C186.624 48.9446 186.35 47.9763 186.332 46.7705H186.606C186.642 47.4465 186.962 48.0129 187.565 48.4696C188.168 48.9081 188.88 49.1273 189.703 49.1273C190.525 49.1273 191.237 48.9081 191.84 48.4696C192.443 48.0129 192.763 47.4465 192.799 46.7705H193.073C193.055 47.9763 192.772 48.9446 192.224 49.6754C191.676 50.4062 190.835 50.7716 189.703 50.7716Z" fill="#0E0604"/>
<path d="M40.144 4.55599C40.1985 4.47179 40.2257 4.38263 40.2257 4.28852C40.2257 4.18945 40.196 4.10277 40.1366 4.02847C40.0771 3.94426 40.0028 3.88978 39.9137 3.86501L27.32 0.0237753C27.2012 -0.0158506 27.0872 -0.00594345 26.9783 0.0534954L22.0226 2.72824L19.2587 3.43408C19.1695 3.45885 19.0952 3.5059 19.0358 3.57525L14.5778 8.6647C14.5135 8.73405 14.4788 8.81577 14.4738 8.90989C14.459 9.004 14.4763 9.09316 14.5258 9.17736C14.5754 9.26157 14.6422 9.32348 14.7264 9.36311L17.3046 10.5296L15.8929 12.61C15.8236 12.709 15.7988 12.8205 15.8186 12.9443C15.8384 13.0582 15.8979 13.1523 15.9969 13.2266C16.096 13.296 16.205 13.3232 16.3239 13.3084L18.6345 12.9517V17.7663L18.4414 25.2333C18.4414 25.3274 18.4686 25.4141 18.5231 25.4933C18.5776 25.5726 18.6519 25.6295 18.746 25.6642L20.7446 26.3478L21.6065 30.1667L21.8591 31.7641L21.8517 34.2308L16.9034 37.6932C16.4081 38.0349 15.9895 38.4361 15.6477 38.8968H15.6403C14.8627 39.9221 14.2187 41.0316 13.7085 42.2254V42.2179C13.5302 42.6291 13.4213 43.0699 13.3816 43.5405L12.713 51.2452L11.4945 52.33C11.1576 52.2557 10.8159 52.1839 10.4691 52.1145H10.4617C8.43088 51.6885 6.22916 51.2601 3.85656 50.8292C3.76245 50.8143 3.67577 50.8242 3.59652 50.8589C3.51231 50.8985 3.44544 50.9579 3.39591 51.0372L1.23382 54.5218C1.00102 54.4723 0.768215 54.4252 0.535413 54.3806C0.421489 54.3608 0.317472 54.3806 0.223361 54.4401C0.124296 54.4945 0.0574262 54.5763 0.0227536 54.6852C-0.0119191 54.7893 -0.00696496 54.8933 0.0376142 54.9973L3.11357 62.0557C3.12843 62.0854 3.14577 62.1151 3.16558 62.1448L6.14496 66.2238C6.19944 66.2981 6.27374 66.3501 6.36785 66.3799L20.0611 70.7858C20.2988 70.865 20.544 70.9443 20.7966 71.0235H20.7892L27.8253 73.3416C27.8748 73.3565 27.9268 73.3639 27.9813 73.3639C28.0209 73.3639 28.0655 73.3565 28.115 73.3416L49.5799 66.3799C49.6691 66.3501 49.7434 66.2981 49.8028 66.2238L52.7822 62.1448C52.797 62.1151 52.8119 62.0854 52.8267 62.0557L55.9027 54.9973C55.9473 54.8933 55.9522 54.7893 55.9176 54.6852C55.8829 54.5763 55.8185 54.4945 55.7244 54.4401C55.6253 54.3806 55.5213 54.3608 55.4123 54.3806C55.1746 54.4252 54.9418 54.4723 54.7139 54.5218L52.5518 51.0372C52.5023 50.9579 52.4379 50.8985 52.3587 50.8589C52.2745 50.8242 52.1878 50.8143 52.0986 50.8292C49.7508 51.2551 47.5738 51.6786 45.5678 52.0997C45.2161 52.169 44.8718 52.2408 44.535 52.3151L43.3165 51.1858L42.7296 44.3577C42.6602 43.5949 42.4968 42.8742 42.2392 42.1957C41.7835 40.9821 41.1668 39.8577 40.3892 38.8225C40.0424 38.3718 39.6239 37.978 39.1335 37.6412L34.1927 34.2234V33.4061L34.4601 31.7493C34.4651 31.7196 34.47 31.6923 34.475 31.6675C34.475 31.6378 34.475 31.6106 34.475 31.5858V30.1221L35.4112 25.954L37.5064 25.4488C37.6154 25.419 37.702 25.3596 37.7664 25.2704C37.8308 25.1813 37.8581 25.0822 37.8482 24.9732C37.4123 19.7872 37.0779 14.8216 36.8451 10.0764L39.7353 9.65287C39.8493 9.63306 39.9434 9.57858 40.0177 9.48942C40.087 9.3953 40.1192 9.29129 40.1143 9.17736C40.1044 9.06344 40.0573 8.96685 39.9731 8.8876L38.2048 7.21588L40.144 4.55599ZM33.9029 22.67L34.2595 21.2063L35.5821 19.5569L34.6087 25.4636C34.6038 25.4834 34.5988 25.5082 34.5939 25.5379L34.3784 26.4889L33.5834 31.4149L28.4791 46.1929C28.4742 46.2028 28.4692 46.2127 28.4642 46.2226V46.2375L28.0407 47.4857L27.5801 46.1409C27.5751 46.131 27.5727 46.1211 27.5727 46.1112L22.7358 31.6155L21.5693 25.954C21.5644 25.9292 21.5594 25.9069 21.5545 25.8871L20.5366 19.5569L21.8591 21.2063L22.2157 22.6626C22.2455 22.7814 22.3123 22.8731 22.4163 22.9375C22.5204 23.0019 22.6318 23.0217 22.7507 22.9969C22.8696 22.9622 22.9612 22.8929 23.0256 22.7889C23.09 22.6848 23.1098 22.5734 23.085 22.4545L22.7061 20.9017C22.6863 20.8373 22.6566 20.7803 22.617 20.7308L20.2988 17.8331L20.9898 13.7913C20.9948 13.7665 20.9972 13.7418 20.9972 13.717V12.5802L35.0991 10.3439L35.3146 13.665C35.3146 13.6749 35.3171 13.6848 35.322 13.6947L35.8347 17.8257L33.5091 20.7308C33.4645 20.7803 33.4348 20.8373 33.42 20.9017L33.041 22.4545C33.0113 22.5684 33.0287 22.6799 33.093 22.7889C33.1525 22.8929 33.2441 22.9597 33.368 22.9895C33.4819 23.0192 33.5933 23.0043 33.7023 22.9449C33.8063 22.8805 33.8732 22.7889 33.9029 22.67ZM20.8858 40.145L21.9408 39.1048L26.7554 46.4827L27.6098 49.0237C27.6395 49.1129 27.694 49.1847 27.7733 49.2392C27.8525 49.2936 27.9392 49.3209 28.0333 49.3209C28.1274 49.3209 28.2141 49.2936 28.2934 49.2392C28.3726 49.1797 28.4271 49.1054 28.4568 49.0163L29.2964 46.557L34.0887 39.038L35.1511 40.0781L36.3548 46.4232L28.2859 55.2202L19.6822 46.4827L20.8858 40.145ZM22.7284 38.6739L22.7433 34.4612L25.6335 43.1244L22.7284 38.6739ZM33.3011 35.063V38.6145L30.5669 42.9015L33.3011 35.063ZM34.1927 37.8938V35.3082L38.6283 38.3767C39.0394 38.659 39.3886 38.986 39.6759 39.3574L39.6833 39.3649C40.4065 40.3258 40.9811 41.3734 41.4071 42.5077C41.6349 43.117 41.7785 43.7609 41.838 44.4395L42.4249 51.2229L40.2703 53.2661C34.9109 54.5391 31.2628 55.7502 29.3261 56.8993V56.8919C28.7317 57.2386 28.281 57.5829 27.9739 57.9247C27.8203 57.7563 27.6346 57.5878 27.4166 57.4194L28.6203 56.1786C28.6252 56.1737 28.6302 56.1712 28.6351 56.1712L37.1646 46.8616C37.2092 46.8071 37.2414 46.7477 37.2612 46.6833C37.281 46.6139 37.2835 46.5446 37.2686 46.4753L35.9981 39.7735C35.9783 39.6794 35.9362 39.6002 35.8718 39.5358L34.1927 37.8938ZM2.16998 54.7075L3.99773 51.7653C6.25145 52.1715 8.34667 52.5776 10.2834 52.9838C10.6896 53.068 11.0883 53.1522 11.4796 53.2364C11.5093 53.2463 11.5415 53.2538 11.5762 53.2587H11.591C13.1464 53.5906 14.5902 53.9175 15.9227 54.2395L15.9598 54.2469C19.2686 55.0543 21.8888 55.8294 23.8206 56.5724C24.945 57.0083 25.8316 57.4343 26.4805 57.8504L26.4953 57.8652C27.0551 58.2268 27.4092 58.5735 27.5578 58.9054C27.5925 58.9896 27.6494 59.059 27.7287 59.1134C27.803 59.163 27.8847 59.1877 27.9739 59.1877C28.063 59.1877 28.1472 59.163 28.2265 59.1134C28.3008 59.059 28.3553 58.9896 28.39 58.9054C28.5683 58.5091 29.0289 58.0956 29.7719 57.6646H29.7793C31.6863 56.5452 35.2873 55.3614 40.5824 54.1132H40.5898C40.5997 54.1082 40.6096 54.1057 40.6195 54.1057C41.8132 53.8184 43.0912 53.5311 44.4533 53.2439C44.483 53.2389 44.5127 53.2315 44.5425 53.2216C44.9387 53.1374 45.3424 53.0532 45.7535 52.9689C47.6605 52.5677 49.7285 52.1665 51.9575 51.7653L53.7852 54.7075C50.8677 55.297 48.2054 55.8889 45.7981 56.4833C44.8917 56.7062 44.0199 56.9315 43.1828 57.1594C41.9792 57.4814 40.8473 57.8083 39.7873 58.1401H39.7948C39.3193 58.2838 38.8561 58.4299 38.4054 58.5785C37.9992 58.7122 37.6104 58.8484 37.2389 58.9871H37.2463C36.4687 59.2546 35.7455 59.532 35.0768 59.8193H35.0694C34.3759 60.0967 33.7419 60.379 33.1673 60.6663C32.7513 60.8644 32.3674 61.0675 32.0157 61.2755H32.0083C31.7458 61.4241 31.5006 61.5703 31.2727 61.7139L27.9739 62.4569L24.675 61.7139C24.5611 61.6446 24.4447 61.5727 24.3258 61.4984C24.3209 61.4984 24.3159 61.496 24.311 61.491C24.1921 61.4217 24.0682 61.3498 23.9395 61.2755C23.5779 61.0675 23.1965 60.8644 22.7953 60.6663H22.7878C22.6491 60.5969 22.5129 60.5326 22.3792 60.4731L22.3866 60.4805C21.7972 60.1982 21.1533 59.9183 20.4549 59.641V59.6484C19.5682 59.2918 18.5974 58.9351 17.5424 58.5785C17.3492 58.5141 17.1535 58.4497 16.9554 58.3853C16.6929 58.3011 16.4229 58.2194 16.1455 58.1401H16.153C15.9648 58.0807 15.7666 58.0213 15.5586 57.9618H15.566C14.4466 57.62 13.2529 57.2832 11.9848 56.9514C9.11195 56.1985 5.84033 55.4505 2.16998 54.7075ZM54.5728 55.4654L54.5876 55.458C54.6025 55.453 54.6173 55.4505 54.6322 55.4505C54.6718 55.4406 54.709 55.4307 54.7437 55.4208L52.0318 61.6545L49.1638 65.5774L28.4197 72.3089V63.2667L31.5402 62.5683C31.5897 62.5535 31.6368 62.5337 31.6814 62.5089C31.9191 62.3553 32.1767 62.2043 32.4541 62.0557C32.4541 62.0507 32.4566 62.0482 32.4615 62.0482C32.7934 61.8501 33.1574 61.6569 33.5537 61.4687H33.5611C34.1208 61.1913 34.7375 60.9164 35.4112 60.644L35.4186 60.6366C36.0724 60.3592 36.7783 60.0892 37.5361 59.8267H37.5435C37.9101 59.693 38.2915 59.5592 38.6877 59.4255C39.1286 59.2769 39.5843 59.1333 40.0548 58.9946C41.1049 58.6677 42.2268 58.3432 43.4206 58.0213C44.2477 57.7934 45.1121 57.568 46.0136 57.3451V57.3526C48.5794 56.7186 51.4324 56.0895 54.5728 55.4654ZM25.8489 16.1986C25.7598 16.2531 25.7053 16.3323 25.6855 16.4363C25.6657 16.5205 25.6756 16.5998 25.7152 16.6741C25.6558 16.7088 25.5914 16.736 25.522 16.7558C25.5072 16.7558 25.4948 16.7583 25.4849 16.7632C25.3759 16.8029 25.2719 16.8301 25.1728 16.845C25.1679 16.84 25.1629 16.84 25.158 16.845C24.9995 16.8648 24.8434 16.8846 24.6899 16.9044C24.576 16.9094 24.4645 16.9118 24.3555 16.9118C24.2466 16.9118 24.1425 16.9094 24.0435 16.9044C23.9197 16.8846 23.7958 16.8697 23.672 16.8598C23.568 16.845 23.464 16.8276 23.3599 16.8078C23.2361 16.7732 23.1123 16.7385 22.9884 16.7038C22.9835 16.7038 22.9785 16.7038 22.9736 16.7038C22.8547 16.6642 22.7383 16.627 22.6244 16.5924C22.6145 16.5874 22.607 16.5849 22.6021 16.5849C22.4783 16.5404 22.3544 16.4933 22.2306 16.4438C22.1365 16.4041 22.0424 16.4041 21.9483 16.4438C21.8492 16.4834 21.7823 16.5503 21.7477 16.6444C21.708 16.7385 21.708 16.8351 21.7477 16.9341C21.7873 17.0282 21.8542 17.0951 21.9483 17.1347C22.087 17.1892 22.2256 17.2412 22.3643 17.2908C22.3693 17.2957 22.3767 17.2982 22.3866 17.2982C22.5154 17.3378 22.6442 17.3774 22.773 17.4171L22.7804 17.4245C22.9092 17.4592 23.038 17.4938 23.1668 17.5285C23.1767 17.5285 23.1841 17.5285 23.1891 17.5285C23.3129 17.5533 23.4392 17.5781 23.568 17.6028C23.5779 17.6028 23.5878 17.6028 23.5977 17.6028C23.7116 17.6127 23.8255 17.6276 23.9395 17.6474C23.9543 17.6474 23.9692 17.6474 23.984 17.6474C24.1029 17.6524 24.2268 17.6548 24.3555 17.6548C24.4744 17.6548 24.5958 17.6524 24.7196 17.6474C24.7295 17.6474 24.7394 17.6474 24.7493 17.6474C24.9227 17.6276 25.096 17.6053 25.2694 17.5805H25.2546C25.3982 17.5607 25.5493 17.526 25.7078 17.4765C25.8861 17.427 26.0421 17.3552 26.1759 17.261C26.5424 17.0084 26.6043 16.6914 26.3616 16.31C26.3071 16.2258 26.2303 16.1713 26.1313 16.1466C26.0273 16.1268 25.9331 16.1441 25.8489 16.1986ZM31.0944 17.5805H31.0796C31.248 17.6053 31.4189 17.6276 31.5922 17.6474C31.6021 17.6474 31.612 17.6474 31.6219 17.6474C31.7458 17.6524 31.8671 17.6548 31.986 17.6548C32.1148 17.6548 32.2386 17.6524 32.3575 17.6474C32.3724 17.6474 32.3872 17.6474 32.4021 17.6474C32.516 17.6276 32.6299 17.6127 32.7438 17.6028C32.7538 17.6028 32.7637 17.6028 32.7736 17.6028C32.9024 17.5781 33.0287 17.5533 33.1525 17.5285C33.1574 17.5285 33.1649 17.5285 33.1748 17.5285C33.3036 17.4938 33.4323 17.4592 33.5611 17.4245C33.5661 17.4196 33.571 17.4171 33.576 17.4171C33.7048 17.3774 33.8336 17.3378 33.9623 17.2982C33.9673 17.2982 33.9747 17.2957 33.9846 17.2908C34.1184 17.2412 34.2546 17.1892 34.3933 17.1347C34.4874 17.0951 34.5543 17.0282 34.5939 16.9341C34.6335 16.8351 34.636 16.7385 34.6013 16.6444C34.5617 16.5503 34.4948 16.4834 34.4007 16.4438C34.3016 16.4041 34.2051 16.4041 34.1109 16.4438C33.9871 16.4933 33.8658 16.5404 33.7469 16.5849C33.737 16.5849 33.7295 16.5874 33.7246 16.5924C33.6057 16.627 33.4868 16.6642 33.368 16.7038H33.3605C33.2317 16.7385 33.1054 16.7732 32.9816 16.8078C32.8776 16.8276 32.7736 16.845 32.6695 16.8598C32.5457 16.8697 32.4219 16.8846 32.2981 16.9044C32.199 16.9094 32.095 16.9118 31.986 16.9118C31.877 16.9118 31.7656 16.9094 31.6517 16.9044C31.4981 16.8846 31.3446 16.8648 31.191 16.845C31.1811 16.84 31.1761 16.84 31.1761 16.845C31.0721 16.8301 30.9656 16.8029 30.8567 16.7632C30.8468 16.7583 30.8368 16.7558 30.8269 16.7558C30.7526 16.736 30.6858 16.7088 30.6263 16.6741C30.666 16.5998 30.6759 16.5205 30.6561 16.4363C30.6362 16.3323 30.5818 16.2531 30.4926 16.1986C30.4084 16.1441 30.3168 16.1268 30.2177 16.1466C30.1137 16.1713 30.0344 16.2258 29.9799 16.31C29.7372 16.6914 29.8016 17.0084 30.1731 17.261C30.3019 17.3552 30.4555 17.427 30.6338 17.4765C30.7923 17.526 30.9458 17.5607 31.0944 17.5805ZM28.8209 25.5528C28.8803 25.6617 28.9695 25.7336 29.0884 25.7682L32.3055 26.7118C32.7959 27.1031 33.1376 27.4722 33.3308 27.8189C33.4051 27.908 33.4769 27.908 33.5463 27.8189C33.6391 27.5605 33.6911 27.3004 33.7023 27.0387V26.8604L33.5983 26.7193C33.5078 26.6106 33.384 26.4793 33.2268 26.3255C33.093 26.1967 32.9469 26.0729 32.7884 25.954C32.7488 25.9193 32.7017 25.897 32.6473 25.8871L29.341 24.9138C29.2221 24.8791 29.1082 24.8915 28.9992 24.951C28.8902 25.0054 28.8184 25.0921 28.7837 25.211C28.754 25.3299 28.7664 25.4438 28.8209 25.5528ZM26.8965 23.9776C26.9719 24.0523 27.0611 24.0894 27.164 24.0891H28.91C29.013 24.0894 29.0997 24.0523 29.1701 23.9776C29.2447 23.9072 29.2819 23.8205 29.2815 23.7176C29.2819 23.6146 29.2447 23.5255 29.1701 23.4501C29.0997 23.3804 29.013 23.3457 28.91 23.3461H27.164C27.0611 23.3457 26.9719 23.3804 26.8965 23.4501C26.8268 23.5255 26.7922 23.6146 26.7925 23.7176C26.7922 23.8205 26.8268 23.9072 26.8965 23.9776ZM23.3599 25.8648C23.3055 25.8747 23.2584 25.897 23.2188 25.9317C23.0614 26.0494 22.9153 26.1732 22.7804 26.3032C22.5465 26.5297 22.388 26.7081 22.3049 26.8381C22.2946 27.1576 22.3466 27.4771 22.4609 27.7966C22.5315 27.885 22.6009 27.885 22.669 27.7966C22.8691 27.4492 23.2134 27.0802 23.7017 26.6895L26.9188 25.7459C27.0377 25.7113 27.1269 25.6395 27.1863 25.5305C27.2408 25.4215 27.2532 25.3076 27.2235 25.1887C27.1888 25.0698 27.117 24.9832 27.008 24.9287C26.899 24.8692 26.7851 24.8568 26.6662 24.8915L23.3599 25.8648ZM26.2279 13.9845C26.3295 13.9906 26.4186 13.9584 26.4953 13.8879C26.5728 13.8218 26.6149 13.7376 26.6216 13.6353C26.6279 13.5335 26.5957 13.4443 26.5251 13.3678C26.4591 13.2904 26.3749 13.2483 26.2724 13.2415L22.1117 13.0037C22.0101 12.9976 21.921 13.0273 21.8442 13.0929C21.7668 13.164 21.7247 13.2506 21.7179 13.3529C21.7117 13.4547 21.7414 13.5439 21.8071 13.6204C21.878 13.6978 21.9647 13.7399 22.0671 13.7467L26.2279 13.9845ZM34.6236 12.6991C34.6227 12.5965 34.5855 12.5074 34.5121 12.4316C33.6613 11.5368 32.4057 11.5814 30.7452 12.5654C30.5633 12.6791 30.3726 12.8004 30.1731 12.9294C30.09 12.9884 30.038 13.0676 30.0171 13.1672C29.997 13.2674 30.0144 13.359 30.0691 13.4421C30.128 13.5304 30.2072 13.5849 30.3069 13.6056C30.4068 13.6255 30.4984 13.6057 30.5818 13.5461C30.7735 13.4225 30.9568 13.3061 31.1316 13.1969L31.1241 13.2043C32.3919 12.4542 33.3479 12.3725 33.9921 12.9592C34.0641 13.0337 34.1508 13.0709 34.2521 13.0706C34.3549 13.0697 34.4416 13.0326 34.5121 12.9592C34.5869 12.8872 34.6241 12.8005 34.6236 12.6991Z" fill="#0E0604"/>
</svg>
