<svg width="240" height="84" viewBox="0 0 240 84" fill="none" xmlns="http://www.w3.org/2000/svg">
<path d="M67.1639 34V33.6516C67.6052 33.6052 68.0465 33.3961 68.4877 33.0245C68.9523 32.6297 69.382 32.1419 69.7768 31.5613C70.1716 30.9806 70.4736 30.4116 70.6826 29.8541L79.8801 7.34806H80.1937L89.2519 29.8541C90.2738 32.3858 91.4119 33.6516 92.6661 33.6516H92.7706V34H81.6221V33.6516H81.7615C82.8066 33.6516 83.5034 33.3381 83.8518 32.711C84.2234 32.0606 84.177 31.1664 83.7125 30.0283L81.6221 24.8373H73.2259L71.2749 29.6799C70.8568 30.6787 70.9033 31.5845 71.4142 32.3974C71.9484 33.1871 72.7962 33.6052 73.9575 33.6516V34H67.1639ZM73.4001 24.3844H81.4479L77.4762 14.3507L73.4001 24.3844ZM90.9173 41.3162V40.9678H90.9522C91.7883 40.9678 92.4619 40.7123 92.9729 40.2014C93.4838 39.6904 93.7393 39.0168 93.7393 38.1807V19.4372C93.7161 18.4153 93.4954 17.6953 93.0774 17.2772C92.6593 16.8591 91.9393 16.6501 90.9173 16.6501V16.3017H94.3664C95.7368 16.3017 96.6774 16.174 97.1884 15.9185C97.6994 15.663 98.071 15.3494 98.3032 14.9778H98.6516L98.6865 19.4372C99.2207 18.3921 100.034 17.5211 101.125 16.8243C102.217 16.1275 103.367 15.7791 104.574 15.7791C105.875 15.7791 107.025 16.174 108.023 16.9637C109.022 17.7533 109.8 18.8334 110.358 20.2037C110.938 21.5508 111.229 23.107 111.229 24.8721C111.229 26.8231 110.88 28.5186 110.183 29.9587C109.487 31.3987 108.499 32.5135 107.222 33.3032C105.968 34.0929 104.47 34.4877 102.728 34.4877C101.776 34.4877 100.997 34.3368 100.394 34.0348C99.7897 33.7561 99.2439 33.28 98.7562 32.6064V38.1807C98.7562 39.0168 99.0116 39.6904 99.5226 40.2014C100.034 40.7123 100.707 40.9678 101.543 40.9678H101.578V41.3162H90.9173ZM101.996 33.8955C103.25 33.8955 104.203 33.1174 104.853 31.5613C105.48 29.9819 105.794 27.7173 105.794 24.7676C105.794 19.7043 104.772 17.1727 102.728 17.1727C101.938 17.1727 101.16 17.4862 100.394 18.1134C99.6271 18.7405 99.0813 19.5069 98.7562 20.4127V28.5303C98.7562 30.2025 99.0465 31.5148 99.6271 32.4671C100.208 33.4193 100.997 33.8955 101.996 33.8955ZM123.061 34.4877C121.157 34.4877 119.484 34.1045 118.044 33.3381C116.627 32.5716 115.524 31.4916 114.735 30.098C113.945 28.7045 113.55 27.0554 113.55 25.1509C113.55 23.2463 113.945 21.5973 114.735 20.2037C115.524 18.8101 116.627 17.7301 118.044 16.9637C119.484 16.1972 121.157 15.814 123.061 15.814C124.966 15.814 126.626 16.1972 128.043 16.9637C129.46 17.7301 130.563 18.8101 131.353 20.2037C132.142 21.5973 132.537 23.2463 132.537 25.1509C132.537 27.0554 132.142 28.7045 131.353 30.098C130.563 31.4916 129.46 32.5716 128.043 33.3381C126.626 34.1045 124.966 34.4877 123.061 34.4877ZM123.026 34.0348C123.839 34.0348 124.536 33.6284 125.117 32.8155C125.697 32.0026 126.15 30.9225 126.475 29.5754C126.8 28.2051 126.963 26.7186 126.963 25.116C126.963 23.3741 126.789 21.8411 126.44 20.5173C126.115 19.1701 125.651 18.125 125.047 17.3817C124.466 16.6153 123.804 16.232 123.061 16.232C122.271 16.232 121.575 16.6385 120.971 17.4514C120.39 18.2643 119.937 19.3443 119.612 20.6914C119.287 22.0386 119.124 23.5134 119.124 25.116C119.124 26.8812 119.298 28.4374 119.647 29.7845C119.995 31.1316 120.46 32.1768 121.04 32.92C121.644 33.6632 122.306 34.0348 123.026 34.0348ZM132.813 34V33.6516C133.649 33.6516 134.323 33.4077 134.834 32.92C135.368 32.409 135.635 31.7238 135.635 30.8645V11.0062C135.635 10.17 135.368 9.49647 134.834 8.9855C134.323 8.47453 133.649 8.21904 132.813 8.21904V7.87065H136.367C137.551 7.87065 138.457 7.7429 139.084 7.48742C139.665 7.23193 140.071 6.91838 140.303 6.54676H140.652V30.8645C140.652 31.7238 140.907 32.409 141.418 32.92C141.953 33.4077 142.638 33.6516 143.474 33.6516V34H132.813ZM153.069 34.4877C151.164 34.4877 149.492 34.1045 148.052 33.3381C146.635 32.5716 145.532 31.4916 144.742 30.098C143.953 28.7045 143.558 27.0554 143.558 25.1509C143.558 23.2463 143.953 21.5973 144.742 20.2037C145.532 18.8101 146.635 17.7301 148.052 16.9637C149.492 16.1972 151.164 15.814 153.069 15.814C154.974 15.814 156.634 16.1972 158.051 16.9637C159.468 17.7301 160.571 18.8101 161.361 20.2037C162.15 21.5973 162.545 23.2463 162.545 25.1509C162.545 27.0554 162.15 28.7045 161.361 30.098C160.571 31.4916 159.468 32.5716 158.051 33.3381C156.634 34.1045 154.974 34.4877 153.069 34.4877ZM153.034 34.0348C153.847 34.0348 154.544 33.6284 155.125 32.8155C155.705 32.0026 156.158 30.9225 156.483 29.5754C156.808 28.2051 156.971 26.7186 156.971 25.116C156.971 23.3741 156.797 21.8411 156.448 20.5173C156.123 19.1701 155.659 18.125 155.055 17.3817C154.474 16.6153 153.812 16.232 153.069 16.232C152.279 16.232 151.583 16.6385 150.979 17.4514C150.398 18.2643 149.945 19.3443 149.62 20.6914C149.295 22.0386 149.132 23.5134 149.132 25.116C149.132 26.8812 149.306 28.4374 149.655 29.7845C150.003 31.1316 150.468 32.1768 151.048 32.92C151.652 33.6632 152.314 34.0348 153.034 34.0348ZM171.944 41.804C169.482 41.804 167.485 41.4672 165.952 40.7936C164.442 40.1433 163.687 39.2839 163.687 38.2155C163.687 37.4026 164.07 36.671 164.837 36.0207C165.626 35.3936 166.695 34.9058 168.042 34.5574C165.859 34 164.767 33.0129 164.767 31.5961C164.767 30.8296 165.069 30.1212 165.673 29.4709C166.277 28.7974 167.125 28.2632 168.216 27.8683C167.055 27.3573 166.149 26.6141 165.499 25.6386C164.872 24.6631 164.558 23.5134 164.558 22.1895C164.558 20.2618 165.22 18.7172 166.544 17.5559C167.891 16.3946 169.691 15.814 171.944 15.814C173.012 15.814 174.057 15.9766 175.079 16.3017H181.49L181.141 16.9288H176.403C177.332 17.463 178.041 18.183 178.529 19.0888C179.039 19.9714 179.295 21.005 179.295 22.1895C179.295 24.1173 178.633 25.6734 177.309 26.858C176.008 28.0193 174.22 28.5999 171.944 28.5999C170.69 28.5999 169.586 28.4141 168.634 28.0425C167.891 28.4374 167.519 28.9019 167.519 29.4361C167.519 29.9006 167.845 30.2141 168.495 30.3767C168.82 30.4696 169.285 30.5509 169.888 30.6206C170.492 30.6903 171.224 30.7367 172.083 30.76L173.303 30.8296C175.974 30.9225 178.029 31.4335 179.469 32.3626C180.932 33.2916 181.664 34.5574 181.664 36.16C181.664 37.9484 180.805 39.3304 179.086 40.3059C177.367 41.3046 174.987 41.804 171.944 41.804ZM171.909 28.1819C172.629 28.1819 173.221 27.6361 173.686 26.5444C174.104 25.4528 174.313 24.0012 174.313 22.1895C174.313 20.3547 174.104 18.903 173.686 17.8346C173.245 16.7895 172.664 16.2669 171.944 16.2669C171.201 16.2669 170.62 16.7895 170.202 17.8346C169.784 18.903 169.575 20.3547 169.575 22.1895C169.575 24.0244 169.784 25.4876 170.202 26.5793C170.62 27.6477 171.189 28.1819 171.909 28.1819ZM172.327 41.3511C173.396 41.3511 174.383 41.1885 175.288 40.8633C176.194 40.5614 176.914 40.1317 177.449 39.5743C178.006 39.0168 178.285 38.3781 178.285 37.6581C178.285 36.8684 177.878 36.2413 177.065 35.7768C176.206 35.3355 174.894 35.1032 173.128 35.08L171.909 35.0103C171.236 34.9871 170.608 34.9407 170.028 34.871C169.47 34.8245 168.971 34.7548 168.53 34.6619C168.042 34.8245 167.682 35.1497 167.45 35.6374C167.217 36.1252 167.101 36.7058 167.101 37.3794C167.101 38.5872 167.554 39.551 168.46 40.271C169.366 40.9911 170.655 41.3511 172.327 41.3511ZM182.083 34V33.6516H182.118C182.954 33.6516 183.628 33.3961 184.139 32.8851C184.65 32.3742 184.905 31.7006 184.905 30.8645V19.4372C184.905 18.5546 184.72 17.8695 184.348 17.3817C184 16.894 183.245 16.6501 182.083 16.6501V16.3017H185.637C186.822 16.3017 187.727 16.174 188.355 15.9185C188.935 15.663 189.342 15.3494 189.574 14.9778H189.922V30.8645C189.922 31.7006 190.178 32.3742 190.689 32.8851C191.2 33.3961 191.873 33.6516 192.709 33.6516H192.744V34H182.083ZM187.379 12.783C186.543 12.783 185.846 12.5159 185.289 11.9817C184.754 11.4242 184.487 10.7275 184.487 9.89132C184.487 9.05518 184.754 8.37001 185.289 7.83581C185.846 7.27838 186.543 6.99967 187.379 6.99967C188.192 6.99967 188.865 7.27838 189.4 7.83581C189.957 8.39323 190.236 9.0784 190.236 9.89132C190.236 10.7042 189.957 11.3894 189.4 11.9468C188.865 12.5043 188.192 12.783 187.379 12.783ZM197.966 34.4877C196.549 34.4877 195.411 34.1045 194.552 33.3381C193.692 32.5716 193.262 31.5613 193.262 30.3071C193.262 29.7729 193.355 29.2735 193.541 28.809C193.727 28.3212 194.075 27.8451 194.586 27.3806C195.121 26.916 195.852 26.4399 196.781 25.9522C197.71 25.4412 198.941 24.907 200.474 24.3496L203.714 23.165V20.5521C203.714 19.2282 203.505 18.183 203.087 17.4166C202.669 16.6269 202.088 16.232 201.345 16.232C200.463 16.2553 199.708 16.8359 199.081 17.974C198.477 19.1121 198.07 20.6915 197.861 22.7121L194.099 20.5521C194.493 19.5998 195.097 18.7637 195.91 18.0437C196.723 17.3237 197.652 16.7662 198.697 16.3714C199.766 15.9766 200.881 15.7791 202.042 15.7791C204.016 15.7791 205.619 16.3366 206.85 17.4514C208.104 18.543 208.731 20.0411 208.731 21.9457V30.3419C208.731 31.689 209.184 32.3626 210.09 32.3626C210.624 32.3626 211.147 32.0722 211.658 31.4916L211.936 31.7355C211.332 32.5484 210.601 33.2103 209.741 33.7213C208.882 34.2323 208.046 34.4877 207.233 34.4877C206.35 34.4877 205.584 34.1858 204.934 33.5819C204.306 32.9781 203.912 32.1768 203.749 31.178C202.611 32.3393 201.612 33.1871 200.753 33.7213C199.917 34.2323 198.988 34.4877 197.966 34.4877ZM200.579 32.3277C201.09 32.3277 201.577 32.2 202.042 31.9445C202.53 31.689 203.075 31.2709 203.679 30.6903L203.714 23.6179L202.321 24.1405C201.136 24.5818 200.23 25.0347 199.603 25.4993C198.976 25.9405 198.535 26.4399 198.279 26.9973C198.047 27.5548 197.931 28.1935 197.931 28.9135C197.931 29.9122 198.175 30.7367 198.663 31.3871C199.174 32.0142 199.812 32.3277 200.579 32.3277ZM68 76V75.6516C68.8361 75.6516 69.5097 75.3961 70.0207 74.8851C70.5316 74.3742 70.7871 73.7006 70.7871 72.8645V53.0062C70.7871 52.17 70.5316 51.4965 70.0207 50.9855C69.5097 50.4745 68.8361 50.219 68 50.219V49.8706H79.6363C81.3085 49.8706 82.7602 50.161 83.9912 50.7416C85.2454 51.2991 86.2093 52.0887 86.8828 53.1107C87.5796 54.1094 87.928 55.2823 87.928 56.6294C87.928 58.3249 87.4054 59.7766 86.3602 60.9843C85.3151 62.1921 83.8983 62.9237 82.1099 63.1792C82.5047 63.2953 82.9692 63.6437 83.5034 64.2244C84.0608 64.805 84.595 65.525 85.106 66.3844L89.4957 73.9097C89.8209 74.4439 90.2041 74.8735 90.6454 75.1987C91.11 75.5006 91.6209 75.6516 92.1784 75.6516V76H84.9667C84.6415 75.4658 84.2931 74.8851 83.9215 74.258C83.5731 73.6309 83.2479 73.0503 82.946 72.5161L79.5318 66.245C79.1137 65.4786 78.7537 64.8863 78.4517 64.4682C78.173 64.0269 77.8827 63.725 77.5808 63.5624C77.302 63.3998 76.942 63.3186 76.5007 63.3186H76.1524V72.8645C76.1524 73.7006 76.4078 74.3742 76.9188 74.8851C77.4298 75.3961 78.1033 75.6516 78.9395 75.6516H79.0092V76H68ZM76.1524 62.8656H77.9292C79.4388 62.8656 80.635 62.285 81.5176 61.1237C82.4234 59.9624 82.8763 58.4527 82.8763 56.5946C82.8763 54.7133 82.4466 53.2036 81.5873 52.0655C80.7279 50.9042 79.5898 50.3236 78.173 50.3236H76.1524V62.8656ZM98.908 76.4181C97.3054 76.4181 95.877 76.0232 94.6228 75.2335C93.3918 74.4439 92.4279 73.3522 91.7312 71.9587C91.0344 70.5419 90.686 68.9277 90.686 67.116C90.686 65.2579 91.0692 63.6321 91.8357 62.2385C92.6021 60.845 93.6473 59.765 94.9712 58.9985C96.3183 58.2088 97.8396 57.814 99.5351 57.814C100.952 57.814 102.206 58.0927 103.298 58.6501C104.413 59.2075 105.295 59.9972 105.946 61.0192C106.619 62.0179 107.002 63.1792 107.095 64.5031L107.13 65.0257H95.4241V65.1999C95.4241 67.6618 95.9699 69.6361 97.0616 71.1225C98.1532 72.5858 99.6164 73.3174 101.451 73.3174C102.566 73.3174 103.623 73.0503 104.622 72.5161C105.644 71.9587 106.468 71.2154 107.095 70.2864L107.409 70.3909C107.014 71.5754 106.398 72.6206 105.562 73.5264C104.726 74.4322 103.739 75.1406 102.601 75.6516C101.463 76.1626 100.232 76.4181 98.908 76.4181ZM95.459 64.5031H102.531C102.531 62.6682 102.229 61.1818 101.625 60.0437C101.045 58.9056 100.22 58.3366 99.1519 58.3366C98.13 58.3366 97.2822 58.894 96.6086 60.0088C95.9351 61.1237 95.5519 62.6218 95.459 64.5031ZM107.568 76V75.6516C108.404 75.6516 109.078 75.3961 109.589 74.8851C110.123 74.3742 110.39 73.7006 110.39 72.8645V58.9288H107.429L107.777 58.3017H110.39V57.5004C110.39 55.7352 110.681 54.2139 111.261 52.9365C111.865 51.6358 112.713 50.6255 113.804 49.9055C114.896 49.1855 116.185 48.8255 117.672 48.8255C118.694 48.8255 119.657 48.9881 120.563 49.3132C121.492 49.6152 122.282 50.0448 122.932 50.6023C123.606 51.1365 124.082 51.7636 124.361 52.4836L120.18 54.8526C120.157 54.0165 120.087 53.2617 119.971 52.5881C119.878 51.9145 119.716 51.3223 119.483 50.8113C119.019 49.7894 118.426 49.2784 117.706 49.2784C116.963 49.2784 116.406 49.8474 116.034 50.9855C115.616 52.1236 115.407 53.6797 115.407 55.6539V58.3017H120.11L119.762 58.9288H115.407V72.8645C115.407 73.7006 115.721 74.3742 116.348 74.8851C116.998 75.3961 117.846 75.6516 118.891 75.6516H118.926V76H107.568ZM128.777 76.4877C126.872 76.4877 125.2 76.1045 123.76 75.3381C122.343 74.5716 121.24 73.4916 120.45 72.098C119.661 70.7045 119.266 69.0554 119.266 67.1509C119.266 65.2463 119.661 63.5973 120.45 62.2037C121.24 60.8101 122.343 59.7301 123.76 58.9637C125.2 58.1972 126.872 57.814 128.777 57.814C130.681 57.814 132.342 58.1972 133.759 58.9637C135.176 59.7301 136.279 60.8101 137.069 62.2037C137.858 63.5973 138.253 65.2463 138.253 67.1509C138.253 69.0554 137.858 70.7045 137.069 72.098C136.279 73.4916 135.176 74.5716 133.759 75.3381C132.342 76.1045 130.681 76.4877 128.777 76.4877ZM128.742 76.0348C129.555 76.0348 130.252 75.6284 130.832 74.8155C131.413 74.0026 131.866 72.9225 132.191 71.5754C132.516 70.2051 132.679 68.7186 132.679 67.116C132.679 65.3741 132.505 63.8411 132.156 62.5173C131.831 61.1701 131.367 60.125 130.763 59.3817C130.182 58.6153 129.52 58.232 128.777 58.232C127.987 58.232 127.29 58.6385 126.687 59.4514C126.106 60.2643 125.653 61.3443 125.328 62.6914C125.003 64.0386 124.84 65.5134 124.84 67.116C124.84 68.8812 125.014 70.4374 125.363 71.7845C125.711 73.1316 126.176 74.1768 126.756 74.92C127.36 75.6632 128.022 76.0348 128.742 76.0348ZM138.738 76V75.6516H138.773C139.609 75.6516 140.282 75.3961 140.793 74.8851C141.304 74.3742 141.56 73.7006 141.56 72.8645V61.4372C141.56 60.5546 141.374 59.8695 141.002 59.3817C140.654 58.894 139.899 58.6501 138.738 58.6501V58.3017H142.187C143.418 58.3017 144.347 58.1856 144.974 57.9533C145.601 57.6978 146.042 57.3727 146.298 56.9778H146.472L146.507 62.6914C146.809 61.9947 147.192 61.263 147.657 60.4966C148.144 59.7301 148.748 59.0914 149.468 58.5804C150.212 58.0462 151.094 57.7791 152.116 57.7791C152.464 57.7791 152.836 57.814 153.231 57.8836C153.626 57.9533 154.044 58.0811 154.485 58.2669L153.126 62.3431C152.29 61.8785 151.559 61.5534 150.932 61.3676C150.328 61.1818 149.793 61.0888 149.329 61.0888C148.539 61.0888 147.947 61.3327 147.552 61.8205C147.181 62.3082 146.855 62.8889 146.577 63.5624V72.8645C146.577 73.7006 146.832 74.3742 147.343 74.8851C147.854 75.3961 148.528 75.6516 149.364 75.6516H149.399V76H138.738ZM154.524 76V75.6516H154.559C155.395 75.6516 156.069 75.3961 156.58 74.8851C157.091 74.3742 157.346 73.7006 157.346 72.8645V61.4372C157.346 60.5546 157.161 59.8695 156.789 59.3817C156.441 58.894 155.686 58.6501 154.524 58.6501V58.3017H157.973C158.926 58.3017 159.657 58.2553 160.168 58.1624C160.702 58.0695 161.097 57.9533 161.353 57.814C161.608 57.6514 161.794 57.4888 161.91 57.3262H162.259L162.293 61.8553C162.897 60.6476 163.815 59.6721 165.046 58.9288C166.277 58.1856 167.577 57.814 168.948 57.814C170.272 57.814 171.375 58.1856 172.257 58.9288C173.14 59.6721 173.709 60.6708 173.965 61.925C174.615 60.6708 175.544 59.6721 176.752 58.9288C177.983 58.1856 179.307 57.814 180.723 57.814C182.28 57.814 183.522 58.3249 184.451 59.3469C185.403 60.3688 185.88 61.716 185.88 63.3882V72.8645C185.88 73.7006 186.135 74.3742 186.646 74.8851C187.157 75.3961 187.831 75.6516 188.667 75.6516H188.702V76H178.076V75.6516H178.11C178.947 75.6516 179.62 75.3961 180.131 74.8851C180.642 74.3742 180.898 73.7006 180.898 72.8645V63.0398C180.898 61.8785 180.665 60.9495 180.201 60.2527C179.736 59.5559 179.132 59.2075 178.389 59.2075C177.669 59.2075 176.914 59.5327 176.125 60.183C175.335 60.8101 174.65 61.6347 174.069 62.6566C174.092 62.7031 174.104 62.7611 174.104 62.8308C174.104 62.9005 174.104 62.9585 174.104 63.005V72.8645C174.104 73.7006 174.359 74.3742 174.87 74.8851C175.381 75.3961 176.055 75.6516 176.891 75.6516H176.926V76H166.3V75.6516H166.335C167.171 75.6516 167.845 75.3961 168.355 74.8851C168.866 74.3742 169.122 73.7006 169.122 72.8645V63.0398C169.122 61.8785 168.89 60.9495 168.425 60.2527C167.984 59.5559 167.392 59.2075 166.648 59.2075C165.928 59.2075 165.174 59.5211 164.384 60.1482C163.617 60.7521 162.944 61.5766 162.363 62.6218V72.8645C162.363 73.7006 162.619 74.3742 163.13 74.8851C163.641 75.3961 164.314 75.6516 165.15 75.6516H165.185V76H154.524ZM193.509 76.4877C192.092 76.4877 190.954 76.1045 190.095 75.3381C189.235 74.5716 188.806 73.5613 188.806 72.3071C188.806 71.7729 188.898 71.2735 189.084 70.809C189.27 70.3212 189.618 69.8451 190.129 69.3806C190.664 68.916 191.395 68.4399 192.324 67.9522C193.253 67.4412 194.484 66.907 196.017 66.3496L199.257 65.165V62.5521C199.257 61.2282 199.048 60.183 198.63 59.4166C198.212 58.6269 197.631 58.232 196.888 58.232C196.006 58.2553 195.251 58.8359 194.624 59.974C194.02 61.1121 193.613 62.6915 193.404 64.7121L189.642 62.5521C190.036 61.5998 190.64 60.7637 191.453 60.0437C192.266 59.3237 193.195 58.7662 194.24 58.3714C195.309 57.9766 196.424 57.7791 197.585 57.7791C199.559 57.7791 201.162 58.3366 202.393 59.4514C203.647 60.543 204.274 62.0411 204.274 63.9457V72.3419C204.274 73.689 204.727 74.3626 205.633 74.3626C206.167 74.3626 206.69 74.0722 207.201 73.4916L207.479 73.7355C206.875 74.5484 206.144 75.2103 205.284 75.7213C204.425 76.2323 203.589 76.4877 202.776 76.4877C201.893 76.4877 201.127 76.1858 200.477 75.5819C199.85 74.9781 199.455 74.1768 199.292 73.178C198.154 74.3393 197.155 75.1871 196.296 75.7213C195.46 76.2323 194.531 76.4877 193.509 76.4877ZM196.122 74.3277C196.633 74.3277 197.12 74.2 197.585 73.9445C198.073 73.689 198.619 73.2709 199.222 72.6903L199.257 65.6179L197.864 66.1405C196.679 66.5818 195.773 67.0347 195.146 67.4993C194.519 67.9405 194.078 68.4399 193.822 68.9973C193.59 69.5548 193.474 70.1935 193.474 70.9135C193.474 71.9122 193.718 72.7367 194.206 73.3871C194.717 74.0142 195.355 74.3277 196.122 74.3277ZM213.079 76.4877C211.872 76.4877 210.885 76.1045 210.118 75.3381C209.352 74.5716 208.968 73.5729 208.968 72.3419V58.9288H206.007V58.4759C207.61 58.3598 209.038 57.8488 210.292 56.943C211.57 56.0372 212.615 54.8178 213.428 53.2849H213.985V58.3017H218.619L218.27 58.9288H213.985V71.5754C213.985 73.4335 214.612 74.3626 215.867 74.3626C216.285 74.3626 216.761 74.2348 217.295 73.9793C217.852 73.7238 218.375 73.3871 218.863 72.969V73.3174C218.096 74.2929 217.19 75.071 216.145 75.6516C215.1 76.209 214.078 76.4877 213.079 76.4877ZM225.116 76.4877C223.699 76.4877 222.561 76.1045 221.702 75.3381C220.842 74.5716 220.413 73.5613 220.413 72.3071C220.413 71.7729 220.505 71.2735 220.691 70.809C220.877 70.3212 221.225 69.8451 221.736 69.3806C222.271 68.916 223.002 68.4399 223.931 67.9522C224.86 67.4412 226.091 66.907 227.624 66.3496L230.864 65.165V62.5521C230.864 61.2282 230.655 60.183 230.237 59.4166C229.819 58.6269 229.238 58.232 228.495 58.232C227.613 58.2553 226.858 58.8359 226.231 59.974C225.627 61.1121 225.22 62.6915 225.011 64.7121L221.249 62.5521C221.643 61.5998 222.247 60.7637 223.06 60.0437C223.873 59.3237 224.802 58.7662 225.847 58.3714C226.916 57.9766 228.031 57.7791 229.192 57.7791C231.166 57.7791 232.769 58.3366 234 59.4514C235.254 60.543 235.881 62.0411 235.881 63.9457V72.3419C235.881 73.689 236.334 74.3626 237.24 74.3626C237.774 74.3626 238.297 74.0722 238.808 73.4916L239.086 73.7355C238.482 74.5484 237.751 75.2103 236.891 75.7213C236.032 76.2323 235.196 76.4877 234.383 76.4877C233.5 76.4877 232.734 76.1858 232.084 75.5819C231.457 74.9781 231.062 74.1768 230.899 73.178C229.761 74.3393 228.762 75.1871 227.903 75.7213C227.067 76.2323 226.138 76.4877 225.116 76.4877ZM227.729 74.3277C228.24 74.3277 228.727 74.2 229.192 73.9445C229.68 73.689 230.226 73.2709 230.829 72.6903L230.864 65.6179L229.471 66.1405C228.286 66.5818 227.38 67.0347 226.753 67.4993C226.126 67.9405 225.685 68.4399 225.429 68.9973C225.197 69.5548 225.081 70.1935 225.081 70.9135C225.081 71.9122 225.325 72.7367 225.813 73.3871C226.324 74.0142 226.962 74.3277 227.729 74.3277ZM228.6 54.4694C227.136 54.4694 226.056 54.0049 225.36 53.0758C224.686 52.1468 224.338 50.9158 224.314 49.3829H224.663C224.709 50.2423 225.116 50.9623 225.882 51.5429C226.649 52.1004 227.555 52.3791 228.6 52.3791C229.645 52.3791 230.551 52.1004 231.317 51.5429C232.084 50.9623 232.49 50.2423 232.537 49.3829H232.885C232.862 50.9158 232.502 52.1468 231.805 53.0758C231.108 54.0049 230.04 54.4694 228.6 54.4694Z" fill="#0E0604"/>
<path d="M40.144 9.55599C40.1985 9.47179 40.2257 9.38263 40.2257 9.28852C40.2257 9.18945 40.196 9.10277 40.1366 9.02847C40.0771 8.94426 40.0028 8.88978 39.9137 8.86501L27.32 5.02378C27.2012 4.98415 27.0872 4.99406 26.9783 5.0535L22.0226 7.72824L19.2587 8.43408C19.1695 8.45885 19.0952 8.5059 19.0358 8.57525L14.5778 13.6647C14.5135 13.734 14.4788 13.8158 14.4738 13.9099C14.459 14.004 14.4763 14.0932 14.5258 14.1774C14.5754 14.2616 14.6422 14.3235 14.7264 14.3631L17.3046 15.5296L15.8929 17.61C15.8236 17.709 15.7988 17.8205 15.8186 17.9443C15.8384 18.0582 15.8979 18.1523 15.9969 18.2266C16.096 18.296 16.205 18.3232 16.3239 18.3084L18.6345 17.9517V22.7663L18.4414 30.2333C18.4414 30.3274 18.4686 30.4141 18.5231 30.4933C18.5776 30.5726 18.6519 30.6295 18.746 30.6642L20.7446 31.3478L21.6065 35.1667L21.8591 36.7641L21.8517 39.2308L16.9034 42.6932C16.4081 43.0349 15.9895 43.4361 15.6477 43.8968H15.6403C14.8627 44.9221 14.2187 46.0316 13.7085 47.2254V47.2179C13.5302 47.6291 13.4213 48.0699 13.3816 48.5405L12.713 56.2452L11.4945 57.33C11.1576 57.2557 10.8159 57.1839 10.4691 57.1145H10.4617C8.43088 56.6885 6.22916 56.2601 3.85656 55.8292C3.76245 55.8143 3.67577 55.8242 3.59652 55.8589C3.51231 55.8985 3.44544 55.9579 3.39591 56.0372L1.23382 59.5218C1.00102 59.4723 0.768215 59.4252 0.535413 59.3806C0.421489 59.3608 0.317472 59.3806 0.223361 59.4401C0.124296 59.4945 0.0574262 59.5763 0.0227536 59.6852C-0.0119191 59.7893 -0.00696496 59.8933 0.0376142 59.9973L3.11357 67.0557C3.12843 67.0854 3.14577 67.1151 3.16558 67.1448L6.14496 71.2238C6.19944 71.2981 6.27374 71.3501 6.36785 71.3798L20.0611 75.7858C20.2988 75.865 20.544 75.9443 20.7966 76.0235H20.7892L27.8253 78.3416C27.8748 78.3565 27.9268 78.3639 27.9813 78.3639C28.0209 78.3639 28.0655 78.3565 28.115 78.3416L49.5799 71.3798C49.6691 71.3501 49.7434 71.2981 49.8028 71.2238L52.7822 67.1448C52.797 67.1151 52.8119 67.0854 52.8267 67.0557L55.9027 59.9973C55.9473 59.8933 55.9522 59.7893 55.9176 59.6852C55.8829 59.5763 55.8185 59.4945 55.7244 59.4401C55.6253 59.3806 55.5213 59.3608 55.4123 59.3806C55.1746 59.4252 54.9418 59.4723 54.7139 59.5218L52.5518 56.0372C52.5023 55.9579 52.4379 55.8985 52.3587 55.8589C52.2745 55.8242 52.1878 55.8143 52.0986 55.8292C49.7508 56.2551 47.5738 56.6786 45.5678 57.0997C45.2161 57.169 44.8719 57.2408 44.535 57.3151L43.3165 56.1858L42.7296 49.3577C42.6602 48.5949 42.4968 47.8742 42.2392 47.1957C41.7835 45.9821 41.1668 44.8577 40.3892 43.8225C40.0424 43.3718 39.6239 42.978 39.1335 42.6412L34.1927 39.2234V38.4061L34.4601 36.7493C34.4651 36.7196 34.47 36.6923 34.475 36.6675C34.475 36.6378 34.475 36.6106 34.475 36.5858V35.1221L35.4112 30.954L37.5064 30.4488C37.6154 30.419 37.702 30.3596 37.7664 30.2704C37.8308 30.1813 37.8581 30.0822 37.8482 29.9732C37.4123 24.7872 37.0779 19.8216 36.8451 15.0764L39.7353 14.6529C39.8493 14.6331 39.9434 14.5786 40.0177 14.4894C40.087 14.3953 40.1192 14.2913 40.1143 14.1774C40.1044 14.0634 40.0573 13.9668 39.9731 13.8876L38.2048 12.2159L40.144 9.55599ZM33.9029 27.67L34.2595 26.2063L35.5821 24.5569L34.6087 30.4636C34.6038 30.4834 34.5988 30.5082 34.5939 30.5379L34.3784 31.4889L33.5834 36.4149L28.4791 51.1929C28.4742 51.2028 28.4692 51.2127 28.4642 51.2226V51.2375L28.0407 52.4857L27.5801 51.1409C27.5751 51.131 27.5727 51.1211 27.5727 51.1112L22.7358 36.6155L21.5693 30.954C21.5644 30.9292 21.5594 30.9069 21.5545 30.8871L20.5366 24.5569L21.8591 26.2063L22.2157 27.6626C22.2455 27.7814 22.3123 27.8731 22.4163 27.9375C22.5204 28.0019 22.6318 28.0217 22.7507 27.9969C22.8696 27.9622 22.9612 27.8929 23.0256 27.7889C23.09 27.6848 23.1098 27.5734 23.085 27.4545L22.7061 25.9017C22.6863 25.8373 22.6566 25.7803 22.617 25.7308L20.2988 22.8331L20.9898 18.7913C20.9948 18.7665 20.9972 18.7418 20.9972 18.717V17.5802L35.0991 15.3438L35.3146 18.665C35.3146 18.6749 35.3171 18.6848 35.322 18.6947L35.8347 22.8257L33.5091 25.7308C33.4645 25.7803 33.4348 25.8373 33.42 25.9017L33.041 27.4545C33.0113 27.5684 33.0287 27.6799 33.093 27.7889C33.1525 27.8929 33.2441 27.9597 33.368 27.9895C33.4819 28.0192 33.5933 28.0043 33.7023 27.9449C33.8063 27.8805 33.8732 27.7889 33.9029 27.67ZM20.8858 45.145L21.9408 44.1048L26.7554 51.4827L27.6098 54.0237C27.6395 54.1129 27.694 54.1847 27.7733 54.2392C27.8525 54.2936 27.9392 54.3209 28.0333 54.3209C28.1274 54.3209 28.2141 54.2936 28.2934 54.2392C28.3726 54.1797 28.4271 54.1054 28.4568 54.0163L29.2964 51.557L34.0887 44.038L35.1511 45.0781L36.3548 51.4232L28.2859 60.2202L19.6822 51.4827L20.8858 45.145ZM22.7284 43.6739L22.7433 39.4612L25.6335 48.1244L22.7284 43.6739ZM33.3011 40.063V43.6145L30.5669 47.9015L33.3011 40.063ZM34.1927 42.8938V40.3082L38.6283 43.3767C39.0394 43.659 39.3886 43.986 39.6759 44.3574L39.6833 44.3649C40.4065 45.3258 40.9811 46.3734 41.4071 47.5077C41.6349 48.117 41.7785 48.7609 41.838 49.4395L42.4249 56.2229L40.2703 58.2661C34.9109 59.5391 31.2628 60.7502 29.3261 61.8993V61.8919C28.7317 62.2386 28.281 62.5829 27.9739 62.9247C27.8203 62.7563 27.6346 62.5878 27.4166 62.4194L28.6203 61.1786C28.6252 61.1737 28.6302 61.1712 28.6351 61.1712L37.1646 51.8616C37.2092 51.8071 37.2414 51.7477 37.2612 51.6833C37.281 51.6139 37.2835 51.5446 37.2686 51.4753L35.9981 44.7735C35.9783 44.6794 35.9362 44.6002 35.8718 44.5358L34.1927 42.8938ZM2.16998 59.7075L3.99773 56.7653C6.25145 57.1715 8.34667 57.5776 10.2834 57.9838C10.6896 58.068 11.0883 58.1522 11.4796 58.2364C11.5093 58.2463 11.5415 58.2538 11.5762 58.2587H11.591C13.1464 58.5906 14.5902 58.9175 15.9227 59.2395L15.9598 59.2469C19.2686 60.0543 21.8888 60.8294 23.8206 61.5724C24.945 62.0083 25.8316 62.4343 26.4805 62.8504L26.4953 62.8652C27.0551 63.2268 27.4092 63.5735 27.5578 63.9054C27.5925 63.9896 27.6494 64.059 27.7287 64.1134C27.803 64.163 27.8847 64.1877 27.9739 64.1877C28.063 64.1877 28.1472 64.163 28.2265 64.1134C28.3008 64.059 28.3553 63.9896 28.39 63.9054C28.5683 63.5091 29.0289 63.0956 29.7719 62.6646H29.7793C31.6863 61.5452 35.2873 60.3614 40.5823 59.1131H40.5898C40.5997 59.1082 40.6096 59.1057 40.6195 59.1057C41.8132 58.8184 43.0912 58.5311 44.4533 58.2439C44.483 58.2389 44.5127 58.2315 44.5425 58.2216C44.9387 58.1374 45.3424 58.0532 45.7535 57.9689C47.6605 57.5677 49.7285 57.1665 51.9575 56.7653L53.7852 59.7075C50.8677 60.297 48.2054 60.8889 45.7981 61.4833C44.8917 61.7062 44.0199 61.9315 43.1828 62.1594C41.9792 62.4814 40.8473 62.8083 39.7873 63.1401H39.7948C39.3193 63.2838 38.8561 63.4299 38.4054 63.5785C37.9992 63.7122 37.6104 63.8484 37.2389 63.9871H37.2463C36.4687 64.2546 35.7455 64.532 35.0768 64.8193H35.0694C34.3759 65.0967 33.7419 65.379 33.1673 65.6663C32.7513 65.8644 32.3674 66.0675 32.0157 66.2755H32.0083C31.7458 66.4241 31.5006 66.5703 31.2727 66.7139L27.9739 67.4569L24.675 66.7139C24.5611 66.6445 24.4447 66.5727 24.3258 66.4984C24.3209 66.4984 24.3159 66.496 24.311 66.491C24.1921 66.4217 24.0682 66.3498 23.9395 66.2755C23.5779 66.0675 23.1965 65.8644 22.7953 65.6663H22.7878C22.6491 65.5969 22.5129 65.5326 22.3792 65.4731L22.3866 65.4805C21.7972 65.1982 21.1533 64.9183 20.4549 64.641V64.6484C19.5682 64.2918 18.5974 63.9351 17.5424 63.5785C17.3492 63.5141 17.1535 63.4497 16.9554 63.3853C16.6929 63.3011 16.4229 63.2194 16.1455 63.1401H16.153C15.9648 63.0807 15.7666 63.0213 15.5586 62.9618H15.566C14.4466 62.62 13.2529 62.2832 11.9848 61.9514C9.11195 61.1985 5.84033 60.4505 2.16998 59.7075ZM54.5728 60.4654L54.5876 60.458C54.6025 60.453 54.6173 60.4505 54.6322 60.4505C54.6718 60.4406 54.709 60.4307 54.7437 60.4208L52.0318 66.6545L49.1638 70.5774L28.4197 77.3089V68.2667L31.5402 67.5683C31.5897 67.5535 31.6368 67.5337 31.6814 67.5089C31.9191 67.3553 32.1767 67.2043 32.4541 67.0557C32.4541 67.0507 32.4566 67.0482 32.4615 67.0482C32.7934 66.8501 33.1574 66.6569 33.5537 66.4687H33.5611C34.1208 66.1913 34.7375 65.9164 35.4112 65.644L35.4186 65.6366C36.0724 65.3592 36.7783 65.0892 37.5361 64.8267H37.5435C37.9101 64.693 38.2915 64.5592 38.6877 64.4255C39.1286 64.2769 39.5843 64.1333 40.0548 63.9946C41.1049 63.6677 42.2268 63.3432 43.4206 63.0213C44.2477 62.7934 45.1121 62.568 46.0136 62.3451V62.3526C48.5794 61.7186 51.4324 61.0895 54.5728 60.4654ZM25.8489 21.1986C25.7598 21.2531 25.7053 21.3323 25.6855 21.4363C25.6657 21.5205 25.6756 21.5998 25.7152 21.6741C25.6558 21.7088 25.5914 21.736 25.522 21.7558C25.5072 21.7558 25.4948 21.7583 25.4849 21.7632C25.3759 21.8029 25.2719 21.8301 25.1728 21.845C25.1679 21.84 25.1629 21.84 25.158 21.845C24.9995 21.8648 24.8434 21.8846 24.6899 21.9044C24.576 21.9094 24.4645 21.9118 24.3555 21.9118C24.2466 21.9118 24.1425 21.9094 24.0435 21.9044C23.9197 21.8846 23.7958 21.8697 23.672 21.8598C23.568 21.845 23.464 21.8276 23.3599 21.8078C23.2361 21.7732 23.1123 21.7385 22.9884 21.7038C22.9835 21.7038 22.9785 21.7038 22.9736 21.7038C22.8547 21.6642 22.7383 21.627 22.6244 21.5924C22.6145 21.5874 22.607 21.5849 22.6021 21.5849C22.4783 21.5404 22.3544 21.4933 22.2306 21.4438C22.1365 21.4041 22.0424 21.4041 21.9483 21.4438C21.8492 21.4834 21.7823 21.5503 21.7477 21.6444C21.708 21.7385 21.708 21.8351 21.7477 21.9341C21.7873 22.0282 21.8542 22.0951 21.9483 22.1347C22.087 22.1892 22.2256 22.2412 22.3643 22.2908C22.3693 22.2957 22.3767 22.2982 22.3866 22.2982C22.5154 22.3378 22.6442 22.3774 22.773 22.4171L22.7804 22.4245C22.9092 22.4592 23.038 22.4938 23.1668 22.5285C23.1767 22.5285 23.1841 22.5285 23.1891 22.5285C23.3129 22.5533 23.4392 22.5781 23.568 22.6028C23.5779 22.6028 23.5878 22.6028 23.5977 22.6028C23.7116 22.6127 23.8255 22.6276 23.9395 22.6474C23.9543 22.6474 23.9692 22.6474 23.984 22.6474C24.1029 22.6524 24.2268 22.6548 24.3555 22.6548C24.4744 22.6548 24.5958 22.6524 24.7196 22.6474C24.7295 22.6474 24.7394 22.6474 24.7493 22.6474C24.9227 22.6276 25.096 22.6053 25.2694 22.5805H25.2546C25.3982 22.5607 25.5493 22.526 25.7078 22.4765C25.8861 22.427 26.0421 22.3552 26.1759 22.261C26.5424 22.0084 26.6043 21.6914 26.3616 21.31C26.3071 21.2258 26.2303 21.1713 26.1313 21.1466C26.0273 21.1268 25.9331 21.1441 25.8489 21.1986ZM31.0944 22.5805H31.0796C31.248 22.6053 31.4189 22.6276 31.5922 22.6474C31.6021 22.6474 31.612 22.6474 31.6219 22.6474C31.7458 22.6524 31.8671 22.6548 31.986 22.6548C32.1148 22.6548 32.2386 22.6524 32.3575 22.6474C32.3724 22.6474 32.3872 22.6474 32.4021 22.6474C32.516 22.6276 32.6299 22.6127 32.7438 22.6028C32.7538 22.6028 32.7637 22.6028 32.7736 22.6028C32.9024 22.5781 33.0287 22.5533 33.1525 22.5285C33.1574 22.5285 33.1649 22.5285 33.1748 22.5285C33.3036 22.4938 33.4323 22.4592 33.5611 22.4245C33.5661 22.4196 33.571 22.4171 33.576 22.4171C33.7048 22.3774 33.8336 22.3378 33.9623 22.2982C33.9673 22.2982 33.9747 22.2957 33.9846 22.2908C34.1184 22.2412 34.2546 22.1892 34.3933 22.1347C34.4874 22.0951 34.5543 22.0282 34.5939 21.9341C34.6335 21.8351 34.636 21.7385 34.6013 21.6444C34.5617 21.5503 34.4948 21.4834 34.4007 21.4438C34.3016 21.4041 34.2051 21.4041 34.1109 21.4438C33.9871 21.4933 33.8658 21.5404 33.7469 21.5849C33.737 21.5849 33.7295 21.5874 33.7246 21.5924C33.6057 21.627 33.4868 21.6642 33.368 21.7038H33.3605C33.2317 21.7385 33.1054 21.7732 32.9816 21.8078C32.8776 21.8276 32.7736 21.845 32.6695 21.8598C32.5457 21.8697 32.4219 21.8846 32.2981 21.9044C32.199 21.9094 32.095 21.9118 31.986 21.9118C31.877 21.9118 31.7656 21.9094 31.6517 21.9044C31.4981 21.8846 31.3446 21.8648 31.191 21.845C31.1811 21.84 31.1761 21.84 31.1761 21.845C31.0721 21.8301 30.9656 21.8029 30.8567 21.7632C30.8468 21.7583 30.8368 21.7558 30.8269 21.7558C30.7526 21.736 30.6858 21.7088 30.6263 21.6741C30.666 21.5998 30.6759 21.5205 30.6561 21.4363C30.6362 21.3323 30.5818 21.2531 30.4926 21.1986C30.4084 21.1441 30.3168 21.1268 30.2177 21.1466C30.1137 21.1713 30.0344 21.2258 29.9799 21.31C29.7372 21.6914 29.8016 22.0084 30.1731 22.261C30.3019 22.3552 30.4555 22.427 30.6338 22.4765C30.7923 22.526 30.9458 22.5607 31.0944 22.5805ZM28.8209 30.5528C28.8803 30.6617 28.9695 30.7336 29.0884 30.7682L32.3055 31.7118C32.7959 32.1031 33.1376 32.4722 33.3308 32.8189C33.4051 32.908 33.4769 32.908 33.5463 32.8189C33.6391 32.5605 33.6911 32.3004 33.7023 32.0387V31.8604L33.5983 31.7193C33.5078 31.6106 33.384 31.4793 33.2268 31.3255C33.093 31.1967 32.9469 31.0729 32.7884 30.954C32.7488 30.9193 32.7017 30.897 32.6473 30.8871L29.341 29.9138C29.2221 29.8791 29.1082 29.8915 28.9992 29.951C28.8902 30.0054 28.8184 30.0921 28.7837 30.211C28.754 30.3299 28.7664 30.4438 28.8209 30.5528ZM26.8965 28.9776C26.9719 29.0523 27.0611 29.0894 27.164 29.0891H28.91C29.013 29.0894 29.0997 29.0523 29.1701 28.9776C29.2447 28.9072 29.2819 28.8205 29.2815 28.7176C29.2819 28.6146 29.2447 28.5255 29.1701 28.4501C29.0997 28.3804 29.013 28.3457 28.91 28.3461H27.164C27.0611 28.3457 26.9719 28.3804 26.8965 28.4501C26.8268 28.5255 26.7922 28.6146 26.7925 28.7176C26.7922 28.8205 26.8268 28.9072 26.8965 28.9776ZM23.3599 30.8648C23.3055 30.8747 23.2584 30.897 23.2188 30.9317C23.0614 31.0494 22.9153 31.1732 22.7804 31.3032C22.5465 31.5297 22.388 31.7081 22.3049 31.8381C22.2946 32.1576 22.3466 32.4771 22.4609 32.7966C22.5315 32.885 22.6009 32.885 22.669 32.7966C22.8691 32.4492 23.2133 32.0802 23.7017 31.6895L26.9188 30.7459C27.0377 30.7113 27.1269 30.6395 27.1863 30.5305C27.2408 30.4215 27.2532 30.3076 27.2235 30.1887C27.1888 30.0698 27.117 29.9832 27.008 29.9287C26.899 29.8692 26.7851 29.8568 26.6662 29.8915L23.3599 30.8648ZM26.2279 18.9845C26.3295 18.9906 26.4186 18.9584 26.4953 18.8879C26.5728 18.8218 26.6149 18.7376 26.6216 18.6353C26.6279 18.5335 26.5957 18.4443 26.5251 18.3678C26.4591 18.2904 26.3749 18.2483 26.2724 18.2415L22.1117 18.0037C22.0101 17.9976 21.921 18.0273 21.8442 18.0929C21.7668 18.164 21.7247 18.2506 21.7179 18.3529C21.7117 18.4547 21.7414 18.5439 21.8071 18.6204C21.878 18.6978 21.9647 18.7399 22.0671 18.7467L26.2279 18.9845ZM34.6236 17.6991C34.6227 17.5965 34.5855 17.5074 34.5122 17.4316C33.6613 16.5368 32.4057 16.5814 30.7452 17.5654C30.5633 17.6791 30.3726 17.8004 30.1731 17.9294C30.09 17.9884 30.038 18.0676 30.0171 18.1672C29.997 18.2674 30.0144 18.359 30.0691 18.4421C30.128 18.5304 30.2072 18.5849 30.3069 18.6056C30.4068 18.6255 30.4984 18.6057 30.5818 18.5461C30.7735 18.4225 30.9568 18.3061 31.1316 18.1969L31.1241 18.2043C32.3919 17.4542 33.3479 17.3725 33.9921 17.9592C34.0641 18.0337 34.1508 18.0709 34.2521 18.0706C34.3549 18.0697 34.4416 18.0326 34.5122 17.9592C34.5869 17.8872 34.6241 17.8005 34.6236 17.6991Z" fill="#0E0604"/>
</svg>
