<svg width="103" height="91" viewBox="0 0 103 91" fill="none" xmlns="http://www.w3.org/2000/svg">
<path d="M13.3298 43.4957V8.98619C13.3298 8.07093 13.1392 7.42609 12.7578 7.05166C12.3764 6.63564 11.6852 6.42762 10.6842 6.42762C10.6365 5.34595 10.9702 4.4931 11.6852 3.86905C12.4003 3.24501 13.5443 2.93299 15.1174 2.93299C16.7382 2.93299 17.8585 3.61944 18.4782 4.99233C20.3373 3.61944 22.2441 2.93299 24.1985 2.93299C28.9179 2.93299 31.2775 4.97153 31.2775 9.0486V19.9693C31.2775 21.883 30.5863 23.3391 29.2039 24.3376C30.8247 25.2945 31.635 26.8754 31.635 29.0803V36.8808C31.635 38.961 30.8008 40.5835 29.1324 41.7484C27.5116 42.9132 25.295 43.4957 22.4824 43.4957H13.3298ZM22.84 7.05166C21.5529 7.05166 20.2658 7.6133 18.9787 8.73658V22.4655H22.4824C23.4358 22.4655 24.1985 22.2367 24.7706 21.779C25.3426 21.3214 25.6286 20.7182 25.6286 19.9693V9.42302C25.6286 7.84212 24.6991 7.05166 22.84 7.05166ZM18.9787 26.5842V39.377H22.6254C23.6265 39.377 24.4369 39.169 25.0566 38.753C25.6763 38.2953 25.9862 37.6713 25.9862 36.8808V29.0803C25.9862 28.2899 25.6763 27.6866 25.0566 27.2706C24.4369 26.813 23.6265 26.5842 22.6254 26.5842H18.9787Z" fill="black"/>
<path d="M36.4331 4.80512C36.4331 3.84826 36.2186 2.57937 35.7896 0.998464C37.2197 0.332821 38.7451 0 40.3659 0C41.3193 0 41.796 0.31202 41.796 0.936061V38.3161C41.796 39.1898 41.9628 39.8138 42.2965 40.1883C42.6779 40.5627 43.3691 40.7499 44.3701 40.7499C44.4178 41.8316 44.0841 42.6636 43.3691 43.2461C42.7017 43.8285 41.7006 44.1197 40.3659 44.1197C39.0311 44.1197 38.0301 43.7661 37.3627 43.0588C36.743 42.3516 36.4331 41.1867 36.4331 39.5642V4.80512Z" fill="black"/>
<path d="M50.7519 7.23888C48.7021 7.23888 47.6772 6.0532 47.6772 3.68184C47.6772 1.31049 48.7021 0.124807 50.7519 0.124807C52.8017 0.124807 53.8266 1.31049 53.8266 3.68184C53.8266 6.0532 52.8017 7.23888 50.7519 7.23888ZM46.3186 12.9177H53.4691V38.3161C53.4691 39.1898 53.636 39.8138 53.9696 40.1883C54.351 40.5627 55.0422 40.7499 56.0433 40.7499C56.091 41.8316 55.7573 42.6636 55.0422 43.2461C54.3748 43.8285 53.3738 44.1197 52.039 44.1197C50.7043 44.1197 49.7032 43.7661 49.0358 43.0588C48.4161 42.3516 48.1063 41.1867 48.1063 39.5642V16.6619L45.8896 16.9739C45.5559 15.8923 45.3891 14.9562 45.3891 14.1657C45.3891 13.3337 45.6989 12.9177 46.3186 12.9177Z" fill="black"/>
<path d="M65.1305 38.3785C65.1305 40.4171 65.2974 42.1228 65.6311 43.4957C64.201 43.6621 62.6517 43.7453 60.9832 43.7453C60.1729 43.7453 59.7677 43.4333 59.7677 42.8092V18.0972C59.7677 17.2235 59.577 16.5995 59.1956 16.2251C58.8619 15.8506 58.1946 15.6634 57.1935 15.6634C57.1458 14.5818 57.4557 13.7497 58.1231 13.1673C58.8381 12.5848 59.9584 12.2936 61.4838 12.2936C63.0092 12.2936 64.1056 12.9385 64.773 14.2281C66.3461 12.9385 68.0384 12.2936 69.8498 12.2936C71.709 12.2936 73.1867 12.8136 74.2831 13.8537C75.4272 14.8938 75.9992 16.3707 75.9992 18.2844V38.3161C75.9992 39.1898 76.1661 39.8138 76.4998 40.1883C76.8811 40.5627 77.5723 40.7499 78.5734 40.7499C78.6211 41.8316 78.2874 42.6636 77.5723 43.2461C76.905 43.8285 75.9039 44.1197 74.5691 44.1197C73.2344 44.1197 72.2333 43.7661 71.5659 43.0588C70.9462 42.3516 70.6364 41.1867 70.6364 39.5642V18.6588C70.6364 17.2859 69.826 16.5995 68.2052 16.5995C66.8705 16.5995 65.8456 17.2443 65.1305 18.534V38.3785Z" fill="black"/>
<path d="M92.0537 16.9115H89.265C88.4547 16.9115 87.7873 17.1403 87.2629 17.598C86.7862 18.014 86.5479 18.5756 86.5479 19.2829V37.6921C86.5479 39.1482 87.2391 39.8762 88.6215 39.8762C89.3365 39.8762 90.0039 39.6474 90.6236 39.1898C91.291 38.6906 91.7677 38.1705 92.0537 37.6297V16.9115ZM92.0537 4.80512C92.0537 3.55703 91.8392 2.28815 91.4102 0.998464C92.8403 0.332821 94.3657 0 95.9865 0C96.9399 0 97.4166 0.31202 97.4166 0.936061V38.3161C97.4166 39.1898 97.5834 39.8138 97.9171 40.1883C98.2985 40.5627 98.9897 40.7499 99.9907 40.7499C100.038 41.8316 99.7047 42.6636 98.9897 43.2461C98.3223 43.8285 97.3451 44.1197 96.058 44.1197C94.1512 44.1197 92.9356 43.4749 92.4112 42.1852C90.9335 43.4749 89.265 44.1197 87.4059 44.1197C85.5468 44.1197 84.0452 43.5789 82.9011 42.4972C81.757 41.3739 81.185 39.793 81.185 37.7545V19.5325C81.185 17.4524 81.9239 15.8298 83.4017 14.665C84.8794 13.5001 86.8816 12.9177 89.4081 12.9177H92.0537V4.80512Z" fill="black"/>
<path d="M4.98828 13.2263C6.199 13.2264 7.17748 13.6269 7.83594 14.4841C8.4764 15.3181 8.75879 16.5141 8.75879 17.9939V68.3748H13.6172V52.2263L13.3691 49.0417L13.335 48.6062L13.7676 48.5427C15.2015 48.3318 16.6162 48.2253 18.0107 48.2253C18.4227 48.2253 18.816 48.3363 19.0996 48.6375C19.3781 48.9333 19.4755 49.3344 19.4756 49.7527V84.0466C19.4756 84.8582 19.6313 85.3327 19.8389 85.5828C20.0887 85.7907 20.5634 85.947 21.376 85.947H21.8438V86.4148C21.8437 87.6857 21.4849 88.7209 20.6904 89.4285C19.9063 90.1268 18.7766 90.4343 17.3877 90.4343C16.1769 90.4343 15.1986 90.0338 14.54 89.1765C13.8995 88.3426 13.6172 87.1467 13.6172 85.6667V73.4236H8.75879V83.4861L9.00684 89.323L9.02539 89.7449L8.60742 89.8064C7.17367 90.0172 5.75954 90.1228 4.36523 90.1228C3.95327 90.1228 3.55994 90.012 3.27637 89.7107C2.99781 89.4147 2.89941 89.0139 2.89941 88.5955V19.614C2.89941 18.7815 2.71658 18.352 2.49609 18.156L2.47559 18.1384L2.45703 18.1179C2.26105 17.8974 1.8325 17.7136 1 17.7136H0.532227V17.2458C0.532227 15.9749 0.891072 14.9398 1.68555 14.2322C2.46969 13.5339 3.59938 13.2263 4.98828 13.2263ZM93.2549 47.7498C95.6904 47.7498 97.6739 48.3058 99.1523 49.4705H99.1514C100.634 50.5959 101.388 52.1021 101.388 53.9509V59.1853C101.388 59.6866 101.2 60.1248 100.839 60.4724C100.492 60.8059 100.006 61.0356 99.4268 61.1921L99.4277 61.1931C98.8061 61.3707 98.1814 61.4597 97.5547 61.4597C96.9394 61.4597 96.325 61.3938 95.7119 61.2625L95.292 61.1726L95.3457 60.7468C95.4676 59.7714 95.5283 58.7318 95.5283 57.6277V54.823C95.5283 54.0766 95.325 53.5996 94.9961 53.3005C94.6587 52.9938 94.107 52.7986 93.2549 52.7986C92.4647 52.7986 91.904 53.0042 91.5146 53.3611L91.5068 53.3689L91.498 53.3757C91.1295 53.683 90.919 54.1399 90.9189 54.823V65.7898C90.9189 66.4285 91.109 66.9014 91.458 67.2556C91.8554 67.6176 92.3781 67.8142 93.0684 67.8142H94.0029C95.4873 67.8142 96.5573 67.7105 97.2422 67.5203L97.6904 67.3953L97.8174 67.8425C98.1607 69.0441 98.334 70.2299 98.334 71.3982C98.3339 71.7883 98.2498 72.1684 98 72.4539C97.7398 72.7512 97.3743 72.863 96.9941 72.863H93.3174C92.5338 72.863 91.9451 73.0648 91.5088 73.4304C91.1217 73.7881 90.9189 74.2587 90.9189 74.8875V83.3611C90.9189 84.0342 91.1252 84.5187 91.501 84.8708C91.9372 85.2 92.5287 85.3855 93.3174 85.3855C94.1108 85.3855 94.7046 85.1978 95.1416 84.865C95.5579 84.5086 95.7783 84.0259 95.7783 83.3611V81.8308L95.5918 78.6531L95.5684 78.2527L95.9609 78.1677C96.574 78.0364 97.1885 77.9705 97.8037 77.9705C98.4281 77.9705 99.0506 78.0598 99.6699 78.2361C100.251 78.3926 100.74 78.624 101.088 78.9587C101.449 79.3064 101.637 79.7445 101.637 80.2458V84.2341C101.637 86.0902 100.856 87.616 99.334 88.78L99.3271 88.7859C97.8092 89.9019 95.7898 90.4343 93.3174 90.4343C90.8734 90.4343 88.8678 89.833 87.3496 88.5828C85.8139 87.318 85.0605 85.5567 85.0605 83.3611V74.6384C85.0605 72.8656 85.578 71.415 86.6445 70.3386C85.578 69.2622 85.0605 67.8117 85.0605 66.0388V54.823C85.0606 52.6275 85.8139 50.866 87.3496 49.6013C88.8663 48.3523 90.8503 47.7498 93.2549 47.7498ZM73.6338 48.3738C75.7609 48.3738 77.4429 48.8995 78.5898 50.0349C79.7377 51.1712 80.2705 52.8392 80.2705 54.948V70.2761C80.2705 72.4743 79.4933 74.2341 77.918 75.4968L77.9189 75.4978C76.3981 76.7503 74.3486 77.3494 71.8262 77.3494H69.5527V83.4666L69.8018 89.323L69.8193 89.7449L69.4023 89.8064C67.9683 90.0173 66.5537 90.1228 65.1592 90.1228C64.7472 90.1228 64.3539 90.012 64.0703 89.7107C63.7919 89.4147 63.6943 89.0138 63.6943 88.5955V54.8855C63.6943 54.0018 63.5277 53.5064 63.3135 53.2654L63.2979 53.2458C63.0982 52.9967 62.6758 52.7986 61.8564 52.7986H61.4062L61.3887 52.3484C61.3434 51.17 61.6629 50.1806 62.3984 49.4451C63.1475 48.6962 64.2922 48.3738 65.7197 48.3738C66.4865 48.3738 67.1708 48.5665 67.749 48.9724C68.1761 49.2723 68.5274 49.6758 68.8096 50.1687C70.3527 48.9878 71.9625 48.3738 73.6338 48.3738ZM72.4492 53.4216C71.5362 53.4218 70.5727 53.8581 69.5527 54.8347V72.3005H71.9512C72.7448 72.3005 73.3384 72.112 73.7754 71.7791C74.1914 71.4227 74.4121 70.9407 74.4121 70.2761V55.322C74.4121 54.6081 74.2289 54.158 73.9453 53.8816C73.6594 53.603 73.1901 53.4216 72.4492 53.4216Z" fill="black" stroke="black" stroke-width="0.936155"/>
<path d="M59.8332 69.8508C59.8332 79.5236 54.1925 89.9326 44.5197 89.9326C34.8468 89.9326 24.8047 79.5236 24.8047 69.8508C24.8047 60.1779 32.6461 52.3365 42.3189 52.3365C51.9918 52.3365 59.8332 60.1779 59.8332 69.8508Z" fill="black"/>
<path d="M20.1333 59.7438C20.1333 62.2949 23.2776 66.3361 25.1485 68.2431C25.2832 68.3804 25.3601 68.5634 25.3601 68.7557V71.9347C25.3601 73.3189 23.7856 74.1465 22.4019 74.1813C20.211 74.2366 18.6898 76.0408 17.7513 78.0073C17.1865 79.1907 15.5003 79.6156 14.6315 78.6335C8.98288 72.1046 16.0681 70.4418 19.7665 70.5641C20.8987 70.6512 21.2679 69.8576 20.463 69.0567C18.9659 67.567 17.0156 65.4691 17.0156 64.3286C17.0156 62.7698 20.1333 57.8181 20.1333 59.7438Z" fill="black" stroke="#E9E9E9" stroke-width="0.717394"/>
<path d="M57.953 67.2526C50.4142 68.267 35.2124 67.8825 26.5649 67.4579C25.7353 67.4172 24.9826 67.9487 24.8837 68.7734C24.6381 70.8216 24.8909 73.3401 25.1624 75.01C25.2608 75.6151 25.6794 76.1137 26.2759 76.2549C32.1334 77.6415 49.3678 76.7851 58.7909 76.0665C59.5827 76.0061 60.2333 75.43 60.3746 74.6486C60.6681 73.0261 60.9462 71.03 60.6806 70.7022C60.5659 70.5606 60.5359 70.1942 60.5564 69.7246C60.6171 68.3385 59.328 67.0675 57.953 67.2526Z" fill="black" stroke="#E9E9E9" stroke-width="0.717394"/>
<path d="M56.9036 52.3364C56.0692 52.3364 50.0887 51.7592 43.7549 52.2139C42.2526 52.3217 41.7049 54.0953 42.8837 55.0329C48.3845 59.4079 56.9401 64.9541 58.3708 63.7986C59.763 62.6741 60.6236 61.4871 61.0988 60.4202C61.5477 59.4121 60.5913 58.5495 59.5003 58.7158C59.1033 58.7764 58.7546 58.8276 58.4477 58.8698C57.2205 59.0384 56.9772 57.8496 57.2327 56.6376C57.6323 54.7425 57.3281 52.3364 56.9036 52.3364Z" fill="black"/>
</svg>
