<svg width="292" height="77" viewBox="0 0 292 77" fill="none" xmlns="http://www.w3.org/2000/svg">
<path d="M156.929 24.798C156.929 24.787 156.927 24.7762 156.921 24.7665C156.916 24.7568 156.909 24.7486 156.9 24.7425C156.891 24.7364 156.881 24.7326 156.87 24.7315C156.859 24.7305 156.849 24.7321 156.839 24.7363C155.669 25.2308 154.869 26.0485 154.439 27.1893C154.237 27.7249 154.149 28.6556 154.175 29.9814C154.188 30.6037 154.189 33.7281 154.18 39.3546C154.18 39.3733 154.172 39.3912 154.159 39.4043C154.146 39.4174 154.128 39.4248 154.11 39.4248H151.558C151.543 39.4248 151.529 39.4188 151.519 39.4082C151.509 39.3976 151.503 39.3833 151.503 39.3683C151.505 33.0601 151.505 29.8752 151.503 29.8135C151.463 28.4146 151.546 27.364 151.751 26.6617C152.445 24.2978 154.398 22.4547 156.828 21.9288C156.865 21.9209 156.897 21.9008 156.92 21.8718C156.943 21.8427 156.956 21.8066 156.955 21.7695C156.863 17.4324 153.149 14.3662 148.865 15.0497C148.84 15.0534 148.818 15.0657 148.801 15.0846C148.785 15.1034 148.776 15.1275 148.776 15.1524V39.3614C148.776 39.3782 148.769 39.3944 148.757 39.4062C148.745 39.4181 148.729 39.4248 148.713 39.4248H146.162C146.132 39.4248 146.103 39.4129 146.082 39.3917C146.061 39.3705 146.049 39.3417 146.049 39.3117V16.4406C146.049 16.4278 146.046 16.4153 146.039 16.4046C146.032 16.3938 146.022 16.3852 146.01 16.3798C145.999 16.3744 145.986 16.3725 145.973 16.3741C145.96 16.3758 145.948 16.381 145.938 16.3892C144.74 17.3793 143.943 18.5669 143.548 19.9521C143.38 20.5391 143.299 21.4361 143.305 22.6431C143.314 24.5925 143.316 30.1704 143.31 39.3768C143.31 39.3896 143.305 39.4018 143.296 39.4108C143.287 39.4197 143.275 39.4248 143.262 39.4248H140.675C140.647 39.4248 140.62 39.4136 140.6 39.3937C140.58 39.3738 140.569 39.3468 140.569 39.3186C140.579 34.9106 140.579 29.6462 140.567 23.5253C140.564 21.7678 140.647 20.5128 140.818 19.7603C141.479 16.83 143.205 14.6271 145.998 13.1517C146.021 13.1395 146.04 13.1209 146.053 13.0981C146.066 13.0754 146.072 13.0495 146.071 13.0233C146.032 11.7545 146.08 10.7896 146.215 10.1284C146.97 6.41702 148.906 3.6118 152.022 1.71272C155.109 -0.171513 159.113 -0.503821 162.478 0.729495C166.539 2.21975 169.424 5.59939 170.313 9.85604C170.493 10.7171 170.574 12.032 170.554 13.8009C170.541 15.0719 170.538 23.5904 170.547 39.3563C170.547 39.3745 170.54 39.3919 170.528 39.4047C170.515 39.4176 170.498 39.4248 170.481 39.4248H167.913C167.896 39.4248 167.881 39.4181 167.869 39.4062C167.858 39.3944 167.851 39.3782 167.851 39.3614C167.851 22.4387 167.852 13.5023 167.853 12.5522C167.854 11.2778 167.664 10.1198 167.282 9.07836C164.84 2.39276 156.368 0.465706 151.386 5.69017C149.669 7.4899 148.807 9.66133 148.802 12.2045C148.802 12.2126 148.803 12.2206 148.806 12.228C148.81 12.2355 148.814 12.2421 148.82 12.2476C148.826 12.2531 148.833 12.2573 148.84 12.2599C148.848 12.2625 148.855 12.2634 148.863 12.2627C151.693 12.0486 154.394 12.7629 156.51 14.6917C158.536 16.5382 159.585 18.9078 159.656 21.8004C159.657 21.8265 159.666 21.8519 159.683 21.8725C159.699 21.8932 159.722 21.9081 159.747 21.9151C162.31 22.5798 164.143 24.243 164.857 26.7542C165.031 27.364 165.116 28.4397 165.112 29.9814C165.102 35.4616 165.1 38.5837 165.105 39.3477C165.105 39.3578 165.103 39.3679 165.099 39.3772C165.096 39.3866 165.09 39.3951 165.083 39.4022C165.076 39.4094 165.067 39.4151 165.058 39.4189C165.048 39.4228 165.038 39.4248 165.028 39.4248H162.462C162.444 39.4248 162.426 39.4174 162.413 39.4042C162.399 39.3911 162.392 39.3732 162.392 39.3546C162.39 33.1058 162.391 29.894 162.395 29.7193C162.429 28.5453 162.347 27.7009 162.151 27.1858C161.72 26.0519 160.912 25.2308 159.725 24.7226C159.716 24.7187 159.707 24.717 159.697 24.7179C159.687 24.7187 159.678 24.722 159.67 24.7274C159.662 24.7329 159.655 24.7403 159.65 24.749C159.645 24.7577 159.643 24.7675 159.643 24.7775V39.31C159.643 39.3251 159.64 39.34 159.634 39.354C159.628 39.3679 159.62 39.3805 159.609 39.3912C159.599 39.4018 159.586 39.4103 159.572 39.4161C159.558 39.4218 159.543 39.4248 159.528 39.4248H157.051C157.019 39.4248 156.988 39.412 156.965 39.3892C156.942 39.3664 156.929 39.3354 156.929 39.3032V24.798Z" fill="black"/>
<path d="M22.2104 27.5681C22.2697 29.9478 22.1886 31.5991 21.9672 32.5221C20.9573 36.736 18.3414 39.3529 14.1197 40.3727C11.7123 40.9568 8.75351 40.6573 6.47068 39.5218C1.60855 37.1026 -0.674282 32.1427 0.173626 26.824C0.699369 23.5272 2.27859 20.9835 4.91125 19.1928C10.0106 15.7211 18.6379 16.8507 21.1045 23.1625C21.1184 23.1968 21.1185 23.2352 21.1047 23.2699C21.091 23.3046 21.0644 23.333 21.0304 23.3493L17.1229 25.2349C17.1097 25.2413 17.0954 25.2451 17.0807 25.2459C17.066 25.2467 17.0513 25.2446 17.0375 25.2396C17.0237 25.2346 17.011 25.2269 17.0002 25.2169C16.9894 25.2069 16.9807 25.1949 16.9747 25.1815C16.1722 23.3711 14.9458 22.2326 13.2955 21.7662C11.5285 21.2701 9.84255 21.4381 8.23765 22.2702C5.33816 23.7762 4.34795 27.2183 4.80748 30.3994C5.29073 33.7229 7.70104 36.1895 11.1253 36.397C14.176 36.5808 17.4727 34.8495 17.5083 31.5023C17.5087 31.4783 17.5043 31.4545 17.4954 31.4322C17.4865 31.4099 17.4732 31.3896 17.4564 31.3725C17.4396 31.3554 17.4195 31.3418 17.3974 31.3325C17.3752 31.3233 17.3515 31.3185 17.3275 31.3185H11.6382C11.5863 31.3185 11.5365 31.2979 11.4998 31.2612C11.4631 31.2245 11.4425 31.1747 11.4425 31.1228V27.574C11.4425 27.5222 11.4631 27.4724 11.4998 27.4357C11.5365 27.399 11.5863 27.3784 11.6382 27.3784H22.0147C22.0656 27.3783 22.1145 27.3982 22.151 27.4336C22.1875 27.469 22.2088 27.5173 22.2104 27.5681Z" fill="black"/>
<path d="M83.4186 23.0587C83.9878 18.5524 88.592 16.7824 92.7367 17.3724C96.0828 17.8468 98.4467 19.6404 99.8283 22.7534C99.8487 22.8003 99.8503 22.8533 99.8326 22.9014C99.815 22.9495 99.7794 22.9888 99.7334 23.0113L96.2676 24.6775C96.2433 24.689 96.2169 24.6957 96.1901 24.697C96.1632 24.6984 96.1364 24.6944 96.1112 24.6852C96.0861 24.6761 96.0631 24.6621 96.0436 24.6439C96.0241 24.6258 96.0086 24.6039 95.9979 24.5796C95.0887 22.5498 93.5371 21.4706 91.3432 21.3422C87.8241 21.1376 86.49 25.0095 90.3293 26.225C92.5272 26.9227 94.0461 27.4159 94.8861 27.7044C97.7411 28.6887 99.8846 30.6603 99.8787 33.7969C99.8698 38.8666 95.0136 41.1257 90.5813 40.5772C86.745 40.1029 84.0856 38.0948 82.6033 34.5529C82.5832 34.5061 82.5821 34.4532 82.6003 34.4052C82.6185 34.3572 82.6546 34.3177 82.7011 34.295L86.2054 32.6021C86.2299 32.5905 86.2565 32.5838 86.2836 32.5824C86.3107 32.5811 86.3377 32.585 86.3631 32.5942C86.3885 32.6033 86.4118 32.6173 86.4315 32.6355C86.4513 32.6537 86.4671 32.6756 86.4782 32.7C87.3952 34.6804 88.8529 35.9187 90.8511 36.4148C92.4224 36.8091 94.6015 36.5185 95.1766 34.7842C95.5798 33.5597 94.8031 32.4243 93.6201 32.024C91.0725 31.1662 89.2936 30.5713 88.2837 30.2393C85.0225 29.1631 82.9828 26.5215 83.4186 23.0587Z" fill="black"/>
<path d="M116.786 30.2394C113.525 29.1661 111.485 26.5275 111.918 23.0647C112.484 18.5584 117.088 16.7855 121.233 17.3725C124.579 17.8449 126.943 19.6365 128.325 22.7475C128.345 22.7944 128.347 22.8475 128.329 22.8955C128.311 22.9436 128.276 22.983 128.23 23.0054L124.767 24.6746C124.743 24.6862 124.716 24.6928 124.69 24.6941C124.663 24.6955 124.636 24.6915 124.611 24.6823C124.586 24.6732 124.563 24.6592 124.543 24.641C124.524 24.6229 124.508 24.601 124.497 24.5767C123.586 22.5469 122.034 21.4687 119.84 21.3422C116.321 21.1406 114.989 25.0125 118.829 26.2251C121.029 26.9208 122.548 27.413 123.388 27.7016C126.244 28.6858 128.387 30.6544 128.384 33.7911C128.378 38.8607 123.522 41.1228 119.09 40.5773C115.253 40.1049 112.593 38.0978 111.109 34.556C111.089 34.5091 111.088 34.4562 111.106 34.4082C111.124 34.3602 111.16 34.3208 111.206 34.298L114.711 32.6052C114.735 32.5935 114.762 32.5869 114.789 32.5855C114.816 32.5841 114.843 32.5881 114.869 32.5972C114.894 32.6063 114.917 32.6203 114.937 32.6385C114.957 32.6567 114.972 32.6786 114.984 32.703C115.901 34.6815 117.358 35.9187 119.356 36.4148C120.931 36.8062 123.107 36.5157 123.682 34.7813C124.085 33.5569 123.308 32.4214 122.126 32.0211C119.576 31.1653 117.796 30.5714 116.786 30.2394Z" fill="black"/>
<path d="M25.1338 28.9526C25.1299 21.6377 25.1289 17.9041 25.1309 17.7519C25.1316 17.7123 25.1476 17.6746 25.1753 17.6469C25.203 17.6192 25.2403 17.6037 25.2791 17.6037L40.2539 17.5948C40.2877 17.5948 40.3201 17.6082 40.344 17.6321C40.3679 17.656 40.3814 17.6885 40.3814 17.7223L40.3843 21.5883C40.3847 21.6029 40.3822 21.6175 40.3769 21.6312C40.3715 21.6448 40.3635 21.6572 40.3533 21.6677C40.343 21.6782 40.3308 21.6866 40.3173 21.6923C40.3038 21.698 40.2893 21.7009 40.2746 21.7009L30.0227 21.7039C29.9987 21.7039 29.9749 21.7087 29.9528 21.7182C29.9306 21.7276 29.9106 21.7414 29.8937 21.7588C29.8769 21.7761 29.8636 21.7968 29.8547 21.8194C29.8458 21.8421 29.8414 21.8663 29.8418 21.8907L29.8448 26.7172C29.8448 26.7683 29.8647 26.8173 29.9003 26.8535C29.9359 26.8896 29.9842 26.9099 30.0345 26.9099L39.6491 26.904C39.6792 26.904 39.7082 26.9161 39.7298 26.9377C39.7514 26.9593 39.7639 26.9887 39.7647 27.0196C39.7746 27.5612 39.7795 28.2035 39.7795 28.9467C39.7795 29.6898 39.7746 30.3332 39.7647 30.8767C39.7632 30.9071 39.7503 30.9358 39.7288 30.9567C39.7073 30.9777 39.6788 30.9894 39.6491 30.9894L30.0375 30.9923C30.0126 30.9923 29.9879 30.9973 29.9649 31.007C29.9418 31.0167 29.9209 31.0309 29.9033 31.0488C29.8857 31.0667 29.8717 31.0879 29.8622 31.1113C29.8526 31.1347 29.8477 31.1597 29.8477 31.1851V36.0146C29.8477 36.0633 29.8668 36.1101 29.9007 36.1445C29.9346 36.179 29.9806 36.1984 30.0286 36.1984L40.2776 36.1954C40.3067 36.1954 40.3346 36.207 40.3552 36.2275C40.3757 36.2481 40.3873 36.276 40.3873 36.3051L40.3903 40.1741C40.3903 40.2079 40.3768 40.2403 40.3529 40.2642C40.329 40.2881 40.2966 40.3016 40.2628 40.3016H25.285C25.2467 40.3008 25.2102 40.2849 25.1832 40.2573C25.1561 40.2296 25.1405 40.1924 25.1398 40.1533C25.1378 40.0011 25.1358 36.2676 25.1338 28.9526Z" fill="black"/>
<path d="M56.8564 30.9595C56.8649 30.9712 56.8768 30.9798 56.8905 30.984C56.9043 30.9882 56.9191 30.9878 56.9328 30.9829C56.9466 30.978 56.9587 30.9688 56.9673 30.9566C56.976 30.9444 56.9807 30.9299 56.981 30.915L56.9839 17.7309C56.9839 17.715 56.9871 17.6992 56.9932 17.6844C56.9993 17.6697 57.0082 17.6563 57.0195 17.645C57.0308 17.6337 57.0442 17.6247 57.059 17.6186C57.0737 17.6125 57.0895 17.6094 57.1055 17.6094L61.5644 17.6183C61.5982 17.6183 61.6307 17.6317 61.6546 17.6556C61.6785 17.6795 61.6919 17.7119 61.6919 17.7458V40.1857C61.6919 40.2171 61.6797 40.2473 61.658 40.2695C61.6364 40.2918 61.6069 40.3043 61.5763 40.3043L58.2143 40.3072C58.1624 40.307 58.1113 40.2945 58.065 40.2708C58.0187 40.2472 57.9784 40.2129 57.9475 40.1709L47.9267 26.6281C47.9186 26.6171 47.9073 26.6092 47.8944 26.6053C47.8815 26.6014 47.8676 26.6018 47.8546 26.6063C47.8417 26.6109 47.8302 26.6194 47.8219 26.6307C47.8135 26.642 47.8088 26.6556 47.8081 26.6695L47.8052 40.1975C47.8052 40.2266 47.7933 40.2545 47.7722 40.2751C47.751 40.2957 47.7224 40.3072 47.6925 40.3072H43.2188C43.1857 40.3072 43.1541 40.2941 43.1307 40.2708C43.1073 40.2474 43.0942 40.2157 43.0942 40.1827V17.7458C43.0942 17.7096 43.1086 17.6749 43.1342 17.6493C43.1597 17.6238 43.1945 17.6094 43.2306 17.6094L46.5689 17.6183C46.6205 17.6182 46.6715 17.6302 46.7178 17.6533C46.7641 17.6765 46.8045 17.7102 46.8357 17.7517L56.8564 30.9595Z" fill="black"/>
<path d="M80.1989 28.9495C80.1989 29.6927 80.1939 30.336 80.184 30.8796C80.1825 30.91 80.1697 30.9386 80.1482 30.9596C80.1266 30.9806 80.0981 30.9922 80.0684 30.9922H70.4598C70.4348 30.9922 70.4102 30.9972 70.3871 31.0069C70.3641 31.0166 70.3432 31.0308 70.3256 31.0487C70.308 31.0666 70.294 31.0878 70.2845 31.1112C70.2749 31.1346 70.27 31.1596 70.27 31.1849V36.0115C70.27 36.0602 70.2891 36.107 70.323 36.1415C70.3569 36.1759 70.4029 36.1953 70.4509 36.1953H80.6969C80.726 36.1953 80.7539 36.2069 80.7745 36.2274C80.7951 36.248 80.8066 36.2759 80.8066 36.305V40.171C80.8066 40.2048 80.7932 40.2372 80.7693 40.2611C80.7454 40.285 80.713 40.2985 80.6791 40.2985H65.7103C65.6715 40.2985 65.6342 40.2829 65.6065 40.2552C65.5788 40.2275 65.5628 40.1898 65.562 40.1502C65.562 39.9961 65.5611 36.2635 65.5591 28.9525C65.5571 21.6415 65.5571 17.9099 65.5591 17.7577C65.5599 17.7182 65.5758 17.6805 65.6035 17.6527C65.6313 17.625 65.6685 17.6095 65.7073 17.6095L80.6762 17.6036C80.6929 17.6036 80.7095 17.6069 80.725 17.6133C80.7404 17.6197 80.7545 17.6291 80.7663 17.6409C80.7781 17.6527 80.7876 17.6668 80.794 17.6823C80.8004 17.6977 80.8037 17.7143 80.8037 17.7311V21.597C80.8037 21.6261 80.7921 21.654 80.7715 21.6746C80.7509 21.6952 80.7231 21.7067 80.694 21.7067L70.4479 21.7097C70.3999 21.7097 70.3539 21.7291 70.32 21.7635C70.2861 21.798 70.2671 21.8448 70.2671 21.8935L70.27 26.7201C70.27 26.7712 70.29 26.8202 70.3256 26.8563C70.3612 26.8925 70.4094 26.9128 70.4598 26.9128L80.0684 26.9098C80.0981 26.9098 80.1266 26.9215 80.1482 26.9424C80.1697 26.9634 80.1825 26.9921 80.184 27.0225C80.1939 27.566 80.1989 28.2084 80.1989 28.9495Z" fill="black"/>
<path d="M107.954 17.6213H103.507C103.422 17.6213 103.353 17.6903 103.353 17.7755V40.1532C103.353 40.2383 103.422 40.3073 103.507 40.3073H107.954C108.039 40.3073 108.108 40.2383 108.108 40.1532V17.7755C108.108 17.6903 108.039 17.6213 107.954 17.6213Z" fill="black"/>
<path d="M192.075 36.3925C194.229 36.3925 195.727 35.2147 196.451 33.1943C196.611 32.7433 196.683 31.872 196.668 30.5805C196.664 30.1394 196.665 25.8534 196.671 17.7223C196.671 17.6924 196.682 17.6638 196.703 17.6426C196.723 17.6215 196.751 17.6096 196.78 17.6096H201.236C201.272 17.6096 201.306 17.6237 201.331 17.6487C201.356 17.6737 201.37 17.7077 201.37 17.7431C201.366 22.0113 201.369 26.5802 201.379 31.4498C201.387 35.9237 199.289 38.8539 195.086 40.2404C194.283 40.5055 193.279 40.638 192.075 40.638C190.87 40.638 189.867 40.5055 189.064 40.2404C184.863 38.852 182.766 35.9207 182.774 31.4468C182.786 26.5773 182.791 22.0084 182.789 17.7401C182.789 17.7047 182.803 17.6708 182.828 17.6457C182.853 17.6207 182.887 17.6066 182.922 17.6066L187.378 17.6096C187.408 17.6096 187.435 17.6215 187.456 17.6426C187.477 17.6638 187.488 17.6924 187.488 17.7223C187.49 25.8534 187.489 30.1394 187.485 30.5805C187.469 31.872 187.542 32.7423 187.702 33.1913C188.423 35.2146 189.924 36.3925 192.075 36.3925Z" fill="black"/>
<path d="M211.49 17.6101C216.595 17.6022 219.208 17.6012 219.331 17.6071C219.36 17.6064 219.389 17.6114 219.417 17.6221C219.444 17.6328 219.469 17.6488 219.49 17.6693C219.511 17.6898 219.528 17.7142 219.539 17.7413C219.551 17.7683 219.556 17.7973 219.556 17.8267L219.571 21.5322C219.572 21.5531 219.568 21.5739 219.56 21.5933C219.552 21.6127 219.54 21.6304 219.525 21.6453C219.51 21.6602 219.493 21.6721 219.473 21.6802C219.453 21.6883 219.432 21.6924 219.411 21.6924H213.985C213.968 21.6924 213.952 21.6957 213.937 21.7019C213.922 21.7082 213.908 21.7174 213.897 21.7289C213.885 21.7405 213.876 21.7542 213.87 21.7694C213.863 21.7845 213.86 21.8007 213.86 21.8171V40.1875C213.86 40.219 213.848 40.2492 213.825 40.2715C213.803 40.2937 213.773 40.3062 213.741 40.3062C213.609 40.3062 212.87 40.3072 211.525 40.3092C210.18 40.3112 209.442 40.3131 209.309 40.3151C209.293 40.3151 209.278 40.312 209.263 40.3058C209.248 40.2997 209.235 40.2907 209.224 40.2793C209.213 40.268 209.204 40.2545 209.199 40.2398C209.193 40.2251 209.19 40.2093 209.19 40.1935L209.134 21.823C209.134 21.8066 209.13 21.7905 209.123 21.7755C209.117 21.7605 209.107 21.747 209.095 21.7357C209.084 21.7244 209.07 21.7156 209.054 21.7097C209.039 21.7038 209.023 21.7009 209.006 21.7013L203.58 21.7162C203.559 21.7162 203.538 21.712 203.518 21.7039C203.499 21.6958 203.481 21.684 203.466 21.6691C203.451 21.6542 203.439 21.6365 203.431 21.617C203.423 21.5976 203.42 21.5769 203.42 21.556L203.423 17.8504C203.423 17.8211 203.429 17.792 203.44 17.765C203.452 17.738 203.468 17.7135 203.489 17.6931C203.51 17.6726 203.535 17.6565 203.563 17.6459C203.59 17.6352 203.619 17.6301 203.648 17.6309C203.771 17.6249 206.385 17.618 211.49 17.6101Z" fill="black"/>
<path d="M226.558 17.6191H222.066C222.004 17.6191 221.954 17.6696 221.954 17.7318V40.1906C221.954 40.2529 222.004 40.3033 222.066 40.3033H226.558C226.62 40.3033 226.671 40.2529 226.671 40.1906V17.7318C226.671 17.6696 226.62 17.6191 226.558 17.6191Z" fill="black"/>
<path d="M230.635 40.1876V17.7318C230.635 17.7011 230.647 17.6717 230.669 17.65C230.691 17.6283 230.72 17.6161 230.751 17.6161H235.237C235.267 17.6161 235.297 17.6283 235.319 17.65C235.34 17.6717 235.352 17.7011 235.352 17.7318V36.0875C235.352 36.1181 235.365 36.1476 235.386 36.1693C235.408 36.191 235.437 36.2032 235.468 36.2032H244.843C244.874 36.2032 244.903 36.2154 244.925 36.2371C244.947 36.2588 244.959 36.2882 244.959 36.3189V40.1876C244.959 40.2183 244.947 40.2477 244.925 40.2694C244.903 40.2911 244.874 40.3033 244.843 40.3033H230.751C230.72 40.3033 230.691 40.2911 230.669 40.2694C230.647 40.2477 230.635 40.2183 230.635 40.1876Z" fill="black"/>
<path d="M251.962 17.6066H247.511C247.439 17.6066 247.381 17.6651 247.381 17.7372V40.1722C247.381 40.2443 247.439 40.3027 247.511 40.3027H251.962C252.034 40.3027 252.092 40.2443 252.092 40.1722V17.7372C252.092 17.6651 252.034 17.6066 251.962 17.6066Z" fill="black"/>
<path d="M262.532 40.3002C261.187 40.3042 260.448 40.3062 260.316 40.3062C260.285 40.3062 260.254 40.2936 260.232 40.2714C260.21 40.2491 260.197 40.219 260.197 40.1875L260.132 21.8229C260.131 21.7904 260.118 21.7594 260.095 21.7367C260.071 21.714 260.04 21.7013 260.007 21.7013L254.584 21.7191C254.563 21.7195 254.541 21.7156 254.521 21.7077C254.501 21.6998 254.483 21.688 254.468 21.673C254.453 21.658 254.441 21.6402 254.433 21.6206C254.424 21.601 254.421 21.58 254.421 21.5589L254.424 17.8563C254.423 17.8267 254.429 17.7973 254.44 17.77C254.452 17.7426 254.468 17.7177 254.489 17.697C254.51 17.6762 254.535 17.6599 254.563 17.649C254.59 17.6382 254.62 17.633 254.649 17.6338C254.77 17.6278 257.382 17.6199 262.485 17.61C267.59 17.6002 270.202 17.5982 270.323 17.6041C270.352 17.6033 270.382 17.6084 270.409 17.6191C270.436 17.6298 270.461 17.6458 270.482 17.6663C270.503 17.6867 270.52 17.7112 270.531 17.7382C270.543 17.7653 270.549 17.7943 270.549 17.8236L270.566 21.5262C270.567 21.5471 270.563 21.5679 270.555 21.5873C270.547 21.6067 270.535 21.6244 270.52 21.6393C270.506 21.6542 270.488 21.6661 270.468 21.6742C270.448 21.6823 270.427 21.6864 270.406 21.6864L264.983 21.6894C264.95 21.6894 264.918 21.7025 264.895 21.7259C264.871 21.7493 264.858 21.781 264.858 21.814L264.867 40.1786C264.867 40.1944 264.864 40.2101 264.858 40.2247C264.852 40.2393 264.843 40.2525 264.831 40.2636C264.82 40.2746 264.807 40.2833 264.792 40.2891C264.777 40.2949 264.761 40.2976 264.745 40.2973C264.613 40.2973 263.875 40.2982 262.532 40.3002Z" fill="black"/>
<path d="M281.197 25.4159C281.247 25.4159 281.28 25.401 281.298 25.3713C282.987 22.3966 284.428 19.8541 285.621 17.7437C285.643 17.7049 285.674 17.6726 285.712 17.6502C285.75 17.6277 285.793 17.616 285.837 17.6161H290.851C290.874 17.6161 290.896 17.622 290.916 17.6333C290.935 17.6447 290.951 17.661 290.962 17.6806C290.974 17.7002 290.979 17.7224 290.979 17.7449C290.979 17.7675 290.973 17.7896 290.961 17.8089L283.642 30.2191C283.588 30.3104 283.559 30.4149 283.559 30.5217V40.1401C283.559 40.1622 283.555 40.1841 283.546 40.2044C283.537 40.2248 283.525 40.2432 283.509 40.2587C283.493 40.2741 283.475 40.2863 283.454 40.2945C283.434 40.3027 283.412 40.3067 283.39 40.3063C283.315 40.3043 282.586 40.3043 281.203 40.3063C279.823 40.3063 279.095 40.3073 279.02 40.3092C278.997 40.31 278.975 40.3063 278.954 40.2983C278.933 40.2903 278.914 40.2782 278.898 40.2627C278.882 40.2472 278.87 40.2286 278.861 40.2081C278.852 40.1875 278.848 40.1654 278.848 40.1431L278.842 30.5247C278.842 30.4179 278.813 30.3133 278.759 30.2221L271.428 17.8178C271.416 17.7985 271.41 17.7764 271.41 17.7538C271.409 17.7313 271.415 17.7091 271.426 17.6895C271.438 17.6699 271.454 17.6536 271.473 17.6422C271.493 17.6309 271.515 17.625 271.537 17.625L276.551 17.6191C276.595 17.6189 276.639 17.6307 276.677 17.6531C276.715 17.6756 276.746 17.7078 276.768 17.7466C277.963 19.857 279.406 22.3986 281.099 25.3713C281.117 25.401 281.15 25.4159 281.197 25.4159Z" fill="black"/>
<path d="M2.53893 68.3881V47.1196H7.46109V68.3881H2.53893ZM12.5086 68.3881V47.1196H16.58L29.1284 62.4329H27.1535V47.1196H32.0149V68.3881H27.9739L15.395 53.0748H17.37V68.3881H12.5086ZM41.6045 56.6904H51.8134V60.6403H41.6045V56.6904ZM41.9691 68.3881H37.0469V47.1196H53.1199V51.0694H41.9691V68.3881ZM56.4521 68.3881V47.1196H65.6584C67.5624 47.1196 69.2031 47.4335 70.5805 48.0615C71.9579 48.6691 73.0214 49.5503 73.7708 50.7048C74.5203 51.8594 74.895 53.2368 74.895 54.837C74.895 56.417 74.5203 57.7842 73.7708 58.9388C73.0214 60.0731 71.9579 60.9441 70.5805 61.5518C69.2031 62.1595 67.5624 62.4633 65.6584 62.4633H59.1867L61.3743 60.3061V68.3881H56.4521ZM69.9729 68.3881L64.6557 60.6707H69.9121L75.29 68.3881H69.9729ZM61.3743 60.853L59.1867 58.5438H65.3849C66.9041 58.5438 68.0384 58.2197 68.7879 57.5715C69.5374 56.9031 69.9121 55.9916 69.9121 54.837C69.9121 53.6622 69.5374 52.7507 68.7879 52.1025C68.0384 51.4543 66.9041 51.1302 65.3849 51.1302H59.1867L61.3743 48.7907V60.853ZM75.9995 68.3881L85.4792 47.1196H90.3406L99.8507 68.3881H94.6855L86.9072 49.611H88.8518L81.0432 68.3881H75.9995ZM80.7394 63.8306L82.0459 60.0934H92.984L94.3209 63.8306H80.7394ZM109.046 68.7527C107.344 68.7527 105.713 68.5299 104.154 68.0843C102.594 67.6184 101.338 67.0209 100.386 66.2916L102.057 62.5848C102.969 63.233 104.042 63.7698 105.278 64.1952C106.534 64.6003 107.8 64.8029 109.076 64.8029C110.048 64.8029 110.828 64.7117 111.415 64.5294C112.023 64.3268 112.469 64.0534 112.752 63.709C113.036 63.3647 113.178 62.9697 113.178 62.5241C113.178 61.9569 112.955 61.5113 112.509 61.1872C112.064 60.8428 111.476 60.5694 110.747 60.3668C110.018 60.144 109.208 59.9415 108.316 59.7592C107.445 59.5566 106.564 59.3135 105.673 59.03C104.802 58.7464 104.002 58.3818 103.273 57.9361C102.543 57.4905 101.946 56.9031 101.48 56.1739C101.034 55.4447 100.812 54.5129 100.812 53.3786C100.812 52.1632 101.136 51.0593 101.784 50.0668C102.452 49.054 103.445 48.2539 104.761 47.6665C106.098 47.0588 107.769 46.755 109.775 46.755C111.112 46.755 112.428 46.917 113.725 47.2411C115.021 47.5449 116.165 48.0108 117.158 48.6387L115.639 52.3759C114.646 51.8088 113.654 51.3935 112.661 51.1302C111.669 50.8466 110.696 50.7048 109.744 50.7048C108.792 50.7048 108.012 50.8162 107.405 51.039C106.797 51.2619 106.362 51.5556 106.098 51.9202C105.835 52.2645 105.703 52.6696 105.703 53.1355C105.703 53.6824 105.926 54.1281 106.372 54.4724C106.817 54.7965 107.405 55.0598 108.134 55.2624C108.863 55.4649 109.663 55.6675 110.534 55.8701C111.426 56.0726 112.307 56.3056 113.178 56.5689C114.069 56.8322 114.879 57.1867 115.608 57.6323C116.338 58.0779 116.925 58.6653 117.371 59.3946C117.837 60.1238 118.069 61.0454 118.069 62.1595C118.069 63.3546 117.735 64.4484 117.067 65.4409C116.398 66.4334 115.396 67.2335 114.059 67.8412C112.742 68.4489 111.071 68.7527 109.046 68.7527ZM125.542 68.3881V51.1302H118.736V47.1196H137.27V51.1302H130.464V68.3881H125.542ZM139.918 68.3881V47.1196H149.124C151.028 47.1196 152.669 47.4335 154.047 48.0615C155.424 48.6691 156.487 49.5503 157.237 50.7048C157.986 51.8594 158.361 53.2368 158.361 54.837C158.361 56.417 157.986 57.7842 157.237 58.9388C156.487 60.0731 155.424 60.9441 154.047 61.5518C152.669 62.1595 151.028 62.4633 149.124 62.4633H142.653L144.84 60.3061V68.3881H139.918ZM153.439 68.3881L148.122 60.6707H153.378L158.756 68.3881H153.439ZM144.84 60.853L142.653 58.5438H148.851C150.37 58.5438 151.504 58.2197 152.254 57.5715C153.003 56.9031 153.378 55.9916 153.378 54.837C153.378 53.6622 153.003 52.7507 152.254 52.1025C151.504 51.4543 150.37 51.1302 148.851 51.1302H142.653L144.84 48.7907V60.853ZM171.71 68.7527C168.692 68.7527 166.332 67.9121 164.631 66.2309C162.929 64.5497 162.079 62.1493 162.079 59.03V47.1196H167.001V58.8477C167.001 60.8732 167.416 62.3316 168.246 63.2229C169.077 64.1142 170.242 64.5598 171.741 64.5598C173.24 64.5598 174.404 64.1142 175.235 63.2229C176.065 62.3316 176.48 60.8732 176.48 58.8477V47.1196H181.342V59.03C181.342 62.1493 180.491 64.5497 178.79 66.2309C177.088 67.9121 174.728 68.7527 171.71 68.7527ZM196.384 68.7527C194.744 68.7527 193.214 68.4894 191.796 67.9628C190.399 67.4158 189.183 66.6461 188.15 65.6536C187.117 64.6611 186.307 63.4964 185.72 62.1595C185.153 60.8226 184.869 59.354 184.869 57.7538C184.869 56.1536 185.153 54.6851 185.72 53.3482C186.307 52.0113 187.117 50.8466 188.15 49.8541C189.204 48.8616 190.429 48.102 191.827 47.5753C193.224 47.0284 194.754 46.755 196.415 46.755C198.258 46.755 199.919 47.079 201.398 47.7272C202.897 48.3552 204.152 49.2869 205.165 50.5225L202.005 53.4394C201.276 52.6089 200.466 51.9911 199.575 51.586C198.683 51.1606 197.711 50.9479 196.658 50.9479C195.665 50.9479 194.754 51.1099 193.923 51.434C193.093 51.7581 192.374 52.224 191.766 52.8317C191.158 53.4394 190.682 54.1584 190.338 54.9889C190.014 55.8194 189.852 56.7411 189.852 57.7538C189.852 58.7666 190.014 59.6883 190.338 60.5188C190.682 61.3492 191.158 62.0683 191.766 62.676C192.374 63.2837 193.093 63.7495 193.923 64.0736C194.754 64.3977 195.665 64.5598 196.658 64.5598C197.711 64.5598 198.683 64.3572 199.575 63.9521C200.466 63.5267 201.276 62.8887 202.005 62.0379L205.165 64.9548C204.152 66.1904 202.897 67.1323 201.398 67.7804C199.919 68.4286 198.248 68.7527 196.384 68.7527ZM212.687 68.3881V51.1302H205.881V47.1196H224.415V51.1302H217.609V68.3881H212.687ZM236.157 68.7527C233.139 68.7527 230.779 67.9121 229.077 66.2309C227.376 64.5497 226.525 62.1493 226.525 59.03V47.1196H231.447V58.8477C231.447 60.8732 231.863 62.3316 232.693 63.2229C233.524 64.1142 234.688 64.5598 236.187 64.5598C237.686 64.5598 238.851 64.1142 239.681 63.2229C240.512 62.3316 240.927 60.8732 240.927 58.8477V47.1196H245.788V59.03C245.788 62.1493 244.938 64.5497 243.236 66.2309C241.535 67.9121 239.175 68.7527 236.157 68.7527ZM250.652 68.3881V47.1196H259.859C261.763 47.1196 263.403 47.4335 264.781 48.0615C266.158 48.6691 267.222 49.5503 267.971 50.7048C268.721 51.8594 269.095 53.2368 269.095 54.837C269.095 56.417 268.721 57.7842 267.971 58.9388C267.222 60.0731 266.158 60.9441 264.781 61.5518C263.403 62.1595 261.763 62.4633 259.859 62.4633H253.387L255.575 60.3061V68.3881H250.652ZM264.173 68.3881L258.856 60.6707H264.112L269.49 68.3881H264.173ZM255.575 60.853L253.387 58.5438H259.585C261.104 58.5438 262.239 58.2197 262.988 57.5715C263.738 56.9031 264.112 55.9916 264.112 54.837C264.112 53.6622 263.738 52.7507 262.988 52.1025C262.239 51.4543 261.104 51.1302 259.585 51.1302H253.387L255.575 48.7907V60.853ZM277.522 55.6878H287.762V59.5161H277.522V55.6878ZM277.887 64.4382H289.463V68.3881H272.995V47.1196H289.068V51.0694H277.887V64.4382Z" fill="black"/>
</svg>
