<svg width="180" height="75" viewBox="0 0 180 75" fill="none" xmlns="http://www.w3.org/2000/svg">
<path d="M63.7344 15.3785H69.7831V37.2942H63.7344V15.3785Z" fill="black"/>
<path d="M78.1309 33.0864V28.2065H93.2381V33.0864H78.1309ZM89.7901 15.3785L99.7544 37.2942H93.2966L84.9394 17.95H86.6926L78.3062 37.2942H71.8484L81.8127 15.3785H89.7901Z" fill="black"/>
<path d="M122.138 33.0572L120.268 33.4371V15.3785H126.142V37.2942H118.515L105.862 19.2649L107.703 18.8851V37.2942H101.83V15.3785H109.661L122.138 33.0572Z" fill="black"/>
<path d="M154.564 28.1189C154.35 30.0474 153.688 31.7422 152.577 33.2033C151.467 34.6449 150.006 35.765 148.194 36.5637C146.402 37.3624 144.337 37.7618 141.999 37.7618C139.447 37.7618 137.217 37.2845 135.308 36.3299C133.399 35.3754 131.908 34.041 130.837 32.3267C129.785 30.6124 129.259 28.6156 129.259 26.3364C129.259 24.0572 129.785 22.0604 130.837 20.3461C131.908 18.6318 133.399 17.2974 135.308 16.3428C137.217 15.3883 139.447 14.911 141.999 14.911C144.337 14.911 146.402 15.3104 148.194 16.1091C150.006 16.9078 151.467 18.0376 152.577 19.4987C153.688 20.9403 154.35 22.6253 154.564 24.5539H148.486C148.292 23.6188 147.912 22.8299 147.347 22.187C146.782 21.5247 146.042 21.0182 145.126 20.6675C144.23 20.3169 143.188 20.1416 141.999 20.1416C140.636 20.1416 139.457 20.3948 138.464 20.9013C137.47 21.3883 136.71 22.0994 136.184 23.0344C135.658 23.95 135.395 25.0507 135.395 26.3364C135.395 27.6221 135.658 28.7325 136.184 29.6676C136.71 30.5832 137.47 31.2942 138.464 31.8007C139.457 32.2877 140.636 32.5312 141.999 32.5312C143.188 32.5312 144.23 32.3656 145.126 32.0345C146.042 31.7033 146.782 31.2065 147.347 30.5442C147.912 29.8819 148.292 29.0734 148.486 28.1189H154.564Z" fill="black"/>
<path d="M163.26 27.5052C163.26 28.4987 163.445 29.3656 163.815 30.1059C164.205 30.8267 164.77 31.3819 165.51 31.7715C166.27 32.1611 167.195 32.3559 168.286 32.3559C169.397 32.3559 170.322 32.1611 171.062 31.7715C171.803 31.3819 172.358 30.8267 172.728 30.1059C173.098 29.3656 173.283 28.4987 173.283 27.5052V15.3785H179.361V27.7974C179.361 29.8039 178.893 31.5572 177.958 33.0572C177.043 34.5377 175.757 35.6968 174.101 36.5345C172.445 37.3527 170.507 37.7618 168.286 37.7618C166.085 37.7618 164.147 37.3527 162.471 36.5345C160.815 35.6968 159.52 34.5377 158.585 33.0572C157.669 31.5572 157.212 29.8039 157.212 27.7974V15.3785H163.26V27.5052Z" fill="black"/>
<path d="M63.7344 48.2519H69.7831V70.1676H63.7344V48.2519ZM80.9747 48.2519H87.0526V70.1676H80.9747V48.2519ZM67.124 56.3461H83.4877V61.7227H67.124V56.3461Z" fill="black"/>
<path d="M104.132 67.45H101.56L110.005 48.2519H116.404L106.206 70.1676H99.3393L89.1413 48.2519H95.6283L104.132 67.45Z" fill="black"/>
<path d="M118.995 65.9598V61.0799H134.102V65.9598H118.995ZM130.654 48.2519L140.618 70.1676H134.16L125.803 50.8233H127.556L119.17 70.1676H112.712L122.676 48.2519H130.654Z" fill="black"/>
<path d="M165.722 60.9922C165.508 62.9208 164.845 64.6156 163.735 66.0766C162.624 67.5182 161.163 68.6383 159.352 69.437C157.56 70.2358 155.495 70.6351 153.157 70.6351C150.605 70.6351 148.374 70.1578 146.465 69.2033C144.556 68.2487 143.066 66.9143 141.995 65.2C140.943 63.4857 140.417 61.489 140.417 59.2097C140.417 56.9305 140.943 54.9337 141.995 53.2194C143.066 51.5052 144.556 50.1707 146.465 49.2162C148.374 48.2616 150.605 47.7844 153.157 47.7844C155.495 47.7844 157.56 48.1837 159.352 48.9824C161.163 49.7811 162.624 50.911 163.735 52.372C164.845 53.8136 165.508 55.4987 165.722 57.4273H159.644C159.449 56.4922 159.069 55.7032 158.504 55.0604C157.939 54.398 157.199 53.8915 156.284 53.5409C155.387 53.1902 154.345 53.0149 153.157 53.0149C151.793 53.0149 150.615 53.2682 149.621 53.7746C148.628 54.2617 147.868 54.9727 147.342 55.9078C146.816 56.8234 146.553 57.924 146.553 59.2097C146.553 60.4955 146.816 61.6058 147.342 62.5409C147.868 63.4565 148.628 64.1675 149.621 64.674C150.615 65.1611 151.793 65.4046 153.157 65.4046C154.345 65.4046 155.387 65.239 156.284 64.9078C157.199 64.5766 157.939 64.0799 158.504 63.4175C159.069 62.7552 159.449 61.9468 159.644 60.9922H165.722Z" fill="black"/>
<path d="M9.96026 19.8357C17.5847 12.0182 20.4063 4.49922 19.5847 0C24.027 4.71034 31.3202 19.5651 28.8181 29.4466C33.8882 25.6628 33.4043 18.4094 38.7749 16.1977C39.1053 19.373 41.5478 22.3555 43.9275 26.0924C45.1459 28.0057 46.5197 30.163 47.8711 32.7465C49.9625 36.7448 49.5322 40.1262 49.0257 42.4883C48.7909 34.3897 47.4216 33.0986 46.3261 32.7465C46.5404 34.7524 44.0152 37.9992 42.6913 39.2192C42.8635 38.9217 43.0332 38.6017 43.196 38.2629C43.2186 38.2088 43.2401 38.1551 43.2604 38.1017C44.212 35.6016 42.9077 34.2136 41.9834 33.8028C36.0679 41.4085 23.5562 42.3709 18.1571 41.5493C10.7628 40.1408 4.18998 41.4711 2.19467 42.6056C2.18822 42.1414 2.17486 41.6563 2.16097 41.1519C2.00628 35.5347 1.45212 28.5593 9.96026 19.8357Z" fill="black"/>
<path d="M36.0271 3.18203C34.9237 4.29534 32.926 7.30572 33.7621 10.4408C34.5982 13.5758 37.2688 12.0328 37.5454 11.5387C38.2815 10.6521 38.7069 7.76553 36.0271 3.18203Z" fill="black"/>
<path d="M23.4466 51.1142C11.0006 51.1142 19.2897 66.4319 25.7203 75C11.8783 64.0672 4.8622 58.3538 1.29889 53.169C-1.1544 48.7871 -1.82349 40.4929 15.1266 42.3709C32.0766 44.2488 40.2543 38.4585 42.2243 35.3286C42.8488 36.5493 41.9641 39.3583 41.4437 40.6103C43.7632 40.7042 45.9761 36.8544 46.831 34.7418C48.0573 38.5759 48.9809 46.2161 45.0704 46.7136L45.0093 46.7214C44.2029 46.824 43.7416 46.8828 42.9222 46.8791C41.8989 48.2776 41.0375 49.4008 39.7468 50.1506C36.0144 52.3186 31.7557 51.8821 26.3184 51.3729C25.3091 51.2784 24.3399 51.1877 23.4466 51.1142Z" fill="black"/>
<path d="M20.347 55.3991H29.7367L33.7273 52.8807C32.4384 52.961 31.8769 52.8807 31.6355 52.8807C29.8358 52.7634 26.7085 52.4883 23.516 52.1128C20.3235 51.7372 18.7429 53.6386 18.3517 54.6362L20.347 55.3991Z" fill="black"/>
<path d="M33.7273 61.8545L29.7367 62.324L31.7158 64.2025H37.1649L38.3804 62.324L33.7273 61.8545Z" fill="black"/>
<path d="M33.7273 52.8807V61.8545L38.3804 62.324V55.047L33.7273 52.8807Z" fill="black"/>
<path d="M33.7273 52.8807L29.7367 55.3991V62.324L33.7273 61.8545V52.8807Z" fill="black"/>
<path d="M31.7158 69.1006V64.2025L29.7367 62.324V68.3099L31.7158 69.1006Z" fill="black"/>
<path d="M20.6991 62.324L20.347 55.3991L18.3517 54.6362C18.1561 55.2426 17.8118 55.493 17.9996 56.8076C18.1874 58.1221 18.5865 60.3287 18.9386 61.1503L20.6991 62.324Z" fill="black"/>
<path d="M49.7825 52.1128L46.1686 55.047V62.324L49.7825 52.1128Z" fill="black"/>
<path d="M22.4857 68.1821L20.6991 62.324L18.9386 61.1503L22.4857 68.1821Z" fill="black"/>
<path d="M46.1686 55.047H38.3804V62.324H46.1686V55.047Z" fill="black"/>
<path d="M29.7367 55.3991H20.347L20.6991 62.324H29.7367V55.3991Z" fill="black"/>
<path d="M31.7158 69.1006H34.4403H37.1649V64.2025H31.7158V69.1006Z" fill="black"/>
<path d="M23.3275 69.5048L23.9287 70.3051L30.441 70.3051L29.7367 68.3099L22.4857 68.1821L23.3275 69.5048Z" fill="black"/>
<path d="M38.3804 55.047H46.1686L49.7825 52.1128L48.9855 44.4836H48.8681L48.2813 45.8921C47.8118 47.3005 45.1514 47.8092 43.8212 47.77C42.9806 48.7201 42.8823 49.0611 41.8259 50.0001C40.2296 51.7841 35.7617 52.6639 33.7273 52.8807L38.3804 55.047Z" fill="black"/>
<path d="M38.3804 62.324L37.1649 64.2025V69.1006L38.3804 67.0189V62.324Z" fill="black"/>
<path d="M23.9287 70.3051L26.6945 74.7214L30.441 74.7214V73.8381V70.3051L23.9287 70.3051Z" fill="black"/>
<path d="M31.7158 69.1006L29.7367 68.3099L30.441 70.3051V73.8381H34.4403V69.1006H31.7158Z" fill="black"/>
<path d="M29.7367 62.324H20.6991L22.4857 68.1821L29.7367 68.3099V62.324Z" fill="black"/>
<path d="M20.347 55.3991H29.7367M20.347 55.3991L20.6991 62.324M20.347 55.3991L18.3517 54.6362M29.7367 55.3991L33.7273 52.8807M29.7367 55.3991V62.324M33.7273 52.8807V61.8545M33.7273 52.8807L38.3804 55.047M33.7273 52.8807C32.4384 52.961 31.8769 52.8807 31.6355 52.8807C29.8358 52.7634 26.7085 52.4883 23.516 52.1128C20.3235 51.7372 18.7429 53.6386 18.3517 54.6362M33.7273 52.8807C35.7617 52.6639 40.2296 51.7841 41.8259 50.0001C42.8823 49.0611 42.9806 48.7201 43.8212 47.77C45.1514 47.8092 47.8118 47.3005 48.2813 45.8921L48.8681 44.4836H48.9855L49.7825 52.1128M38.3804 55.047H46.1686M38.3804 55.047V62.324M46.1686 55.047L49.7825 52.1128M46.1686 55.047V62.324M49.7825 52.1128L46.1686 62.324M20.6991 62.324H29.7367M20.6991 62.324L18.9386 61.1503M20.6991 62.324L22.4857 68.1821M29.7367 62.324L33.7273 61.8545M29.7367 62.324L31.7158 64.2025M29.7367 62.324V68.3099M33.7273 61.8545L38.3804 62.324M38.3804 62.324H46.1686M38.3804 62.324L37.1649 64.2025M38.3804 62.324V67.0189L37.1649 69.1006M37.1649 69.1006V64.2025M37.1649 69.1006H34.4403M31.7158 69.1006V64.2025M31.7158 69.1006L29.7367 68.3099M31.7158 69.1006H34.4403M37.1649 64.2025H31.7158M29.7367 68.3099L22.4857 68.1821M29.7367 68.3099L30.441 70.3051M22.4857 68.1821L23.3275 69.5048L23.9287 70.3051M22.4857 68.1821L18.9386 61.1503M23.9287 70.3051L26.6945 74.7214L30.441 74.7214V73.8381M23.9287 70.3051L30.441 70.3051M18.3517 54.6362C18.1561 55.2426 17.8118 55.493 17.9996 56.8076C18.1874 58.1221 18.5865 60.3287 18.9386 61.1503M30.441 70.3051V73.8381M34.4403 69.1006V73.8381H30.441" stroke="white" stroke-width="0.360752"/>
</svg>
