<svg width="125" height="89" viewBox="0 0 125 89" fill="none" xmlns="http://www.w3.org/2000/svg">
<circle cx="6.14622" cy="24.8304" r="4.91698" stroke="black" stroke-width="2.45849"/>
<circle cx="42.4089" cy="41.7325" r="4.91698" stroke="black" stroke-width="2.45849"/>
<path d="M12.1387 24.8817H24.2346H46.9822L56.9538 2.08942C62.2561 7.07522 72.6234 18.6138 71.6738 24.8817L76.4222 20.1333L79.1636 24.8817L81.6454 22.3999L83.0782 24.8817H101.589L124 51.1098" stroke="black" stroke-width="2.45849"/>
<path d="M89.5814 43.5764L105.408 46.0349L98.6471 39.4277L84.9717 36.9692L89.5814 43.5764ZM89.5814 43.5764L75.4451 47.7251V42.0398H47.7871" stroke="black" stroke-width="2.45849"/>
<path d="M10.8827 80.4108C8.93169 80.4108 7.04714 80.1891 5.22911 79.7457C3.41108 79.3023 1.91453 78.7258 0.739465 78.0164L3.26697 72.2962C4.37553 72.9392 5.60602 73.4602 6.95846 73.8593C8.33307 74.2362 9.66333 74.4246 10.9493 74.4246C11.7031 74.4246 12.2906 74.3803 12.7119 74.2916C13.1553 74.1808 13.4768 74.0366 13.6763 73.8593C13.8758 73.6597 13.9756 73.4269 13.9756 73.1609C13.9756 72.7396 13.7428 72.4071 13.2772 72.1632C12.8116 71.9193 12.1908 71.7198 11.4149 71.5646C10.661 71.3872 9.82962 71.2098 8.9206 71.0325C8.01159 70.8329 7.09149 70.5779 6.1603 70.2676C5.25128 69.9572 4.40878 69.547 3.63279 69.0371C2.87898 68.5271 2.26927 67.862 1.80368 67.0417C1.33809 66.1992 1.10529 65.1571 1.10529 63.9155C1.10529 62.4744 1.50437 61.1663 2.30253 59.9912C3.12286 58.794 4.33118 57.8407 5.9275 57.1312C7.54599 56.4217 9.55248 56.067 11.947 56.067C13.5211 56.067 15.0731 56.2332 16.6029 56.5658C18.1327 56.8984 19.5073 57.4083 20.7267 58.0956L18.3655 63.7825C17.2126 63.2061 16.093 62.7737 15.0066 62.4855C13.9424 62.1973 12.9003 62.0532 11.8804 62.0532C11.1266 62.0532 10.528 62.1197 10.0846 62.2527C9.64116 62.3857 9.31968 62.5631 9.12014 62.7848C8.94277 63.0065 8.85409 63.2504 8.85409 63.5165C8.85409 63.9155 9.08688 64.237 9.55248 64.4809C10.0181 64.7026 10.6278 64.8911 11.3816 65.0463C12.1576 65.2015 13.0001 65.3677 13.9091 65.5451C14.8403 65.7225 15.7604 65.9664 16.6694 66.2768C17.5784 66.5871 18.4098 66.9973 19.1636 67.5072C19.9396 68.0172 20.5604 68.6823 21.026 69.5026C21.4916 70.323 21.7244 71.3428 21.7244 72.5623C21.7244 73.9812 21.3142 75.2893 20.4939 76.4865C19.6958 77.6616 18.4985 78.615 16.9022 79.3466C15.3059 80.0561 13.2994 80.4108 10.8827 80.4108ZM38.4933 56.5991H46.3419V79.8787H38.4933V56.5991ZM31.2433 79.8787H23.3948V56.5991H31.2433V79.8787ZM39.0254 71.2985H30.7112V64.8467H39.0254V71.2985ZM47.596 79.8787L57.7725 56.5991H65.4881L75.6646 79.8787H67.55L60.034 60.3238H63.0936L55.5776 79.8787H47.596ZM53.6487 75.8214L55.6441 70.1678H66.3528L68.3482 75.8214H53.6487ZM76.9172 79.8787V56.5991H88.1247C90.2975 56.5991 92.1709 56.9538 93.7451 57.6633C95.3414 58.3728 96.5719 59.3926 97.4366 60.7229C98.3012 62.031 98.7336 63.583 98.7336 65.3788C98.7336 67.1747 98.3012 68.7267 97.4366 70.0348C96.5719 71.3207 95.3414 72.3073 93.7451 72.9946C92.1709 73.6819 90.2975 74.0256 88.1247 74.0256H81.2738L84.7658 70.7997V79.8787H76.9172ZM90.8517 79.8787L85.1316 71.3983H93.4458L99.2324 79.8787H90.8517ZM84.7658 71.6643L81.2738 68.1059H87.6258C88.7122 68.1059 89.5104 67.862 90.0203 67.3742C90.5524 66.8865 90.8185 66.2213 90.8185 65.3788C90.8185 64.5363 90.5524 63.8712 90.0203 63.3834C89.5104 62.8957 88.7122 62.6518 87.6258 62.6518H81.2738L84.7658 59.0933V71.6643ZM107.384 74.8902L106.952 66.2768L115.732 56.5991H124.279L114.435 67.4407L110.078 71.8971L107.384 74.8902ZM100.367 79.8787V56.5991H108.083V79.8787H100.367ZM115.665 79.8787L108.814 70.8329L113.902 65.4453L124.744 79.8787H115.665Z" fill="black"/>
</svg>
