<svg width="284" height="60" viewBox="0 0 284 60" fill="none" xmlns="http://www.w3.org/2000/svg">
<circle cx="6.14622" cy="24.8304" r="4.91698" stroke="black" stroke-width="2.45849"/>
<circle cx="42.4089" cy="41.7325" r="4.91698" stroke="black" stroke-width="2.45849"/>
<path d="M12.1387 24.8817H24.2346H46.9822L56.9538 2.08942C62.2561 7.07522 72.6234 18.6138 71.6738 24.8817L76.4222 20.1333L79.1636 24.8817L81.6454 22.3999L83.0782 24.8817H101.589L124 51.1098" stroke="black" stroke-width="2.45849"/>
<path d="M89.5814 43.5764L105.408 46.0349L98.6471 39.4277L84.9717 36.9692L89.5814 43.5764ZM89.5814 43.5764L75.4451 47.7251V42.0398H47.7871" stroke="black" stroke-width="2.45849"/>
<path d="M147.639 49.7253C145.307 49.7253 143.055 49.4604 140.882 48.9304C138.71 48.4005 136.921 47.7116 135.517 46.8637L138.537 40.0274C139.862 40.7958 141.333 41.4185 142.949 41.8954C144.592 42.3459 146.182 42.5711 147.719 42.5711C148.62 42.5711 149.322 42.5181 149.825 42.4121C150.355 42.2796 150.739 42.1074 150.978 41.8954C151.216 41.657 151.336 41.3787 151.336 41.0608C151.336 40.5573 151.057 40.1599 150.501 39.8684C149.944 39.5769 149.202 39.3385 148.275 39.153C147.374 38.941 146.381 38.729 145.294 38.517C144.208 38.2786 143.108 37.9739 141.995 37.6029C140.909 37.2319 139.902 36.7417 138.975 36.1323C138.074 35.5229 137.345 34.728 136.789 33.7476C136.232 32.7407 135.954 31.4953 135.954 30.0115C135.954 28.2891 136.431 26.7258 137.385 25.3215C138.365 23.8906 139.809 22.7512 141.717 21.9033C143.651 21.0554 146.049 20.6315 148.911 20.6315C150.792 20.6315 152.647 20.8302 154.475 21.2276C156.304 21.6251 157.947 22.2345 159.404 23.0559L156.582 29.8525C155.204 29.1635 153.866 28.6468 152.568 28.3024C151.296 27.9579 150.05 27.7857 148.832 27.7857C147.931 27.7857 147.215 27.8652 146.685 28.0242C146.155 28.1831 145.771 28.3951 145.533 28.6601C145.321 28.9251 145.215 29.2165 145.215 29.5345C145.215 30.0115 145.493 30.3957 146.049 30.6871C146.606 30.9521 147.334 31.1773 148.235 31.3628C149.163 31.5483 150.17 31.747 151.256 31.959C152.369 32.171 153.469 32.4624 154.555 32.8334C155.641 33.2044 156.635 33.6946 157.536 34.304C158.463 34.9134 159.205 35.7083 159.762 36.6887C160.318 37.6691 160.596 38.888 160.596 40.3454C160.596 42.0412 160.106 43.6045 159.126 45.0353C158.172 46.4397 156.741 47.5791 154.833 48.4535C152.925 49.3014 150.527 49.7253 147.639 49.7253ZM180.637 21.2674H190.017V49.0894H180.637V21.2674ZM171.973 49.0894H162.593V21.2674H171.973V49.0894ZM181.273 38.835H171.337V31.1243H181.273V38.835ZM191.516 49.0894L203.678 21.2674H212.899L225.061 49.0894H215.363L206.381 25.7189H210.038L201.055 49.0894H191.516ZM198.75 44.2404L201.134 37.4837H213.933L216.317 44.2404H198.75ZM226.558 49.0894V21.2674H239.953C242.549 21.2674 244.788 21.6913 246.67 22.5393C248.578 23.3872 250.048 24.606 251.082 26.1959C252.115 27.7592 252.632 29.614 252.632 31.7603C252.632 33.9065 252.115 35.7613 251.082 37.3247C250.048 38.8615 248.578 40.0406 246.67 40.862C244.788 41.6835 242.549 42.0942 239.953 42.0942H231.765L235.938 38.2388V49.0894H226.558ZM243.212 49.0894L236.376 38.9542H246.312L253.228 49.0894H243.212ZM235.938 39.2722L231.765 35.0194H239.357C240.655 35.0194 241.609 34.728 242.218 34.145C242.854 33.5621 243.172 32.7672 243.172 31.7603C243.172 30.7534 242.854 29.9585 242.218 29.3755C241.609 28.7926 240.655 28.5011 239.357 28.5011H231.765L235.938 24.2483V39.2722ZM262.97 43.1276L262.453 32.8334L272.946 21.2674H283.161L271.396 34.2245L266.19 39.5504L262.97 43.1276ZM254.584 49.0894V21.2674H263.805V49.0894H254.584ZM272.867 49.0894L264.679 38.2786L270.76 31.8398L283.717 49.0894H272.867Z" fill="black"/>
</svg>
