<svg width="386" height="55" viewBox="0 0 386 55" fill="none" xmlns="http://www.w3.org/2000/svg">
<path d="M0.762207 13.782C1.43162 14.1397 13.3292 16.3627 10.5968 6.16503L19.1758 0.66925V20.6297C19.1758 21.1622 18.7442 21.5938 18.2117 21.5938H0.762207C1.77607 19.2396 1.68292 16.8863 0.762207 13.782Z" stroke="black" stroke-width="1.58959" stroke-linejoin="bevel"/>
<path d="M3.35986 16.1837C3.7276 16.3802 14.4382 17.7926 13.0591 6.98991L16.9665 4.57654V18.9326C16.9665 19.2251 16.7294 19.4623 16.4368 19.4623H3.35986C3.91683 18.169 3.86566 17.889 3.35986 16.1837Z" fill="black" stroke="black" stroke-width="0.698594" stroke-linejoin="bevel"/>
<path d="M45.1494 13.782C44.48 14.1397 32.5824 16.3627 35.3149 6.16503L26.7358 0.66925V20.6297C26.7358 21.1622 27.1674 21.5938 27.6999 21.5938H45.1494C44.1355 19.2396 44.2287 16.8863 45.1494 13.782Z" stroke="black" stroke-width="1.58959" stroke-linejoin="bevel"/>
<path d="M42.5513 16.1837C42.1835 16.3802 31.4729 17.7926 32.852 6.98991L28.9446 4.57654V18.9326C28.9446 19.2251 29.1818 19.4623 29.4743 19.4623H42.5513C41.9943 18.169 42.0455 17.889 42.5513 16.1837Z" fill="black" stroke="black" stroke-width="0.698594" stroke-linejoin="bevel"/>
<path d="M0.762207 37.2117C0.762207 37.2117 14.872 38.173 12.1395 48.3707L19.1758 53.8665V30.364C19.1758 29.8315 18.7442 29.3998 18.2117 29.3998H0.762207C1.77607 31.754 1.68292 34.1074 0.762207 37.2117Z" stroke="black" stroke-width="1.58959" stroke-linejoin="bevel"/>
<path d="M3.35986 35.6142C3.35986 35.6142 16.277 37.1082 14.4382 47.3363L16.9665 49.3843V32.0608C16.9665 31.7683 16.7294 31.5312 16.4368 31.5312H3.35986C3.91683 32.8245 3.86566 33.9088 3.35986 35.6142Z" fill="black" stroke="black" stroke-width="0.698594" stroke-linejoin="bevel"/>
<path d="M45.1479 37.2116C45.1479 37.2116 31.0382 38.173 33.7706 48.3707L26.7343 53.8664V30.3639C26.7343 29.8314 27.166 29.3997 27.6985 29.3997H45.1479C44.1341 31.754 44.2272 34.1073 45.1479 37.2116Z" stroke="black" stroke-width="1.58959" stroke-linejoin="bevel"/>
<path d="M42.5498 35.6145C42.5498 35.6145 29.6327 37.1085 31.4715 47.3366L28.9432 49.2697V32.0611C28.9432 31.7686 29.1803 31.5315 29.4728 31.5315H42.5498C41.9928 32.8248 42.044 33.9091 42.5498 35.6145Z" fill="black" stroke="black" stroke-width="0.698594" stroke-linejoin="bevel"/>
<path d="M60.5689 20.2584C62.0827 19.3023 63.6762 18.6251 65.3493 18.2267V13.3865C65.5883 13.1474 65.9867 12.9283 66.5444 12.7292C67.142 12.4901 67.7595 12.2909 68.3969 12.1316C69.0741 11.9324 69.7314 11.7531 70.3688 11.5938C71.0062 11.4344 71.5241 11.3149 71.9224 11.2353H73.9541V18.8242H81.8419V22.5888H73.9541V38.0656C73.9541 40.5355 74.2529 42.2485 74.8505 43.2046C75.4879 44.1607 76.5236 44.6387 77.9578 44.6387C78.6748 44.6387 79.4716 44.5989 80.348 44.5192C81.2643 44.3997 82.1008 44.2005 82.8577 43.9216L83.276 45.8936C82.9175 46.2521 82.3797 46.6306 81.6626 47.0289C80.9854 47.4273 80.1887 47.8058 79.2724 48.1643C78.396 48.5228 77.42 48.8216 76.3444 49.0606C75.3086 49.2996 74.2131 49.4192 73.0578 49.4192C70.4684 49.4192 68.5363 48.7419 67.2615 47.3875C65.9867 46.033 65.3493 43.842 65.3493 40.8143V22.5888H60.5689V20.2584ZM99.4946 25.6961C99.0165 25.9352 98.4588 26.3335 97.8214 26.8913C97.184 27.449 96.6064 28.3652 96.0885 29.64V44.9375C96.8852 45.0172 97.682 45.1765 98.4787 45.4155C99.2755 45.6147 100.072 45.9334 100.869 46.3716V48.7021H83.5398V46.3716C84.2569 45.9732 84.9341 45.6745 85.5715 45.4753C86.2089 45.2761 86.8463 45.0968 87.4837 44.9375V23.0669L83.5398 22.5888V20.2584C84.1772 19.9795 84.954 19.7206 85.8703 19.4815C86.8264 19.2425 87.8024 19.0433 88.7983 18.884C89.7942 18.6848 90.7503 18.5255 91.6666 18.4059C92.6227 18.2864 93.4194 18.1868 94.0568 18.1072H96.0885V26.0547H96.3275C96.6462 25.1783 97.1043 24.262 97.7019 23.3059C98.3393 22.3498 99.0763 21.4734 99.9129 20.6767C100.749 19.8799 101.666 19.2425 102.662 18.7645C103.658 18.2864 104.693 18.0673 105.769 18.1072C106.207 18.6649 106.586 19.4616 106.904 20.4974C107.223 21.4933 107.482 22.4494 107.681 23.3657V25.6961H99.4946ZM134.193 40.0375C134.193 40.9139 134.193 41.6708 134.193 42.3082C134.232 42.9456 134.292 43.6229 134.372 44.3399L138.495 44.9375V47.0289C138.017 47.268 137.36 47.507 136.523 47.746C135.726 47.985 134.87 48.224 133.954 48.4631C133.077 48.6623 132.201 48.8216 131.324 48.9411C130.448 49.1005 129.671 49.22 128.994 49.2996H126.962C126.564 48.3834 126.325 47.4671 126.245 46.5509C126.165 45.6346 126.106 44.5192 126.066 43.2046H125.767C125.568 44.0013 125.229 44.7781 124.751 45.535C124.273 46.2521 123.656 46.9094 122.899 47.507C122.182 48.0647 121.325 48.5228 120.329 48.8814C119.333 49.2399 118.218 49.4192 116.983 49.4192C115.668 49.4192 114.453 49.22 113.338 48.8216C112.222 48.4232 111.246 47.8655 110.41 47.1484C109.573 46.4314 108.916 45.5749 108.438 44.5789C107.96 43.5432 107.721 42.3879 107.721 41.1131C107.721 39.3204 108.059 37.8465 108.737 36.6912C109.414 35.5359 110.47 34.5997 111.904 33.8827C113.378 33.1258 115.25 32.568 117.521 32.2095C119.831 31.851 122.62 31.592 125.887 31.4327C126.205 28.0067 126.066 25.497 125.468 23.9035C124.871 22.31 123.576 21.5132 121.584 21.5132C120.349 21.5132 119.214 21.7124 118.178 22.1108L115.37 29.2815H112.74C112.422 28.8034 112.103 28.2656 111.784 27.6681C111.505 27.0307 111.226 26.3734 110.948 25.6961C110.709 24.9791 110.489 24.262 110.29 23.5449C110.131 22.8279 110.011 22.1307 109.932 21.4535C111.446 20.4177 113.398 19.6011 115.788 19.0035C118.178 18.4059 120.708 18.1072 123.377 18.1072C125.647 18.1072 127.5 18.3661 128.934 18.884C130.368 19.362 131.484 20.0393 132.28 20.9157C133.117 21.7523 133.695 22.7482 134.013 23.9035C134.332 25.0587 134.491 26.2937 134.491 27.6083C134.491 29.9986 134.432 32.1697 134.312 34.1217C134.232 36.0339 134.193 38.0058 134.193 40.0375ZM120.748 44.6387C121.584 44.6387 122.301 44.4794 122.899 44.1607C123.496 43.842 123.994 43.4635 124.393 43.0253C124.831 42.5871 125.15 42.109 125.349 41.5912C125.588 41.0733 125.767 40.6151 125.887 40.2168V34.2412C124.014 34.281 122.48 34.4006 121.285 34.5997C120.09 34.7989 119.154 35.1375 118.477 35.6156C117.8 36.0538 117.322 36.6314 117.043 37.3485C116.804 38.0257 116.684 38.8623 116.684 39.8582C116.684 41.3721 117.043 42.5473 117.76 43.3838C118.477 44.2204 119.473 44.6387 120.748 44.6387ZM175.343 48.7021H159.507V46.3716C160.025 46.0928 160.523 45.8537 161.001 45.6545C161.519 45.4155 162.117 45.1765 162.794 44.9375V30.8949C162.794 28.3851 162.436 26.4331 161.718 25.0388C161.001 23.6047 159.727 22.8876 157.894 22.8876C156.38 22.8876 155.066 23.3856 153.95 24.3815C152.875 25.3376 152.058 26.6522 151.5 28.3254V44.9375C152.138 45.0968 152.695 45.296 153.173 45.535C153.691 45.7342 154.229 46.0131 154.787 46.3716V48.7021H138.952V46.3716C139.947 45.8537 141.262 45.3757 142.895 44.9375V23.0669L138.952 22.5888V20.2584C139.469 20.0194 140.147 19.8002 140.983 19.6011C141.82 19.362 142.716 19.1429 143.672 18.9437C144.668 18.7446 145.664 18.5852 146.66 18.4657C147.696 18.3064 148.632 18.1868 149.469 18.1072H151.5V24.262H151.56C152.397 22.5888 153.651 21.1547 155.325 19.9596C156.998 18.7246 159.029 18.1072 161.42 18.1072C162.973 18.1072 164.368 18.3064 165.603 18.7047C166.838 19.0633 167.873 19.7206 168.71 20.6767C169.586 21.6328 170.244 22.9275 170.682 24.5608C171.16 26.1543 171.399 28.186 171.399 30.6559V44.9375C172.992 45.2163 174.307 45.6944 175.343 46.3716V48.7021ZM191.45 42.1887C191.45 41.153 191.072 40.2566 190.315 39.4997C189.598 38.7428 188.682 38.0457 187.566 37.4083C186.49 36.7709 185.295 36.1335 183.981 35.4961C182.706 34.8587 181.511 34.1217 180.395 33.2851C179.32 32.4087 178.404 31.3929 177.647 30.2376C176.93 29.0823 176.571 27.6681 176.571 25.9949C176.571 24.7998 176.85 23.7242 177.408 22.7681C177.965 21.7722 178.722 20.9356 179.678 20.2584C180.634 19.5811 181.77 19.0633 183.084 18.7047C184.439 18.3064 185.893 18.1072 187.447 18.1072C189.598 18.1072 191.59 18.2864 193.422 18.645C195.294 18.9637 196.928 19.4218 198.322 20.0194C198.163 21.2941 197.844 22.6685 197.366 24.1425C196.888 25.5766 196.43 26.8913 195.992 28.0864H193.96L191.45 21.9913C190.972 21.7921 190.474 21.6726 189.956 21.6328C189.438 21.5531 188.861 21.5132 188.223 21.5132C187.028 21.5132 186.112 21.8718 185.475 22.5888C184.877 23.2661 184.578 24.0429 184.578 24.9193C184.578 25.9152 184.937 26.7917 185.654 27.5486C186.411 28.2656 187.327 28.9429 188.403 29.5803C189.518 30.2177 190.713 30.8551 191.988 31.4924C193.303 32.1298 194.498 32.8668 195.573 33.7034C196.689 34.5001 197.605 35.4562 198.322 36.5717C199.079 37.6871 199.457 39.0217 199.457 40.5753C199.457 43.3241 198.342 45.4952 196.111 47.0887C193.88 48.6423 190.892 49.4192 187.148 49.4192C185.236 49.4192 183.264 49.22 181.232 48.8216C179.2 48.4232 177.447 47.8655 175.973 47.1484C176.053 45.7143 176.392 44.2602 176.989 42.7863C177.587 41.3123 178.224 39.9977 178.901 38.8424H180.933L183.861 45.3558C184.299 45.6745 184.777 45.8737 185.295 45.9533C185.853 45.9932 186.371 46.0131 186.849 46.0131C188.004 46.0131 189.06 45.6745 190.016 44.9972C190.972 44.32 191.45 43.3838 191.45 42.1887ZM218.05 3.7658C219.684 3.7658 221.138 3.92515 222.413 4.24385C223.727 4.5227 224.723 4.80156 225.4 5.08043C225.281 6.39505 225.022 7.74951 224.623 9.14381C224.225 10.5381 223.867 11.6934 223.548 12.6096H221.516L218.887 6.93285C217.851 6.93285 216.975 7.05236 216.258 7.29139C215.58 7.49057 215.023 7.90886 214.585 8.54625C214.186 9.18365 213.887 10.0999 213.688 11.295C213.489 12.4503 213.389 13.9641 213.389 15.8365V18.8242H219.723V22.5888H213.389V44.9375C215.461 45.1765 217.373 45.6545 219.126 46.3716V48.7021H200.841V46.3716C202.076 45.6545 203.39 45.1765 204.785 44.9375V22.5888H200.243V20.2584C201.637 19.382 203.151 18.7246 204.785 18.2864V16.195C204.785 13.7251 205.123 11.6934 205.8 10.0999C206.517 8.46658 207.474 7.19179 208.669 6.27554C209.864 5.31945 211.258 4.66214 212.852 4.3036C214.485 3.94507 216.218 3.7658 218.05 3.7658ZM220.287 33.7632C220.287 31.3331 220.645 29.162 221.362 27.2498C222.119 25.2978 223.175 23.6445 224.529 22.2901C225.923 20.9356 227.597 19.8998 229.549 19.1828C231.501 18.4657 233.712 18.1072 236.182 18.1072C238.97 18.1072 241.36 18.5055 243.352 19.3023C245.384 20.0592 247.037 21.1348 248.312 22.5291C249.627 23.8836 250.583 25.5368 251.18 27.4888C251.778 29.401 252.077 31.4924 252.077 33.7632C252.077 36.1932 251.718 38.3843 251.001 40.3363C250.284 42.2485 249.228 43.8818 247.834 45.2363C246.479 46.5907 244.806 47.6265 242.814 48.3436C240.862 49.0606 238.651 49.4192 236.182 49.4192C233.473 49.4192 231.122 49.0407 229.13 48.2838C227.138 47.4871 225.485 46.4115 224.171 45.057C222.856 43.6627 221.88 42.0094 221.243 40.0973C220.605 38.1452 220.287 36.0339 220.287 33.7632ZM229.549 33.7632C229.549 35.5558 229.648 37.2091 229.847 38.7229C230.086 40.1969 230.485 41.4517 231.043 42.4875C231.6 43.5233 232.357 44.3399 233.313 44.9375C234.269 45.4952 235.504 45.7741 237.018 45.7741C237.895 45.7741 238.691 45.5749 239.408 45.1765C240.125 44.7383 240.743 44.0611 241.261 43.1448C241.779 42.1887 242.157 40.9538 242.396 39.44C242.675 37.8863 242.814 35.994 242.814 33.7632C242.814 31.9307 242.695 30.2774 242.456 28.8034C242.257 27.3295 241.878 26.0746 241.321 25.0388C240.803 24.0031 240.086 23.2063 239.169 22.6486C238.253 22.051 237.098 21.7523 235.703 21.7523C234.668 21.7523 233.771 21.9714 233.014 22.4096C232.258 22.808 231.62 23.4852 231.102 24.4413C230.584 25.3575 230.186 26.5925 229.907 28.1461C229.668 29.6599 229.549 31.5323 229.549 33.7632ZM268.853 25.6961C268.375 25.9352 267.817 26.3335 267.18 26.8913C266.542 27.449 265.965 28.3652 265.447 29.64V44.9375C266.244 45.0172 267.04 45.1765 267.837 45.4155C268.634 45.6147 269.431 45.9334 270.227 46.3716V48.7021H252.898V46.3716C253.615 45.9732 254.292 45.6745 254.93 45.4753C255.567 45.2761 256.205 45.0968 256.842 44.9375V23.0669L252.898 22.5888V20.2584C253.536 19.9795 254.312 19.7206 255.229 19.4815C256.185 19.2425 257.161 19.0433 258.157 18.884C259.153 18.6848 260.109 18.5255 261.025 18.4059C261.981 18.2864 262.778 18.1868 263.415 18.1072H265.447V26.0547H265.686C266.005 25.1783 266.463 24.262 267.06 23.3059C267.698 22.3498 268.435 21.4734 269.271 20.6767C270.108 19.8799 271.024 19.2425 272.02 18.7645C273.016 18.2864 274.052 18.0673 275.127 18.1072C275.566 18.6649 275.944 19.4616 276.263 20.4974C276.581 21.4933 276.84 22.4494 277.039 23.3657V25.6961H268.853ZM312.156 48.7021H297.217V46.3716C297.615 46.1326 298.053 45.8936 298.531 45.6545C299.049 45.3757 299.607 45.1367 300.205 44.9375V33.0461C300.205 31.2136 300.145 29.6599 300.025 28.3851C299.946 27.1104 299.746 26.0746 299.428 25.2779C299.109 24.4413 298.671 23.8437 298.113 23.4852C297.555 23.0868 296.838 22.8876 295.962 22.8876C294.687 22.8876 293.572 23.3856 292.616 24.3815C291.699 25.3376 291.022 26.6124 290.584 28.2059V44.9375C291.66 45.2562 292.655 45.7342 293.572 46.3716V48.7021H278.035V46.3716C278.593 46.0928 279.21 45.8338 279.888 45.5948C280.565 45.3558 281.262 45.1367 281.979 44.9375V23.0669L278.035 22.5888V20.2584C278.673 19.9795 279.449 19.7206 280.366 19.4815C281.322 19.2425 282.298 19.0433 283.294 18.884C284.29 18.6848 285.246 18.5255 286.162 18.4059C287.118 18.2864 287.915 18.1868 288.552 18.1072H290.584V24.8596H290.644C291.281 22.9872 292.397 21.3937 293.99 20.0791C295.623 18.7645 297.575 18.1072 299.846 18.1072C300.802 18.1072 301.738 18.2068 302.655 18.4059C303.571 18.6051 304.407 18.9836 305.164 19.5413C305.961 20.0592 306.638 20.7962 307.196 21.7523C307.754 22.7084 308.152 23.9433 308.391 25.4571C309.108 23.2661 310.303 21.4933 311.976 20.1389C313.65 18.7844 315.681 18.1072 318.072 18.1072C319.546 18.1072 320.84 18.3064 321.956 18.7047C323.111 19.0633 324.067 19.7206 324.824 20.6767C325.621 21.6328 326.218 22.9275 326.617 24.5608C327.015 26.1941 327.214 28.2656 327.214 30.7754V44.9375C328.569 45.1765 329.883 45.6545 331.158 46.3716V48.7021H315.622V46.3716C316.538 45.7741 317.534 45.296 318.609 44.9375V31.9705C318.609 28.8632 318.311 26.5726 317.713 25.0986C317.155 23.6246 315.92 22.8876 314.008 22.8876C312.574 22.8876 311.439 23.4254 310.602 24.501C309.805 25.5766 309.208 27.0108 308.809 28.8034V44.9375C309.487 45.1367 310.084 45.3558 310.602 45.5948C311.16 45.8338 311.678 46.0928 312.156 46.3716V48.7021ZM358.157 40.0375C358.157 40.9139 358.157 41.6708 358.157 42.3082C358.197 42.9456 358.257 43.6229 358.337 44.3399L362.46 44.9375V47.0289C361.982 47.268 361.324 47.507 360.488 47.746C359.691 47.985 358.835 48.224 357.918 48.4631C357.042 48.6623 356.166 48.8216 355.289 48.9411C354.413 49.1005 353.636 49.22 352.959 49.2996H350.927C350.529 48.3834 350.29 47.4671 350.21 46.5509C350.13 45.6346 350.07 44.5192 350.031 43.2046H349.732C349.533 44.0013 349.194 44.7781 348.716 45.535C348.238 46.2521 347.62 46.9094 346.864 47.507C346.146 48.0647 345.29 48.5228 344.294 48.8814C343.298 49.2399 342.183 49.4192 340.948 49.4192C339.633 49.4192 338.418 49.22 337.303 48.8216C336.187 48.4232 335.211 47.8655 334.375 47.1484C333.538 46.4314 332.881 45.5749 332.403 44.5789C331.925 43.5432 331.686 42.3879 331.686 41.1131C331.686 39.3204 332.024 37.8465 332.701 36.6912C333.379 35.5359 334.434 34.5997 335.869 33.8827C337.342 33.1258 339.215 32.568 341.486 32.2095C343.796 31.851 346.585 31.592 349.851 31.4327C350.17 28.0067 350.031 25.497 349.433 23.9035C348.835 22.31 347.541 21.5132 345.549 21.5132C344.314 21.5132 343.179 21.7124 342.143 22.1108L339.334 29.2815H336.705C336.386 28.8034 336.068 28.2656 335.749 27.6681C335.47 27.0307 335.191 26.3734 334.912 25.6961C334.673 24.9791 334.454 24.262 334.255 23.5449C334.096 22.8279 333.976 22.1307 333.897 21.4535C335.41 20.4177 337.362 19.6011 339.753 19.0035C342.143 18.4059 344.673 18.1072 347.342 18.1072C349.612 18.1072 351.465 18.3661 352.899 18.884C354.333 19.362 355.448 20.0393 356.245 20.9157C357.082 21.7523 357.659 22.7482 357.978 23.9035C358.297 25.0587 358.456 26.2937 358.456 27.6083C358.456 29.9986 358.396 32.1697 358.277 34.1217C358.197 36.0339 358.157 38.0058 358.157 40.0375ZM344.712 44.6387C345.549 44.6387 346.266 44.4794 346.864 44.1607C347.461 43.842 347.959 43.4635 348.357 43.0253C348.796 42.5871 349.114 42.109 349.314 41.5912C349.553 41.0733 349.732 40.6151 349.851 40.2168V34.2412C347.979 34.281 346.445 34.4006 345.25 34.5997C344.055 34.7989 343.119 35.1375 342.442 35.6156C341.764 36.0538 341.286 36.6314 341.007 37.3485C340.768 38.0257 340.649 38.8623 340.649 39.8582C340.649 41.3721 341.007 42.5473 341.725 43.3838C342.442 44.2204 343.438 44.6387 344.712 44.6387ZM360.825 20.2584C362.339 19.3023 363.932 18.6251 365.605 18.2267V13.3865C365.844 13.1474 366.243 12.9283 366.8 12.7292C367.398 12.4901 368.016 12.2909 368.653 12.1316C369.33 11.9324 369.987 11.7531 370.625 11.5938C371.262 11.4344 371.78 11.3149 372.178 11.2353H374.21V18.8242H382.098V22.5888H374.21V38.0656C374.21 40.5355 374.509 42.2485 375.107 43.2046C375.744 44.1607 376.78 44.6387 378.214 44.6387C378.931 44.6387 379.728 44.5989 380.604 44.5192C381.52 44.3997 382.357 44.2005 383.114 43.9216L383.532 45.8936C383.174 46.2521 382.636 46.6306 381.919 47.0289C381.241 47.4273 380.445 47.8058 379.528 48.1643C378.652 48.5228 377.676 48.8216 376.6 49.0606C375.565 49.2996 374.469 49.4192 373.314 49.4192C370.724 49.4192 368.792 48.7419 367.518 47.3875C366.243 46.033 365.605 43.842 365.605 40.8143V22.5888H360.825V20.2584Z" fill="black"/>
</svg>
