<svg width="227" height="49" viewBox="0 0 227 49" fill="none" xmlns="http://www.w3.org/2000/svg">
<path d="M31.0925 18.1354C31.0038 18.7508 30.5972 19.275 30.0036 19.4599C27.6214 20.2022 23.9719 21.0729 20.022 22.0151C15.0951 23.1905 9.70094 24.4773 5.7158 25.7657C5.25492 25.9147 4.83574 25.1412 5.22345 24.8509L12.1103 19.6935C12.5732 19.3468 12.8198 18.7798 12.7373 18.2074C12.4495 16.2115 11.9768 14.1695 11.3192 12.0813C10.1029 8.19914 8.47455 5.12817 6.43427 2.8684C5.99326 2.37996 6.21525 1.56401 6.86029 1.43365C16.3562 -0.48539 26.369 -0.477854 36.8986 1.45626C37.5544 1.57671 37.7915 2.4062 37.346 2.9023C35.32 5.15885 33.7019 8.21852 32.4916 12.0813C31.843 14.1466 31.3766 16.1646 31.0925 18.1354Z" fill="#141217"/>
<path d="M34.7481 22.9686C36.4232 21.97 37.5951 20.754 38.2638 19.3209C38.6449 18.516 38.8988 17.5547 39.0258 16.437C39.0742 16.0107 39.6566 15.8954 39.8135 16.2948C40.1734 17.2109 40.5334 18.2715 40.8933 19.4765C41.7049 22.1677 42.1464 24.5509 42.2178 26.6261C42.3736 31.1914 41.192 34.5441 38.6729 36.6841C36.4199 38.6101 32.9561 39.6542 28.2814 39.8163C28.236 39.8163 26.8758 39.8228 24.2008 39.8357C21.5324 39.8422 19.2178 39.8811 17.257 39.9525C11.7837 40.1405 7.70638 41.9141 5.02493 45.2733C4.30491 46.1853 3.66664 47.2376 3.11014 48.4301C2.95708 48.7582 2.47781 48.7571 2.33874 48.423C1.75866 47.029 1.43344 46.232 1.36309 46.032C0.512559 43.7883 0.061332 41.9174 0.00939117 40.4194C-0.0490423 38.675 0.165211 37.2094 0.652157 36.0227C1.15858 34.7905 2.02209 33.727 3.2427 32.8321C5.46967 31.1914 9.78076 29.7064 16.176 28.377C21.2792 27.3135 25.1066 26.4218 27.6581 25.702C28.7424 25.3972 29.7423 25.0859 30.6577 24.7682C32.3263 24.191 33.6898 23.5912 34.7481 22.9686Z" fill="#141217"/>
<path d="M70.4411 45.0739C68.3581 45.0739 66.9694 44.1224 66.2751 42.2195L51.5781 4.12233C52.0024 3.88931 52.5618 3.69514 53.2561 3.5398C53.989 3.34562 54.6641 3.24854 55.2813 3.24854C58.5987 3.24854 60.7203 4.58834 61.6461 7.26796L70.4411 31.6619L69.226 35.0545L79.1783 7.26796C80.1812 4.58834 82.3028 3.24854 85.5431 3.24854C86.1603 3.24854 86.816 3.34562 87.5104 3.5398C88.2433 3.69514 88.8219 3.88931 89.2462 4.12233L74.6072 42.2195C73.9128 44.1224 72.5241 45.0739 70.4411 45.0739Z" fill="#141217"/>
<path d="M101.295 45.0739C98.9034 45.0739 96.6854 44.5885 94.6409 43.6176C92.6351 42.6467 91.0342 41.3263 89.8384 39.6564C88.6426 37.9865 88.0447 36.1224 88.0447 34.0642V26.6078C88.0447 24.4331 88.6426 22.4525 89.8384 20.6661C91.0728 18.8408 92.7122 17.4233 94.7567 16.4136C96.8011 15.4039 98.9999 14.8991 101.353 14.8991C103.667 14.8991 105.789 15.3845 107.718 16.3554C109.685 17.2874 111.228 18.6272 112.347 20.3748C113.465 22.0835 114.025 24.0253 114.025 26.2001V29.3457C114.025 30.2777 113.678 31.0739 112.983 31.7341C112.289 32.3554 111.402 32.6661 110.322 32.6661H95.7403V33.4816C95.7403 35.035 96.2032 36.3166 97.129 37.3263C98.0934 38.2972 99.5013 38.7826 101.353 38.7826C103.166 38.7826 104.497 38.3943 105.345 37.6176C106.194 36.802 106.618 35.7923 106.618 34.5884C107.39 34.5108 107.968 34.4719 108.354 34.4719C109.936 34.4719 111.151 34.802 112 35.4622C112.848 36.1224 113.272 37.0933 113.272 38.3748C113.272 39.4234 112.752 40.4719 111.71 41.5205C110.669 42.569 109.222 43.4234 107.371 44.0836C105.558 44.7438 103.532 45.0739 101.295 45.0739ZM106.85 27.0156V26.2001C106.85 24.6467 106.329 23.4233 105.288 22.5301C104.285 21.5981 102.954 21.1321 101.295 21.1321C99.6364 21.1321 98.2862 21.5981 97.2447 22.5301C96.2418 23.4233 95.7403 24.6467 95.7403 26.2001V27.0156H106.85Z" fill="#141217"/>
<path d="M131.452 45.0739C127.517 45.0739 124.412 44.4137 122.136 43.0933C119.86 41.7341 118.722 39.9282 118.722 37.6758C118.722 36.6661 119.146 35.8117 119.995 35.1127C120.882 34.4137 122.29 34.0642 124.219 34.0642C124.527 35.6176 125.299 36.8409 126.533 37.7341C127.768 38.5884 129.214 39.0156 130.873 39.0156C132.802 39.0156 134.287 38.7826 135.328 38.3166C136.408 37.8506 136.948 37.171 136.948 36.2778C136.948 35.5011 136.524 34.8214 135.675 34.2389C134.827 33.6564 133.13 33.0544 130.584 32.4331C127.613 31.7341 125.299 31.035 123.64 30.336C122.02 29.5981 120.824 28.6855 120.053 27.5981C119.281 26.5107 118.895 25.0738 118.895 23.2874C118.895 20.7631 119.937 18.7437 122.02 17.2292C124.142 15.6758 127.093 14.8991 130.873 14.8991C134.576 14.8991 137.585 15.5398 139.899 16.8214C142.214 18.1029 143.371 19.8117 143.371 21.9476C143.371 23.035 142.966 23.8311 142.156 24.336C141.346 24.802 139.996 25.0544 138.106 25.0933C137.604 23.6175 136.833 22.5301 135.791 21.8311C134.788 21.0932 133.342 20.7243 131.452 20.7243C130.101 20.7243 128.906 20.9573 127.864 21.4233C126.823 21.8894 126.302 22.4525 126.302 23.1127C126.302 23.8505 126.726 24.4331 127.575 24.8602C128.462 25.2874 129.928 25.7146 131.972 26.1418C136.408 27.1127 139.591 28.3942 141.519 29.9865C143.487 31.5787 144.47 33.7341 144.47 36.4525C144.47 38.1224 143.95 39.6176 142.908 40.938C141.867 42.2584 140.362 43.2875 138.395 44.0253C136.428 44.7244 134.113 45.0739 131.452 45.0739Z" fill="#141217"/>
<path d="M161.4 45.0739C157.465 45.0739 154.36 44.4137 152.084 43.0933C149.808 41.7341 148.67 39.9282 148.67 37.6758C148.67 36.6661 149.094 35.8117 149.943 35.1127C150.83 34.4137 152.238 34.0642 154.167 34.0642C154.475 35.6176 155.247 36.8409 156.481 37.7341C157.716 38.5884 159.162 39.0156 160.821 39.0156C162.75 39.0156 164.235 38.7826 165.276 38.3166C166.356 37.8506 166.896 37.171 166.896 36.2778C166.896 35.5011 166.472 34.8214 165.623 34.2389C164.775 33.6564 163.078 33.0544 160.532 32.4331C157.561 31.7341 155.247 31.035 153.588 30.336C151.968 29.5981 150.772 28.6855 150.001 27.5981C149.229 26.5107 148.844 25.0738 148.844 23.2874C148.844 20.7631 149.885 18.7437 151.968 17.2292C154.09 15.6758 157.041 14.8991 160.821 14.8991C164.524 14.8991 167.533 15.5398 169.847 16.8214C172.162 18.1029 173.319 19.8117 173.319 21.9476C173.319 23.035 172.914 23.8311 172.104 24.336C171.294 24.802 169.944 25.0544 168.054 25.0933C167.552 23.6175 166.781 22.5301 165.739 21.8311C164.736 21.0932 163.29 20.7243 161.4 20.7243C160.049 20.7243 158.854 20.9573 157.812 21.4233C156.771 21.8894 156.25 22.4525 156.25 23.1127C156.25 23.8505 156.674 24.4331 157.523 24.8602C158.41 25.2874 159.876 25.7146 161.92 26.1418C166.356 27.1127 169.539 28.3942 171.468 29.9865C173.435 31.5787 174.419 33.7341 174.419 36.4525C174.419 38.1224 173.898 39.6176 172.856 40.938C171.815 42.2584 170.31 43.2875 168.343 44.0253C166.376 44.7244 164.061 45.0739 161.4 45.0739Z" fill="#141217"/>
<path d="M192.1 45.0739C189.708 45.0739 187.49 44.5885 185.446 43.6176C183.44 42.6467 181.839 41.3263 180.643 39.6564C179.447 37.9865 178.849 36.1224 178.849 34.0642V26.6078C178.849 24.4331 179.447 22.4525 180.643 20.6661C181.878 18.8408 183.517 17.4233 185.561 16.4136C187.606 15.4039 189.805 14.8991 192.158 14.8991C194.472 14.8991 196.594 15.3845 198.523 16.3554C200.49 17.2874 202.033 18.6272 203.151 20.3748C204.27 22.0835 204.829 24.0253 204.829 26.2001V29.3457C204.829 30.2777 204.482 31.0739 203.788 31.7341C203.094 32.3554 202.206 32.6661 201.126 32.6661H186.545V33.4816C186.545 35.035 187.008 36.3166 187.934 37.3263C188.898 38.2972 190.306 38.7826 192.158 38.7826C193.971 38.7826 195.302 38.3943 196.15 37.6176C196.999 36.802 197.423 35.7923 197.423 34.5884C198.195 34.5108 198.773 34.4719 199.159 34.4719C200.741 34.4719 201.956 34.802 202.804 35.4622C203.653 36.1224 204.077 37.0933 204.077 38.3748C204.077 39.4234 203.557 40.4719 202.515 41.5205C201.473 42.569 200.027 43.4234 198.175 44.0836C196.362 44.7438 194.337 45.0739 192.1 45.0739ZM197.655 27.0156V26.2001C197.655 24.6467 197.134 23.4233 196.092 22.5301C195.089 21.5981 193.759 21.1321 192.1 21.1321C190.441 21.1321 189.091 21.5981 188.05 22.5301C187.047 23.4233 186.545 24.6467 186.545 26.2001V27.0156H197.655Z" fill="#141217"/>
<path d="M219.884 45.0739C216.528 45.0739 214.001 44.1224 212.304 42.2195C210.607 40.2778 209.758 37.8312 209.758 34.8797V7.90874C209.758 6.23884 210.395 5.05437 211.668 4.35533C212.979 3.61747 214.985 3.24854 217.685 3.24854V34.5884C217.685 35.87 217.975 36.802 218.553 37.3846C219.132 37.9282 220.038 38.2001 221.273 38.2001C222.738 38.2001 224.185 37.8117 225.612 37.035C226.037 37.4234 226.364 37.9088 226.596 38.4914C226.866 39.0739 227.001 39.6564 227.001 40.2389C227.001 41.4817 226.384 42.6079 225.149 43.6176C223.954 44.5885 222.198 45.0739 219.884 45.0739Z" fill="#141217"/>
</svg>
