<svg width="63" height="70" viewBox="0 0 63 70" fill="none" xmlns="http://www.w3.org/2000/svg">
<path fill-rule="evenodd" clip-rule="evenodd" d="M29.6919 1.02108C30.8094 0.394016 32.1854 0.394016 33.3012 1.02108C38.823 4.12018 55.4393 13.4488 60.9627 16.5479C62.0803 17.1733 62.7682 18.332 62.7682 19.5861C62.7682 25.7843 62.7682 44.4398 62.7682 50.638C62.7682 51.8921 62.0803 53.0508 60.9627 53.6779C55.441 56.777 38.8246 66.1056 33.3012 69.2047C32.1837 69.8317 30.8078 69.8317 29.6919 69.2047C24.1701 66.1056 7.55381 56.777 2.0304 53.6779C0.914521 53.0508 0.226562 51.8938 0.226562 50.6397C0.226562 44.4414 0.226562 25.7859 0.226562 19.5877C0.226562 18.3336 0.914521 17.1749 2.03204 16.5479C7.55217 13.4488 24.1718 4.12018 29.6919 1.02108Z" fill="black"/>
<path fill-rule="evenodd" clip-rule="evenodd" d="M0.726896 52.236C0.289104 51.6501 0.226562 51.0938 0.226562 50.345C0.226562 44.183 0.226562 25.6344 0.226562 19.4708C0.226562 18.2232 0.912875 17.0711 2.0271 16.449C7.52912 13.368 24.0895 4.09375 29.5915 1.0111C30.7057 0.387331 32.215 0.400498 33.3292 1.02427C38.8312 4.10527 55.3356 13.3005 60.8377 16.3815C61.282 16.6317 61.6211 16.9329 61.9239 17.3295L0.726896 52.236Z" fill="black"/>
<path fill-rule="evenodd" clip-rule="evenodd" d="M31.5026 12.071C44.22 12.071 54.5443 22.3954 54.5443 35.1127C54.5443 47.8301 44.22 58.1544 31.5026 58.1544C18.7852 58.1544 8.46094 47.8301 8.46094 35.1127C8.46094 22.3954 18.7852 12.071 31.5026 12.071ZM31.5026 23.5919C37.8605 23.5919 43.0234 28.7532 43.0234 35.1127C43.0234 41.4706 37.8605 46.6335 31.5026 46.6335C25.1447 46.6335 19.9818 41.4706 19.9818 35.1127C19.9818 28.7532 25.1431 23.5919 31.5026 23.5919Z" fill="#E9E9E9"/>
<path fill-rule="evenodd" clip-rule="evenodd" d="M61.9212 17.3459C62.7705 18.1409 62.754 19.3391 62.754 20.2821C62.754 26.5281 62.7013 44.2932 62.7688 50.5391C62.7754 51.1909 62.5598 51.8772 62.2372 52.394L30.8281 35.1127L61.9212 17.3459Z" fill="black"/>
<path fill-rule="evenodd" clip-rule="evenodd" d="M43.0234 30.1753H46.3151V40.0503H43.0234V30.1753ZM54.5443 30.1753H57.8359V40.0503H54.5443V30.1753Z" fill="#E9E9E9"/>
<path fill-rule="evenodd" clip-rule="evenodd" d="M39.7266 33.467H49.6016V36.7587H39.7266V33.467ZM51.2474 33.467H61.1224V36.7587H51.2474V33.467Z" fill="#E9E9E9"/>
</svg>
