<svg width="80" height="80" viewBox="0 0 80 80" fill="none" xmlns="http://www.w3.org/2000/svg">
<path d="M50.7281 30.6167C53.5125 30.6167 56.1828 29.5102 58.1516 27.5407C60.1205 25.5712 61.2266 22.8999 61.2266 20.1146C61.2266 17.3293 60.1205 14.658 58.1516 12.6885C56.1828 10.719 53.5125 9.61255 50.7281 9.61255L29.7312 9.61255C26.9484 9.61255 24.2797 10.7184 22.312 12.6867C20.3443 14.6551 19.2389 17.3248 19.2389 20.1084C19.2389 22.8921 20.3443 25.5618 22.312 27.5302C24.2797 29.4985 26.9484 30.6043 29.7312 30.6043C26.9468 30.6043 24.2765 31.7108 22.3076 33.6803C20.3388 35.6498 19.2327 38.3211 19.2327 41.1064C19.2327 43.8917 20.3388 46.563 22.3076 48.5325C24.2765 50.502 26.9468 51.6084 29.7312 51.6084C27.6548 51.6072 25.6246 52.222 23.8975 53.3749C22.1704 54.5279 20.8238 56.1673 20.0281 58.0859C19.2323 60.0044 19.0232 62.1159 19.4271 64.1533C19.831 66.1907 20.8298 68.0626 22.2971 69.5322C23.7645 71.0018 25.6346 72.0031 27.6708 72.4096C29.7071 72.816 31.8181 72.6092 33.7369 71.8155C35.6557 71.0217 37.2962 69.6766 38.4508 67.9502C39.6054 66.2239 40.2223 64.1938 40.2235 62.1167V30.6167H50.7281ZM50.7281 30.6167C48.6529 30.6167 46.6243 31.2322 44.8989 32.3855C43.1734 33.5388 41.8286 35.1781 41.0345 37.0959C40.2403 39.0138 40.0325 41.1242 40.4374 43.1602C40.8422 45.1962 41.8415 47.0664 43.3089 48.5343C44.7763 50.0021 46.6458 51.0018 48.6812 51.4068C50.7165 51.8118 52.8261 51.6039 54.7433 50.8095C56.6606 50.0151 58.2992 48.6698 59.4521 46.9438C60.605 45.2177 61.2204 43.1884 61.2204 41.1125C61.2201 38.329 60.1145 35.6595 58.1469 33.6912C56.1793 31.7229 53.5107 30.617 50.7281 30.6167Z" fill="black"/>
</svg>
