<svg width="62" height="61" viewBox="0 0 62 61" fill="none" xmlns="http://www.w3.org/2000/svg">
<path d="M20.6296 48.4245C20.6296 48.6726 20.3467 48.8711 19.9901 48.8711C19.5842 48.9083 19.3014 48.7098 19.3014 48.4245C19.3014 48.1763 19.5842 47.9778 19.9409 47.9778C20.3098 47.9406 20.6296 48.1391 20.6296 48.4245ZM16.8048 47.8662C16.7187 48.1143 16.9647 48.3996 17.3336 48.4741C17.6534 48.5982 18.0223 48.4741 18.0961 48.2259C18.1699 47.9778 17.9362 47.6925 17.5673 47.5808C17.2475 47.494 16.8909 47.618 16.8048 47.8662ZM22.2407 47.6552C21.884 47.7421 21.6381 47.9778 21.6749 48.2632C21.7118 48.5113 22.0316 48.6726 22.4006 48.5858C22.7572 48.4989 23.0032 48.2632 22.9663 48.015C22.9294 47.7793 22.5973 47.618 22.2407 47.6552ZM30.333 0.112549C13.2752 0.112549 0.226562 13.1769 0.226562 30.385C0.226562 44.1441 8.81084 55.9181 21.0723 60.062C22.6465 60.3474 23.2 59.3672 23.2 58.5608C23.2 57.7916 23.1631 53.5485 23.1631 50.943C23.1631 50.943 14.5542 52.804 12.7463 47.2458C12.7463 47.2458 11.3443 43.6354 9.32737 42.7049C9.32737 42.7049 6.51104 40.7571 9.52414 40.7943C9.52414 40.7943 12.5864 41.0424 14.2713 43.9953C16.9647 48.7843 21.4782 47.4071 23.2368 46.5883C23.5197 44.6032 24.3191 43.226 25.2046 42.4072C18.3298 41.638 11.3935 40.633 11.3935 28.6977C11.3935 25.2859 12.3282 23.5737 14.2959 21.3901C13.9762 20.5837 12.9308 17.2587 14.6157 12.9659C17.186 12.1595 23.1016 16.3158 23.1016 16.3158C25.5612 15.621 28.2054 15.2612 30.825 15.2612C33.4445 15.2612 36.0887 15.621 38.5483 16.3158C38.5483 16.3158 44.4639 12.1471 47.0342 12.9659C48.7191 17.2711 47.6737 20.5837 47.354 21.3901C49.3217 23.5861 50.527 25.2983 50.527 28.6977C50.527 40.6702 43.2832 41.6256 36.4084 42.4072C37.5399 43.3873 38.4991 45.2483 38.4991 48.1639C38.4991 52.345 38.4622 57.5186 38.4622 58.536C38.4622 59.3424 39.028 60.3225 40.5899 60.0372C52.8883 55.9181 61.2266 44.1441 61.2266 30.385C61.2266 13.1769 47.3909 0.112549 30.333 0.112549ZM12.1806 42.9035C12.0207 43.0275 12.0576 43.3129 12.2667 43.5486C12.4635 43.7471 12.7463 43.834 12.9062 43.6727C13.0661 43.5486 13.0292 43.2632 12.8201 43.0275C12.6233 42.829 12.3405 42.7422 12.1806 42.9035ZM10.8524 41.8985C10.7663 42.0598 10.8893 42.2583 11.1352 42.3824C11.332 42.5064 11.578 42.4692 11.6641 42.2955C11.7502 42.1342 11.6272 41.9357 11.3812 41.8117C11.1352 41.7372 10.9385 41.7744 10.8524 41.8985ZM14.837 46.3153C14.6403 46.4766 14.7141 46.8488 14.9969 47.0845C15.2798 47.3699 15.6364 47.4071 15.7963 47.2086C15.9562 47.0473 15.8824 46.6751 15.6364 46.4394C15.3659 46.154 14.9969 46.1168 14.837 46.3153ZM13.435 44.4915C13.2383 44.6156 13.2383 44.9382 13.435 45.2235C13.6318 45.5089 13.9639 45.6329 14.1237 45.5089C14.3205 45.3476 14.3205 45.025 14.1237 44.7397C13.9516 44.4543 13.6318 44.3302 13.435 44.4915Z" fill="black"/>
</svg>
