<svg width="47" height="64" viewBox="0 0 47 64" fill="none" xmlns="http://www.w3.org/2000/svg">
<path d="M34.2507 39.1134C35.4449 38.289 37.1022 37.5753 37.1022 37.5753C37.1022 37.5753 32.3862 38.4367 27.6946 38.8304C21.9551 39.3103 15.789 39.4087 12.6937 38.9904C5.37 38.006 16.7151 35.2867 16.7151 35.2867C16.7151 35.2867 12.316 34.9914 6.89324 37.6246C0.495627 40.7499 22.735 42.1772 34.2507 39.1134ZM23.8439 35.1637C21.5286 29.9096 13.7174 25.2954 23.8439 17.2237C36.4758 7.15856 29.9978 0.612549 29.9978 0.612549C32.6178 11.0099 20.7852 14.1598 16.5079 20.6197C13.5955 25.037 17.9337 29.7743 23.8439 35.1637ZM37.809 13.4831C37.8211 13.4831 16.4592 18.8725 26.6588 30.734C29.6688 34.2285 25.8667 37.3785 25.8667 37.3785C25.8667 37.3785 33.5073 33.3918 29.9978 28.4085C26.7198 23.7574 24.2095 21.4441 37.809 13.4831ZM37.0656 46.7668C36.999 46.8841 36.917 46.9917 36.8219 47.0867C52.4565 42.9401 46.7047 32.4567 39.2347 35.1144C38.8313 35.2641 38.4827 35.5346 38.2355 35.8896C38.6717 35.7302 39.12 35.6068 39.5759 35.5205C43.3536 34.7207 48.7763 40.6269 37.0656 46.7668ZM42.8125 54.4325C42.8125 54.4325 44.5795 55.8968 40.8749 57.0411C33.8193 59.1944 11.5312 59.8465 5.34076 57.1272C3.11073 56.1552 7.29051 54.7894 8.60659 54.5064C9.97141 54.2111 10.7635 54.2603 10.7635 54.2603C8.28975 52.5007 -5.23664 57.7178 3.89063 59.2067C28.7792 63.2918 49.2711 57.3733 42.8125 54.4325ZM15.5696 49.3385C5.9793 52.0455 21.4067 57.6317 33.617 52.3531C32.4262 51.8859 31.2766 51.3179 30.1806 50.6551C24.7335 51.7009 22.211 51.7748 17.2635 51.2088C13.1812 50.7412 15.5696 49.3385 15.5696 49.3385ZM37.4799 61.2985C27.8896 63.1195 16.0571 62.9104 9.05015 61.7414C9.05015 61.7291 10.4881 62.935 17.8728 63.4148C29.1082 64.1408 46.3635 63.0088 46.7656 57.644C46.7656 57.644 45.9857 59.6743 37.4799 61.2985ZM32.1669 44.0475C24.9528 45.4502 20.773 45.4133 15.4965 44.8596C11.4142 44.429 14.0829 42.4356 14.0829 42.4356C3.50555 45.9793 19.9566 49.9906 34.7381 45.6225C33.7828 45.2819 32.9074 44.7457 32.1669 44.0475Z" fill="black"/>
</svg>
