<svg width="83" height="83" viewBox="0 0 83 83" fill="none" xmlns="http://www.w3.org/2000/svg">
<path d="M41.1125 82.225C63.8183 82.225 82.225 63.8183 82.225 41.1125C82.225 18.4067 63.8183 0 41.1125 0C18.4067 0 0 18.4067 0 41.1125C0 63.8183 18.4067 82.225 41.1125 82.225Z" fill="url(#paint0_linear_1097_106)"/>
<path d="M30.7276 24.5022H24.4297V57.8272H30.7276V24.5022Z" fill="white"/>
<path d="M57.7536 24.3562H51.6016V54.752H57.7536V24.3562Z" fill="url(#paint1_linear_1097_106)"/>
<path d="M67.7401 70.4751L62.2963 72.5501L24.4297 24.5022H31.7547L67.7401 70.4751Z" fill="url(#paint2_linear_1097_106)"/>
<defs>
<linearGradient id="paint0_linear_1097_106" x1="41.1125" y1="82.225" x2="41.1125" y2="0" gradientUnits="userSpaceOnUse">
<stop stop-color="#0A070A"/>
<stop offset="0.465" stop-color="#2B2B2B"/>
<stop offset="1" stop-color="#4B4B4B"/>
</linearGradient>
<linearGradient id="paint1_linear_1097_106" x1="54.6786" y1="59.9062" x2="54.6786" y2="29.5104" gradientUnits="userSpaceOnUse">
<stop offset="0.377" stop-color="white" stop-opacity="0"/>
<stop offset="0.666" stop-color="white" stop-opacity="0.3"/>
<stop offset="0.988" stop-color="white"/>
</linearGradient>
<linearGradient id="paint2_linear_1097_106" x1="37.1589" y1="35.7855" x2="67.4901" y2="75.548" gradientUnits="userSpaceOnUse">
<stop offset="0.296" stop-color="white"/>
<stop offset="0.521" stop-color="white" stop-opacity="0.5"/>
<stop offset="0.838" stop-color="white" stop-opacity="0"/>
</linearGradient>
</defs>
</svg>
