<svg width="56" height="56" viewBox="0 0 56 56" fill="none" xmlns="http://www.w3.org/2000/svg">
<path d="M54.7573 21.2984C53.812 17.505 52.0197 14.6446 48.2017 14.6446H43.2789V20.4636C43.2789 24.9813 39.4486 28.787 35.0782 28.787H21.967C18.3823 28.787 15.4115 31.8561 15.4115 35.453V47.9504C15.4115 51.5105 18.5051 53.5975 21.967 54.6164C26.1165 55.8318 30.1063 56.0528 35.0782 54.6164C38.3806 53.6589 41.6338 51.7315 41.6338 47.9504V42.9539H28.5349V41.2843H48.2017C52.0197 41.2843 53.4314 38.6203 54.7573 34.6305C56.1323 30.5179 56.0709 26.5649 54.7573 21.2984ZM35.9008 46.2808C37.2634 46.2808 38.3683 47.3979 38.3683 48.7729C38.3683 50.1601 37.2634 51.2773 35.9008 51.2773C34.5504 51.2773 33.4332 50.1478 33.4332 48.7729C33.4455 47.3857 34.5504 46.2808 35.9008 46.2808ZM21.3655 27.1419H34.4767C38.1228 27.1419 41.0323 24.1342 41.0323 20.4759V7.96625C41.0323 4.40611 38.0368 1.74213 34.4767 1.14059C30.0817 0.416285 25.3062 0.453115 21.3655 1.15287C15.8166 2.13498 14.8099 4.18513 14.8099 7.97853V12.975H27.9334V14.6446H9.88708C6.06912 14.6446 2.72994 16.9403 1.68645 21.2984C0.48336 26.2949 0.434254 29.4131 1.68645 34.6305C2.61945 38.5099 4.84148 41.2843 8.65944 41.2843H13.1649V35.2934C13.1649 30.9599 16.9092 27.1419 21.3655 27.1419ZM20.543 9.63584C19.1803 9.63584 18.0754 8.51869 18.0754 7.14373C18.0877 5.75651 19.1803 4.63936 20.543 4.63936C21.8934 4.63936 23.0105 5.76878 23.0105 7.14373C23.0105 8.51869 21.9057 9.63584 20.543 9.63584Z" fill="black"/>
</svg>
