<svg width="85" height="74" viewBox="0 0 85 74" fill="none" xmlns="http://www.w3.org/2000/svg">
<path d="M68.8375 24.2691C67.9516 23.9758 67.0656 23.6988 66.1797 23.4381C66.3273 22.8352 66.4586 22.2323 66.5898 21.6295C68.6078 11.9184 67.2789 4.11367 62.8 1.53926C58.4852 -0.921103 51.4469 1.63702 44.3266 7.79606C43.6211 8.39893 42.932 9.03439 42.2758 9.66985C41.8328 9.24621 41.3734 8.82257 40.9141 8.41523C33.4492 1.83254 25.968 -0.937397 21.4891 1.65331C17.1906 4.12997 15.9109 11.4785 17.7156 20.6681C17.8961 21.5806 18.093 22.4768 18.3227 23.3892C17.2727 23.6825 16.2391 24.0084 15.2711 24.3505C6.51016 27.3649 0.226562 32.1227 0.226562 37.0434C0.226562 42.127 6.92031 47.227 16.0258 50.3228C16.7641 50.5672 17.5023 50.8116 18.257 51.0234C18.0109 52.0011 17.7977 52.9624 17.6008 53.9563C15.8781 62.9994 17.2234 70.1686 21.5219 72.629C25.9516 75.1708 33.4 72.5638 40.6516 66.2581C41.2258 65.753 41.8 65.2316 42.3742 64.6776C43.0961 65.3783 43.8508 66.0463 44.6055 66.6981C51.6273 72.6942 58.5672 75.1219 62.8492 72.6616C67.2789 70.1198 68.7227 62.4128 66.8523 53.0276C66.7047 52.3107 66.5406 51.5774 66.3602 50.8279C66.8852 50.6813 67.3938 50.5183 67.9023 50.3554C77.3688 47.2433 84.2266 42.2085 84.2266 37.0434C84.2266 32.1064 77.7625 27.316 68.8375 24.2691ZM46.6398 10.4357C52.743 5.15647 58.4359 3.08716 61.0281 4.5699C63.8008 6.15039 64.8672 12.5376 63.1281 20.9288C63.0133 21.4828 62.8984 22.0205 62.7508 22.5582C59.1086 21.7435 55.4172 21.157 51.7094 20.8311C49.5766 17.8004 47.2469 14.9002 44.7203 12.1791C45.3602 11.5762 45.9836 11.0059 46.6398 10.4357ZM27.6578 45.4999C28.4945 46.9174 29.3477 48.335 30.25 49.7199C27.6906 49.4429 25.1477 49.0356 22.6375 48.4979C23.3594 46.1516 24.2617 43.7238 25.3117 41.2472C26.0664 42.681 26.8375 44.0986 27.6578 45.4999ZM22.6867 25.8984C25.0492 25.377 27.5594 24.9534 30.168 24.6275C29.2984 25.9799 28.4453 27.3649 27.6414 28.7661C26.8375 30.1511 26.05 31.5687 25.3117 33.0025C24.2781 30.5748 23.4086 28.1959 22.6867 25.8984ZM27.182 37.1249C28.2648 34.8763 29.4461 32.6767 30.693 30.5096C31.9398 28.3425 33.2852 26.2406 34.6961 24.1713C37.157 23.9921 39.6672 23.8943 42.2266 23.8943C44.7859 23.8943 47.3125 23.9921 49.757 24.1713C51.1516 26.2243 52.4805 28.3262 53.7438 30.477C55.007 32.6278 56.1883 34.8274 57.3039 37.0597C56.2047 39.3082 55.0234 41.5242 53.7602 43.7075C52.5133 45.8746 51.1844 47.9765 49.7898 50.0621C47.3453 50.2413 44.8023 50.3228 42.2266 50.3228C39.6508 50.3228 37.157 50.2413 34.7453 50.0947C33.318 48.0254 31.9727 45.9072 30.7094 43.7401C29.4461 41.5731 28.2812 39.3734 27.182 37.1249ZM56.8117 45.4673C57.6484 44.0334 58.4359 42.5833 59.207 41.1168C60.257 43.4794 61.1758 45.8746 61.9797 48.335C59.4367 48.9053 56.8609 49.3452 54.2687 49.6385C55.1547 48.2698 55.9914 46.8685 56.8117 45.4673ZM59.1742 33.0025C58.4031 31.5687 57.6156 30.1348 56.7953 28.7336C55.9914 27.3486 55.1547 25.9799 54.2852 24.6275C56.9266 24.9534 59.4531 25.3933 61.8156 25.931C61.0609 28.3425 60.175 30.6888 59.1742 33.0025ZM42.2594 14.672C43.982 16.5295 45.6062 18.4848 47.1156 20.5052C43.8672 20.3586 40.6023 20.3586 37.3539 20.5052C38.9617 18.4033 40.6188 16.4481 42.2594 14.672ZM23.2281 4.68395C25.9844 3.08716 32.1039 5.36829 38.5516 11.0385C38.9617 11.397 39.3719 11.788 39.7984 12.1791C37.2555 14.9002 34.9094 17.8004 32.7602 20.8311C29.0523 21.157 25.3773 21.7272 21.7352 22.5256C21.5219 21.6947 21.3414 20.8474 21.1609 20.0001C19.6187 12.1139 20.6359 6.16669 23.2281 4.68395ZM19.2086 47.6343C18.5195 47.4388 17.8469 47.227 17.1742 46.9989C13.6797 45.9072 9.70937 44.1801 6.83828 41.9152C5.18125 40.7747 4.06562 39.0149 3.75391 37.0434C3.75391 34.0616 8.93828 30.2489 16.4195 27.6582C17.3547 27.3323 18.3062 27.039 19.2578 26.762C20.3734 30.2978 21.7188 33.7683 23.2773 37.1249C21.7023 40.5303 20.3406 44.0497 19.2086 47.6343ZM38.3383 63.6022C35.6313 66.0626 32.4977 68.0178 29.0852 69.3539C27.2641 70.2175 25.1641 70.299 23.2938 69.5658C20.6852 68.0667 19.6023 62.315 21.0789 54.5755C21.2594 53.663 21.4563 52.7506 21.6859 51.8544C25.3609 52.6365 29.0688 53.1742 32.8258 53.4512C34.9914 56.4981 37.3703 59.4147 39.9133 62.1521C39.3883 62.6572 38.8633 63.146 38.3383 63.6022ZM42.3578 59.6428C40.6844 57.8505 39.0109 55.8627 37.3867 53.7282C38.9617 53.7934 40.5859 53.826 42.2266 53.826C43.9164 53.826 45.5734 53.7934 47.2141 53.7119C45.7047 55.7812 44.0805 57.7528 42.3578 59.6428ZM63.8008 64.531C63.6531 66.5188 62.6688 68.3763 61.0938 69.6309C58.4852 71.13 52.9234 69.1747 46.9188 64.0585C46.2297 63.4719 45.5406 62.8364 44.8352 62.1847C47.3453 59.431 49.6586 56.5144 51.7586 53.4512C55.5156 53.1416 59.2562 52.5714 62.9477 51.7404C63.1117 52.4084 63.2594 53.0765 63.3906 53.7282C64.1945 57.2477 64.3258 60.9138 63.8008 64.531ZM66.7867 47.0152C66.3273 47.1618 65.868 47.3085 65.3922 47.4388C64.2438 43.8868 62.8328 40.4162 61.2086 37.0434C62.7836 33.7195 64.1125 30.2978 65.2281 26.7946C66.0813 27.039 66.9016 27.2997 67.6891 27.5604C75.3344 30.1674 80.6992 34.0453 80.6992 37.0108C80.6992 40.2044 74.9734 44.3267 66.7867 47.0152ZM42.2266 44.5711C46.3773 44.5711 49.7406 41.2309 49.7406 37.1086C49.7406 32.9862 46.3773 29.646 42.2266 29.646C38.0758 29.646 34.7125 32.9862 34.7125 37.1086C34.7125 41.2309 38.0758 44.5711 42.2266 44.5711Z" fill="black"/>
</svg>
