<svg width="79" height="48" viewBox="0 0 79 48" fill="none" xmlns="http://www.w3.org/2000/svg">
<path d="M39.2266 0.718262C28.8266 0.718262 22.3266 5.91664 19.7266 16.3134C23.6266 11.115 28.1766 9.16664 33.3766 10.465C36.3438 11.206 38.4644 13.3591 40.8126 15.7414C44.6346 19.6203 49.0594 24.1118 58.7266 24.1118C69.1266 24.1118 75.6266 18.9134 78.2266 8.51501C74.3266 13.7134 69.7766 15.6634 64.5766 14.365C61.6109 13.624 59.4903 11.4709 57.1422 9.08864C53.3186 5.20814 48.8921 0.718262 39.2266 0.718262ZM19.7266 24.1118C9.32656 24.1118 2.82656 29.3101 0.226562 39.7085C4.12656 34.5101 8.67656 32.5601 13.8766 33.8601C16.8422 34.6028 18.9628 36.7543 21.3109 39.1349C25.1346 43.0154 29.5611 47.5069 39.2266 47.5069C49.6266 47.5069 56.1266 42.3085 58.7266 31.9101C54.8266 37.1085 50.2766 39.0585 45.0766 37.7585C42.1093 37.0175 39.9887 34.8644 37.6406 32.4838C33.8186 28.6033 29.3937 24.1118 19.7266 24.1118Z" fill="black"/>
</svg>
