<svg width="71" height="50" viewBox="0 0 71 50" fill="none" xmlns="http://www.w3.org/2000/svg">
<path d="M69.5164 7.82331C68.6998 4.74388 66.294 2.31862 63.2392 1.49557C57.7023 0 35.5 0 35.5 0C35.5 0 13.2978 0 7.76076 1.49557C4.70604 2.31875 2.30017 4.74388 1.48361 7.82331C0 13.4049 0 25.0505 0 25.0505C0 25.0505 0 36.6961 1.48361 42.2777C2.30017 45.3572 4.70604 47.6814 7.76076 48.5044C13.2978 50 35.5 50 35.5 50C35.5 50 57.7022 50 63.2392 48.5044C66.294 47.6814 68.6998 45.3572 69.5164 42.2777C71 36.6961 71 25.0505 71 25.0505C71 25.0505 71 13.4049 69.5164 7.82331ZM28.2386 35.6238V14.4772L46.7953 25.0508L28.2386 35.6238Z" fill="black"/>
</svg>
